<svg xmlns="http://www.w3.org/2000/svg" fill="none" viewBox="0 0 200 48" height="48" width="200">
<g opacity="0.8">
<path fill="black" d="M18.7556 48L4 27.2461L18.7556 35.9379L33.5288 27.2461L18.7556 48Z"></path>
<path fill="black" d="M164.978 21.2684C164.978 20.9136 165.351 20.5588 165.778 20.7184C166.009 20.8248 166.151 21.0554 166.151 21.3037V34.1819C166.151 34.5189 165.849 34.7672 165.564 34.7672C165.227 34.7672 164.978 34.5189 164.978 34.1819V31.734C164 33.6675 162.276 35.0688 160.071 35.0688C156.569 35.0688 154.631 32.0355 154.631 28.8249V21.2861C154.631 20.9845 154.88 20.7008 155.218 20.7007C155.555 20.7007 155.805 21.0022 155.805 21.2861V28.8249C155.805 31.3615 157.245 33.8803 160.071 33.8803C164.036 33.8803 164.978 30.173 164.978 26.0754V21.2684Z"></path>
<path fill="black" d="M51.5911 20.3281C55.5556 20.3282 58.4178 23.8404 58.4356 27.6187C58.4356 27.9557 58.151 28.2395 57.7955 28.2395H46.0089C46.3111 31.1486 48.4978 33.8093 51.5911 33.8093C53.7067 33.8093 55.2711 33.0111 56.4444 31.3259C56.5689 31.1486 56.7468 31.0243 56.9601 31.0243C57.2978 31.0244 57.5467 31.2728 57.5467 31.6098C57.5467 31.7339 57.5111 31.8226 57.4578 31.9113C56.2667 33.9689 53.9022 34.9801 51.5911 34.9801C47.6267 34.9801 44.7823 31.4323 44.7823 27.654C44.7823 23.8581 47.609 20.3281 51.5911 20.3281ZM51.5911 21.499C48.4978 21.499 46.3111 24.1596 46.0089 27.0687H57.1733C56.9244 24.1596 54.6844 21.499 51.5911 21.499Z" clip-rule="evenodd" fill-rule="evenodd"></path>
<path fill="black" d="M106.382 20.3281C110.329 20.3281 113.209 23.8404 113.227 27.6187C113.227 27.9557 112.942 28.2395 112.587 28.2395H100.8C101.102 31.1486 103.289 33.8093 106.382 33.8093C108.498 33.8093 110.062 33.0111 111.236 31.3259C111.36 31.1486 111.538 31.0243 111.751 31.0243C112.089 31.0244 112.338 31.2728 112.338 31.6098C112.338 31.7339 112.302 31.8226 112.249 31.9113C111.058 33.9689 108.693 34.9801 106.382 34.9801C102.418 34.9801 99.5734 31.4323 99.5734 27.654C99.5735 23.8581 102.4 20.3281 106.382 20.3281ZM106.364 21.499C103.271 21.499 101.085 24.1596 100.782 27.0687H111.947C111.698 24.1596 109.458 21.499 106.364 21.499Z" clip-rule="evenodd" fill-rule="evenodd"></path>
<path fill="black" d="M140.249 20.3281C144.213 20.3281 147.076 23.8404 147.093 27.6187C147.093 27.9557 146.809 28.2395 146.453 28.2395H134.667C134.969 31.1486 137.156 33.8093 140.249 33.8093C142.365 33.8093 143.929 33.0111 145.102 31.3259C145.227 31.1486 145.405 31.0243 145.618 31.0243C145.956 31.0244 146.205 31.2728 146.205 31.6098C146.205 31.7339 146.169 31.8226 146.116 31.9113C144.925 33.9689 142.56 34.9801 140.249 34.9801C136.285 34.9801 133.44 31.4323 133.44 27.654C133.44 23.8581 136.267 20.3281 140.249 20.3281ZM140.249 21.499C137.156 21.499 134.969 24.1596 134.667 27.0687H145.831C145.582 24.1596 143.342 21.499 140.249 21.499Z" clip-rule="evenodd" fill-rule="evenodd"></path>
<path fill="black" d="M68.9601 15.4679C69.3334 15.4325 69.6177 15.6985 69.6177 16.0532V20.612H72.7644C73.1022 20.612 73.351 20.9136 73.351 21.1974C73.351 21.5344 73.1022 21.7827 72.7644 21.7827H69.6V34.1819C69.6 34.4834 69.3511 34.7672 69.0134 34.7672C68.6756 34.7672 68.4268 34.4657 68.4267 34.1819V21.7827H65.3866C65.0489 21.7827 64.8 21.5344 64.8 21.1974C64.8 20.8958 65.0489 20.6121 65.3866 20.612H68.4267V16.0888C68.4267 15.7872 68.6579 15.5034 68.9601 15.4679Z"></path>
<path fill="black" d="M81.0667 8.86919C81.4044 8.8692 81.6533 9.17071 81.6533 9.45452V23.3968C82.6666 21.5875 84.48 20.3637 86.5955 20.3636C90.0799 20.3636 92.0533 23.3969 92.0533 26.6076V34.1109C92.0533 34.4479 91.7511 34.6962 91.4667 34.6962C91.1289 34.6962 90.88 34.4479 90.88 34.1109V26.6076C90.88 24.071 89.44 21.5522 86.6134 21.5521C82.9867 21.5521 81.4223 24.7095 81.6356 27.9556C81.6356 28.0443 81.6712 28.4169 81.6712 28.4701V34.0932C81.6711 34.3947 81.44 34.6785 81.1378 34.7141C80.7645 34.7495 80.48 34.4833 80.48 34.1286V9.45452C80.48 9.15297 80.7289 8.86919 81.0667 8.86919Z"></path>
<path fill="black" d="M190.56 20.3636C194.027 20.3637 196 23.3615 196 26.5544V34.0932C196 34.4302 195.698 34.6785 195.413 34.6785C195.076 34.6785 194.827 34.4302 194.827 34.0932V26.5544C194.827 24.0178 193.387 21.5343 190.56 21.5343C187.005 21.5343 185.653 25.3303 185.653 28.2749V34.0932C185.653 34.4302 185.351 34.6785 185.067 34.6785C184.729 34.6785 184.48 34.4302 184.48 34.0932V26.5544C184.48 24.0178 183.04 21.5343 180.213 21.5343C176.622 21.5343 175.147 24.3548 175.271 28.1153C175.271 28.204 175.307 28.3637 175.271 28.4169V34.0754C175.271 34.3769 175.04 34.6607 174.738 34.6962C174.365 34.7317 174.08 34.4656 174.08 34.1109V21.2506C174.08 20.949 174.311 20.6652 174.613 20.6297C174.987 20.5943 175.271 20.8603 175.271 21.215V23.3615C176.285 21.5522 178.098 20.3636 180.213 20.3636C182.613 20.3636 184.48 21.8891 185.244 24.1064C186.222 21.9068 188.125 20.3636 190.56 20.3636Z"></path>
<path fill="black" d="M127.076 20.612C127.378 20.612 127.716 20.8248 127.716 21.1619C127.716 21.5344 127.502 21.7472 127.164 21.8004C123.698 22.3148 122.133 25.1353 122.133 28.4169V34.0399C122.133 34.3414 121.902 34.6252 121.6 34.6607C121.227 34.6962 120.942 34.4301 120.942 34.0754V21.2506C120.942 20.949 121.173 20.6652 121.476 20.6297C121.849 20.5942 122.133 20.8603 122.133 21.215V23.8226C123.111 22.173 125.049 20.6121 127.076 20.612Z"></path>
<path fill="black" d="M33.5288 24.4435L18.7556 33.1529L4 24.4435L18.7556 0L33.5288 24.4435Z"></path>
</g>
</svg>
