<svg xmlns="http://www.w3.org/2000/svg" fill="none" viewBox="0 0 119 48" height="48" width="119">
<path fill="black" d="M13.0852 11.2467H19.7965V22.3286C17.5551 22.7865 15.8369 23.0191 13.957 23.0191C6.59551 23.0191 4 18.7695 4 11.7724C4 4.25141 7.59629 0 14.7707 0C15.6789 0 17.3953 0.0659443 19.5367 0.391988V7.48435H17.9801L17.101 4.77344C16.2583 2.1944 15.2557 0.915857 13.6627 0.915857C10.9092 0.915857 9.44529 4.6727 9.44529 11.7046C9.44529 18.7677 10.0301 22.1033 13.6282 22.1033C14.1187 22.1033 14.6944 22.0373 15.2502 21.8779V13.6298L13.0797 12.1259V11.2467H13.0852ZM19.6674 40.9956C19.6674 45.443 16.6524 47.9927 11.3325 47.9927C9.87576 47.9927 7.73615 47.7674 5.72367 47.434V38.7425H7.28025L7.93049 40.7996C9.38717 45.5382 10.4243 47.108 12.2769 47.108C14.224 47.108 15.6153 45.377 15.6153 43.0892C15.6153 41.2282 14.7435 39.9203 12.8599 38.9037L9.61603 37.138C7.11497 35.8008 5.75274 33.7072 5.75274 31.1574C5.75274 27.2999 8.89677 24.9809 14.0587 24.9809C15.2266 24.9809 16.5889 25.0817 18.7593 25.3729V32.4652H17.2028L16.3309 29.7543C15.45 26.8767 14.5128 25.8308 12.7964 25.8308C10.8784 25.8308 9.74499 27.0727 9.74499 28.8678C9.74499 30.4669 10.6259 31.6153 12.3423 32.5953L15.6153 34.4563C18.3707 36.0261 19.6674 38.1198 19.6674 40.9956ZM34.0072 46.1317L34.6557 47.1135V47.608H29.6953L29.4647 45.7103C28.947 47.1482 27.583 48 25.832 48C23.2365 48 21.6146 46.3643 21.6146 43.6826C21.6146 41.067 23.0712 39.3378 27.5485 37.5721L29.4592 36.8211V34.3739C29.4592 32.2161 29.0705 31.3351 27.8736 31.3351C26.9 31.3351 26.3515 31.8589 25.4071 34.242L24.3391 36.9108H22.8823V31.5805C24.7931 30.9907 26.7111 30.5988 28.3621 30.5988C32.0257 30.5988 34.0072 32.3645 34.0072 35.5681V46.1317ZM35.8835 14.3203C35.8835 19.8796 32.9338 23.0191 29.1341 23.0191C25.3416 23.0191 22.3938 19.8796 22.3938 14.3203C22.3938 8.76287 25.3416 5.62335 29.1414 5.62335C32.9338 5.62335 35.8835 8.76287 35.8835 14.3203ZM29.4647 43.3859V37.7315L28.8526 37.9933C26.9345 38.7792 26.2207 40.545 26.2207 43.124C26.2207 45.0565 26.6748 46.1628 27.7428 46.1628C28.8108 46.1628 29.4647 45.115 29.4647 43.3859ZM31.1175 14.3203C31.1175 8.04305 30.598 6.37803 29.1414 6.37803C27.6847 6.37803 27.1652 8.04488 27.1652 14.3203C27.1652 20.5994 27.6847 22.2626 29.1414 22.2626C30.598 22.2626 31.1175 20.5994 31.1175 14.3203ZM47.4026 43.5471L47.9874 43.8438C46.9485 46.8515 45.6208 47.9927 43.0561 47.9927C38.8731 47.9927 36.5374 44.8238 36.5374 39.2957C36.5374 33.7731 39.2619 30.5988 43.7046 30.5988C44.9033 30.5988 46.4944 30.7947 47.8567 31.3479V36.9053H46.3346L45.7224 34.8135C44.9088 32.0367 44.4602 31.3167 43.6464 31.3167C42.3477 31.3167 41.3088 33.0184 41.3088 39.4917C41.3088 44.6883 42.0899 46.5841 44.0642 46.5841C45.3901 46.5896 46.5235 45.7415 47.4026 43.5453V43.5471ZM43.799 22.6271H37.9596V22.1381L38.6079 21.1581V2.91242L37.9596 1.93063V1.43606L43.1505 1.04408V21.1508L43.799 22.1307V22.6253V22.6271ZM51.7799 23.0191C48.2108 23.0191 46.0694 19.7495 46.0694 14.1609C46.0694 8.60174 48.3053 5.63069 51.7435 5.63069C53.4963 5.63069 54.468 6.31391 54.8876 7.68585V2.91242L54.2392 1.93246V1.4379L59.4302 1.04591V21.1526L60.0785 22.1326V22.6198H55.4724L55.1183 20.136C54.606 22.2626 53.6325 23.0191 51.7799 23.0191ZM63.1645 46.1317L63.8129 47.1135V47.608H57.9735V47.1135L58.6219 46.1317V34.3629C58.6219 32.9598 58.2041 32.1099 57.1943 32.1099C55.9919 32.1099 55.1183 33.1265 55.1183 35.1176V46.1335L55.7666 47.1153V47.6099H49.929V47.1153L50.5775 46.1335V27.8897L49.929 26.9079V26.4206L55.1201 26.0286V32.7932C55.7031 31.3901 57.0308 30.6061 58.9125 30.6061C61.5734 30.6061 63.159 32.3059 63.159 35.6067V46.1335H63.1663L63.1645 46.1317ZM50.8409 14.2196C50.8409 20.1049 51.3603 21.9018 52.7879 21.9018C54.5697 21.9018 54.8949 19.3209 54.8949 14.1536C54.8949 9.15493 54.5406 6.66928 52.8169 6.66928C51.3603 6.66928 50.8409 8.43503 50.8409 14.2196ZM83.407 21.1526L84.0573 22.1326V22.6198H78.2181V22.1326L78.8665 21.1526V9.02483C78.8665 7.84706 78.476 7.12723 77.5679 7.12723C76.4363 7.12723 75.5281 8.1438 75.5281 10.1V21.1526L76.1766 22.1326V22.6198H70.3371V22.1326L70.9855 21.1526V9.02483C70.9855 7.84706 70.5968 7.12723 69.6868 7.12723C68.5553 7.12723 67.6471 8.1438 67.6471 10.1V21.1526L68.2956 22.1326V22.6198H62.4562V22.1326L63.1045 21.1526V7.84706L62.4562 7.0631V6.57585L67.1277 6.01534H67.5164L67.6471 7.84706C68.1957 6.40916 69.5579 5.62335 71.4106 5.62335C73.3867 5.62335 74.6835 6.60516 75.2684 8.37089C75.7515 6.66928 77.279 5.62335 79.2261 5.62335C81.7868 5.62335 83.407 7.32322 83.407 10.6239V21.1526ZM77.3444 42.7979C77.3444 45.6371 75.5281 47.9927 71.1508 47.9927C70.0174 47.9927 68.4899 47.8626 66.1251 47.434V41.36H67.451L67.8705 42.6679C68.9095 46.0016 69.912 47.2471 71.5032 47.2471C72.9962 47.2471 73.9697 46.1646 73.9697 44.4996C73.9697 43.1259 73.285 42.1807 71.6703 41.2941L68.8804 39.7921C67.0986 38.8103 66.1251 37.2772 66.1251 35.3795C66.1251 32.4066 68.4318 30.6061 72.2533 30.6061C73.3576 30.6061 74.7834 30.7673 76.34 31.0933V35.8667H75.0141L74.3293 34.1322C73.552 32.0385 72.8073 31.3553 71.5758 31.3553C70.2481 31.3553 69.4689 32.1392 69.4689 33.447C69.4689 34.5589 70.1191 35.3081 71.7048 36.2239L74.4601 37.7937C76.3345 38.8745 77.3444 40.4094 77.3444 42.7998V42.7979ZM98.3319 21.1526L98.9807 22.1326V22.6198H94.0202L93.795 20.724C93.2755 22.1619 91.9131 23.0136 90.1621 23.0136C87.5649 23.0136 85.9447 21.3779 85.9447 18.6963C85.9447 16.0806 87.4015 14.3514 91.8782 12.5857L93.7894 11.8347V9.38937C93.7894 7.23157 93.4008 6.35054 92.2018 6.35054C91.2303 6.35054 90.6815 6.87445 89.737 9.25744L88.6688 11.9391H87.2072V6.61065C89.1232 6.02267 91.0336 5.62885 92.6871 5.62885C96.3502 5.62885 98.3319 7.39461 98.3319 10.6001V21.1508V21.1526ZM93.7894 18.405V12.7524L93.1756 13.0125C91.2644 13.7983 90.5507 15.5641 90.5507 18.1431C90.5507 20.0756 91.0051 21.1874 92.0725 21.1874C93.1407 21.1874 93.7894 20.1415 93.7894 18.405ZM115 22.1326V22.6198H109.161V22.1326L109.809 21.1526V9.37837C109.809 7.96974 109.392 7.1254 108.381 7.1254C107.179 7.1254 106.305 8.14196 106.305 10.1349V21.1508L106.955 22.1307V22.618H101.116V22.1307L101.765 21.1508V7.84706L101.115 7.0631V6.57585L105.788 6.01534H106.177L106.305 7.84706C106.854 6.40916 108.187 5.62335 110.098 5.62335C112.759 5.62335 114.347 7.32322 114.347 10.6239V21.1526L115 22.1326Z"></path>
</svg>
