<svg xmlns="http://www.w3.org/2000/svg" fill="none" viewBox="0 0 162 48" height="48" width="162">
<path fill="black" d="M48.1906 9.86682C50.1731 12.5157 51.6019 15.5372 52.3915 18.7509C49.1956 14.4508 44.5362 10.3126 38.7508 6.94969C32.9655 3.58674 27.0663 1.59045 21.7517 0.939675C24.9329 0.0343181 28.2639 -0.220322 31.5457 0.190959C34.8274 0.60224 37.9927 1.671 40.8525 3.33344C43.7124 4.99588 46.208 7.2179 48.1906 9.86682ZM22.8041 33.4061C16.5936 29.7959 9.87162 28.8758 5.06186 30.5011C5.52618 32.0366 6.13854 33.5234 6.89032 34.9404C11.0692 34.8435 15.6318 35.9791 19.8773 38.4464C24.1228 40.9137 27.37 44.3189 29.3571 48C30.9605 47.9508 32.5555 47.7464 34.1197 47.3898C33.1472 42.4048 29.0132 37.0171 22.8041 33.4061ZM8.63479 37.7465C10.6615 40.5672 13.2611 42.9273 16.2633 44.6722C19.2655 46.4169 22.6024 47.5071 26.0552 47.8711C24.2788 45.1964 21.6966 42.7357 18.473 40.8623C15.2494 38.9888 11.8356 37.9654 8.63479 37.7465ZM44.6647 30.5358C41.9443 26.0154 37.2842 21.6868 31.5434 18.35C25.8028 15.013 19.7378 13.107 14.4703 12.9809C9.83615 12.8711 6.3581 14.219 4.93045 16.6783C4.92597 16.6863 4.92049 16.6941 4.91499 16.7019L4.91498 16.7019C4.9105 16.7083 4.906 16.7147 4.902 16.7213C4.77354 17.1825 4.66297 17.6445 4.56216 18.1083C6.55566 17.3208 8.86542 16.8824 11.4337 16.8335C17.1451 16.7263 23.5369 18.5541 29.4354 21.9829C35.3337 25.4118 40.0906 30.0641 42.8256 35.0799C44.0517 37.3398 44.8167 39.5647 45.1199 41.6903C45.4728 41.3747 45.8191 41.0485 46.1549 40.7093C46.1597 40.701 46.1636 40.6925 46.1675 40.6839C46.1709 40.6764 46.1743 40.6688 46.1784 40.6613C47.6062 38.1997 47.0541 34.5097 44.6647 30.5358ZM4 23.5251C8.67156 19.9588 18.3862 20.7593 27.1773 25.8695C35.9708 30.9807 41.4789 39.0284 40.6968 44.8562C39.7224 45.4004 38.7122 45.878 37.6732 46.2855C37.356 44.8844 36.8825 43.5233 36.2618 42.2278C34.0163 37.4992 29.8992 33.2153 24.6765 30.1777C19.4537 27.1403 13.6984 25.6849 8.47805 26.0779C7.04581 26.1811 5.6295 26.4436 4.25528 26.8604C4.09447 25.7557 4.00918 24.6414 4 23.5251ZM49.1758 22.9656C46.4247 18.45 41.7239 14.1092 35.9425 10.7503C30.1612 7.39148 24.0725 5.45539 18.788 5.30001C14.7596 5.18368 11.6392 6.16067 10.0213 8.00646C16.7392 6.86759 25.6002 8.78172 34.1888 13.7741C42.7776 18.7665 48.8312 25.5215 51.1678 31.9244C51.9686 29.6052 51.2719 26.4091 49.1758 22.9656ZM78.045 14.8589H73.9438V28.5503C73.9438 29.1767 73.8511 29.7041 73.6658 30.1323C73.4805 30.5606 73.2091 30.8867 72.8514 31.1103C72.5 31.3276 72.0689 31.4362 71.5578 31.4362C71.0723 31.4362 70.6506 31.3404 70.2929 31.1487C69.9415 30.9506 69.6637 30.6693 69.4592 30.305C69.2612 29.9342 69.1558 29.49 69.1431 28.9723H65.0131C65.0066 30.2762 65.2846 31.3596 65.8467 32.2225C66.4089 33.079 67.1691 33.7181 68.1273 34.1401C69.092 34.5556 70.1652 34.7633 71.3469 34.7633C72.6757 34.7633 73.8415 34.5109 74.8444 34.0058C75.8475 33.5009 76.63 32.7819 77.1921 31.8486C77.7606 30.9153 78.045 29.816 78.045 28.5503V14.8589ZM90.8373 19.7679V28.2244C90.8436 28.8827 90.7127 29.4356 90.4444 29.883C90.1825 30.3305 89.8376 30.6693 89.4094 30.8994C88.9814 31.1231 88.5215 31.2349 88.0297 31.2349C87.2567 31.2349 86.6402 30.9825 86.1802 30.4775C85.7203 29.9726 85.4872 29.2854 85.4808 28.4161V19.7679H81.3988V29.1448C81.4052 30.2954 81.616 31.2829 82.0312 32.1075C82.4528 32.932 83.0372 33.568 83.7847 34.0154C84.5321 34.4629 85.3977 34.6865 86.3816 34.6865C87.4867 34.6865 88.4226 34.4245 89.1891 33.9004C89.962 33.3763 90.5147 32.6827 90.8468 31.8198H91.0001V34.4948H94.9193V19.7679H90.8373ZM98.1845 19.7679V40.0174H102.267V32.1363H102.391C102.576 32.5453 102.845 32.9512 103.196 33.3538C103.547 33.7502 103.998 34.0793 104.547 34.3414C105.103 34.6034 105.777 34.7345 106.569 34.7345C107.687 34.7345 108.696 34.4468 109.597 33.8716C110.504 33.2899 111.22 32.4366 111.743 31.3116C112.274 30.1803 112.539 28.7933 112.539 27.1506C112.539 25.4631 112.267 24.06 111.724 22.9415C111.181 21.8165 110.456 20.976 109.549 20.4199C108.642 19.8574 107.652 19.5762 106.579 19.5762C105.754 19.5762 105.064 19.7167 104.509 19.998C103.959 20.2729 103.512 20.6181 103.167 21.0336C102.829 21.4426 102.57 21.8453 102.391 22.2416H102.209V19.7679H98.1845ZM102.544 29.4228C102.302 28.7708 102.18 28.007 102.18 27.1314C102.18 26.2557 102.302 25.495 102.544 24.8495C102.787 24.2039 103.135 23.7053 103.589 23.3537C104.049 23.0023 104.611 22.8265 105.275 22.8265C105.946 22.8265 106.511 23.0086 106.971 23.3729C107.431 23.7372 107.779 24.2423 108.016 24.8879C108.252 25.5334 108.37 26.2812 108.37 27.1314C108.37 27.9878 108.249 28.7453 108.006 29.4036C107.77 30.0557 107.422 30.567 106.962 30.9378C106.502 31.302 105.94 31.4842 105.275 31.4842C104.617 31.4842 104.058 31.3053 103.598 30.9473C103.138 30.5829 102.787 30.0749 102.544 29.4228ZM119.342 19.7679H115.26V34.4948H119.342V19.7679ZM115.749 17.2655C116.183 17.6682 116.704 17.8695 117.311 17.8695C117.917 17.8695 118.435 17.6682 118.863 17.2655C119.297 16.8565 119.514 16.3675 119.514 15.7985C119.514 15.236 119.297 14.7535 118.863 14.3508C118.435 13.9417 117.917 13.7372 117.311 13.7372C116.704 13.7372 116.183 13.9417 115.749 14.3508C115.321 14.7535 115.107 15.236 115.107 15.7985C115.107 16.3675 115.321 16.8565 115.749 17.2655ZM130.441 22.8361V19.7679H127.671V16.2395H123.589V19.7679H121.577V22.8361H123.589V30.5063C123.583 31.4715 123.784 32.2704 124.193 32.9032C124.602 33.536 125.174 34.0027 125.908 34.3031C126.649 34.6034 127.512 34.7345 128.496 34.6961C129.026 34.6771 129.476 34.6226 129.847 34.5332C130.217 34.4501 130.505 34.3766 130.709 34.3127L130.067 31.2733C129.965 31.2925 129.818 31.3212 129.626 31.3596C129.435 31.3915 129.243 31.4076 129.051 31.4076C128.777 31.4076 128.534 31.366 128.323 31.2829C128.119 31.1999 127.959 31.056 127.844 30.8514C127.729 30.6405 127.671 30.3465 127.671 29.9694V22.8361H130.441ZM135.74 33.862C136.832 34.4756 138.135 34.7825 139.649 34.7825C140.863 34.7825 141.933 34.5971 142.859 34.2263C143.792 33.8492 144.552 33.3251 145.14 32.6539C145.734 31.9764 146.127 31.1838 146.319 30.2762L142.543 30.0269C142.403 30.3977 142.198 30.7109 141.93 30.9665C141.662 31.2222 141.339 31.4139 140.962 31.5418C140.585 31.6696 140.17 31.7335 139.716 31.7335C139.033 31.7335 138.442 31.5897 137.944 31.3021C137.445 31.0145 137.059 30.6054 136.784 30.0749C136.516 29.5443 136.382 28.9147 136.382 28.186V28.1764H146.405V27.0547C146.405 25.8018 146.229 24.7089 145.878 23.7756C145.526 22.8361 145.035 22.0562 144.402 21.4361C143.776 20.8162 143.041 20.3527 142.198 20.046C141.361 19.7328 140.457 19.5762 139.486 19.5762C138.043 19.5762 136.784 19.8957 135.711 20.535C134.644 21.1741 133.817 22.0658 133.229 23.21C132.641 24.354 132.348 25.6836 132.348 27.1985C132.348 28.7518 132.641 30.0972 133.229 31.2349C133.817 32.3664 134.654 33.2421 135.74 33.862ZM136.385 25.6452C136.41 25.1164 136.546 24.6338 136.794 24.1974C137.062 23.718 137.432 23.3378 137.905 23.0566C138.384 22.7689 138.934 22.625 139.553 22.625C140.148 22.625 140.668 22.7561 141.115 23.0182C141.569 23.2739 141.923 23.6286 142.179 24.0824C142.434 24.5363 142.562 25.0572 142.562 25.6452H136.385ZM153.026 19.7679H149.069V34.4948H153.151V26.163C153.151 25.5621 153.285 25.0317 153.553 24.5714C153.828 24.1112 154.198 23.7533 154.665 23.4975C155.137 23.2355 155.673 23.1045 156.275 23.1045C156.555 23.1045 156.865 23.1269 157.204 23.1716C157.543 23.2163 157.808 23.2674 158 23.325V19.7008C157.82 19.656 157.613 19.6209 157.376 19.5954C157.14 19.5697 156.919 19.557 156.715 19.557C155.891 19.557 155.162 19.7935 154.531 20.2665C153.898 20.7331 153.448 21.4234 153.179 22.3375H153.026V19.7679Z" clip-rule="evenodd" fill-rule="evenodd"></path>
</svg>
