<svg xmlns="http://www.w3.org/2000/svg" fill="none" viewBox="0 0 196 48" height="48" width="196">
<path fill="black" d="M35.1589 34.0763L29.9881 39.6179C29.8762 39.7383 29.7408 39.8344 29.5902 39.9001C29.4396 39.9658 29.277 39.9999 29.1127 40H4.60079C4.48388 39.9999 4.36952 39.9658 4.27173 39.9018C4.17393 39.8377 4.09694 39.7466 4.05018 39.6395C4.00342 39.5324 3.98892 39.414 4.00845 39.2988C4.02798 39.1836 4.0807 39.0766 4.16016 38.9908L9.32516 33.4492C9.43701 33.3289 9.57244 33.2328 9.72307 33.167C9.87367 33.1013 10.0362 33.0673 10.2006 33.0671H34.7125C34.8304 33.0647 34.9465 33.0972 35.046 33.1605C35.1455 33.2239 35.2243 33.3152 35.2719 33.4231C35.3197 33.531 35.3343 33.6506 35.3142 33.7668C35.294 33.883 35.2401 33.9907 35.1589 34.0763ZM29.9881 22.9142C29.8758 22.7944 29.7403 22.6988 29.5898 22.633C29.4393 22.5674 29.2769 22.533 29.1127 22.5322H4.60079C4.48388 22.5322 4.36952 22.5664 4.27173 22.6304C4.17393 22.6944 4.09694 22.7856 4.05018 22.8927C4.00342 22.9998 3.98892 23.1182 4.00845 23.2334C4.02798 23.3486 4.0807 23.4556 4.16016 23.5413L9.32516 29.0859C9.43742 29.2057 9.57296 29.3014 9.72348 29.3671C9.87399 29.4328 10.0364 29.4671 10.2006 29.468H34.7125C34.8292 29.4673 34.943 29.4328 35.0405 29.3686C35.1379 29.3043 35.2144 29.2131 35.2608 29.1061C35.3072 28.9992 35.3215 28.881 35.3016 28.766C35.2821 28.6511 35.2296 28.5443 35.1502 28.4588L29.9881 22.9142ZM4.60079 18.933H29.1127C29.277 18.9329 29.4396 18.8988 29.5902 18.8331C29.7408 18.7674 29.8762 18.6713 29.9881 18.5509L35.1589 13.0093C35.2401 12.9237 35.294 12.816 35.3142 12.6998C35.3343 12.5836 35.3197 12.464 35.2719 12.3561C35.2243 12.2482 35.1455 12.1569 35.046 12.0935C34.9465 12.0302 34.8304 11.9977 34.7125 12.0001H10.2006C10.0362 12.0003 9.87367 12.0343 9.72307 12.1001C9.57244 12.1658 9.43701 12.2618 9.32516 12.3822L4.16016 17.9238C4.0807 18.0096 4.02798 18.1166 4.00845 18.2318C3.98892 18.347 4.00342 18.4654 4.05018 18.5725C4.09694 18.6796 4.17393 18.7707 4.27173 18.8348C4.36952 18.8988 4.48388 18.9329 4.60079 18.933ZM65.0426 23.8405H51.9288V19.5239H68.451V15.2072H51.885C51.3189 15.2041 50.7581 15.3125 50.234 15.5262C49.7099 15.7398 49.2328 16.0546 48.8307 16.4524C48.4283 16.8503 48.1081 17.3235 47.8887 17.845C47.6693 18.3665 47.5546 18.9261 47.5517 19.4918V23.8668C47.554 24.433 47.6678 24.9932 47.887 25.5153C48.1061 26.0375 48.4259 26.5114 48.8283 26.9098C49.231 27.3083 49.7081 27.6236 50.2325 27.8376C50.7569 28.0517 51.3186 28.1602 51.885 28.1572H65.0164V32.4738H47.8639V36.7904H65.0426C65.6088 36.7935 66.1696 36.6851 66.6937 36.4715C67.2178 36.2578 67.6949 35.9431 68.097 35.5452C68.4994 35.1473 68.8195 34.6742 69.039 34.1527C69.2584 33.6312 69.3731 33.0716 69.376 32.5059V28.1309C69.3737 27.5647 69.2599 27.0045 69.0407 26.4823C68.8216 25.9602 68.5017 25.4863 68.0993 25.0878C67.6966 24.6893 67.2195 24.3741 66.6952 24.1601C66.1708 23.946 65.609 23.8374 65.0426 23.8405ZM77.2808 15.2071H90.4442C91.0103 15.204 91.5712 15.3124 92.0953 15.5261C92.6194 15.7397 93.0965 16.0545 93.4986 16.4523C93.901 16.8502 94.2211 17.3234 94.4405 17.8449C94.66 18.3664 94.7747 18.926 94.7776 19.4917V32.5058C94.7747 33.0715 94.66 33.6311 94.4405 34.1526C94.2211 34.674 93.901 35.1472 93.4986 35.5451C93.0965 35.943 92.6194 36.2577 92.0953 36.4714C91.5712 36.685 91.0103 36.7934 90.4442 36.7903H77.2808C76.7138 36.795 76.1515 36.6877 75.6259 36.4747C75.1007 36.2618 74.6224 35.9473 74.2188 35.5492C73.815 35.1512 73.494 34.6775 73.2739 34.1553C73.0536 33.633 72.9387 33.0725 72.9357 32.5058V19.4917C72.9387 18.925 73.0536 18.3644 73.2739 17.8422C73.494 17.3199 73.815 16.8462 74.2188 16.4482C74.6224 16.0502 75.1007 15.7357 75.6259 15.5227C76.1515 15.3097 76.7138 15.2025 77.2808 15.2071ZM77.3129 32.4737H90.4121L90.4063 19.5238H77.3129V32.4737ZM136.55 15.2075H123.711C123.144 15.2044 122.584 15.3128 122.06 15.5264C121.535 15.7401 121.058 16.0548 120.656 16.4527C120.254 16.8506 119.934 17.3238 119.714 17.8452C119.495 18.3667 119.38 18.9263 119.377 19.492V36.7907H123.754V29.7003H136.536V36.7907H140.913V19.492C140.91 18.9238 140.794 18.3619 140.573 17.8384C140.352 17.315 140.029 16.8406 139.623 16.4423C139.218 16.044 138.738 15.7299 138.21 15.518C137.683 15.3061 137.119 15.2005 136.55 15.2075ZM136.518 25.3837H123.737V19.5241H136.518V25.3837ZM174.827 15.207H187.667C188.233 15.204 188.794 15.3123 189.318 15.526C189.842 15.7397 190.319 16.0544 190.721 16.4523C191.123 16.8501 191.444 17.3233 191.663 17.8448C191.882 18.3663 191.997 18.9259 192 19.4916V36.7903H187.623V29.6999H174.871V36.7903H170.494V19.4916C170.497 18.9259 170.611 18.3663 170.831 17.8448C171.05 17.3233 171.37 16.8501 171.773 16.4523C172.175 16.0544 172.652 15.7397 173.176 15.526C173.7 15.3123 174.261 15.204 174.827 15.207ZM174.842 25.3832H187.623V19.5237H174.842V25.3832ZM162.237 32.4736H160.486L154.227 17.0153C154.012 16.482 153.643 16.0249 153.167 15.7028C152.691 15.3806 152.129 15.2079 151.554 15.207H147.67C147.292 15.2051 146.918 15.2775 146.569 15.4201C146.219 15.5627 145.901 15.7727 145.633 16.0381C145.365 16.3036 145.151 16.6192 145.005 16.967C144.859 17.3148 144.783 17.6881 144.781 18.0653V36.7902H149.158V19.5236H150.909L157.165 34.9819C157.383 35.5142 157.755 35.9694 158.233 36.2894C158.711 36.6095 159.274 36.7797 159.85 36.7786H163.734C164.111 36.7805 164.485 36.7081 164.835 36.5655C165.184 36.4229 165.502 36.2129 165.771 35.9474C166.039 35.682 166.252 35.3664 166.398 35.0186C166.544 34.6707 166.621 34.2976 166.623 33.9203V15.207H162.237V32.4736ZM98.6487 15.207H103.026V32.4736H116.128V36.7902H102.997C102.429 36.7952 101.867 36.6882 101.341 36.4754C100.815 36.2626 100.337 35.9482 99.9327 35.5502C99.5288 35.1521 99.2075 34.6783 98.9872 34.1558C98.7669 33.6334 98.6516 33.0726 98.6487 32.5056V15.207Z" clip-rule="evenodd" fill-rule="evenodd"></path>
</svg>
