<svg xmlns="http://www.w3.org/2000/svg" fill="none" viewBox="0 0 85 48" height="48" width="85">
<path fill="black" d="M31.7866 28.1595C31.7866 25.3272 30.8061 22.7234 29.1663 20.6646H29.168L20.3248 9.85206C20.0167 9.47441 19.4387 9.47441 19.1306 9.85206L17.3716 12.002C16.8333 12.6662 16.2005 13.7709 15.7749 15.0877C15.3492 16.4062 15.1289 17.9449 15.4254 19.477C15.8842 21.8472 17.6316 23.9309 20.6842 25.6634C25.2044 28.2357 27.9506 31.4109 28.7936 35.1144C28.8384 35.3099 28.8765 35.5053 28.9096 35.6975L28.9477 35.9244L29.0934 35.7455C30.7763 33.6751 31.7866 30.9918 31.7866 28.1595ZM20.1608 4.10624L31.9473 18.5163L31.9456 18.518L31.9837 18.566C34.1519 21.2559 35.4504 24.6762 35.4504 28.3997C35.4504 37.0705 28.4094 44.1 19.7252 44.1C11.0411 44.1 4 37.0705 4 28.3997C4 24.6762 5.29856 21.2559 7.4667 18.5644L7.5048 18.5163L19.2896 4.10624C19.5149 3.83129 19.9356 3.83129 20.1608 4.10624ZM11.379 19.3279L10.3255 20.6182L10.3222 20.6149C8.65926 22.6803 7.66381 25.3023 7.66381 28.1578C7.66381 34.808 13.0635 40.1977 19.7236 40.1977C21.6217 40.1977 23.4188 39.7588 25.0172 38.9786L25.0685 38.9538L25.0752 38.8975C25.1828 37.9848 25.1398 36.9414 24.8913 35.8813C24.2984 33.3405 22.2362 31.0233 18.695 29.0075C14.6221 26.6969 12.1856 23.7139 11.5032 20.1346C11.4667 19.9441 11.4353 19.7553 11.4104 19.5664L11.379 19.3279ZM80.2822 11.7267C80.7079 12.1275 80.9249 12.6178 80.9249 13.1843H80.9282C80.9282 13.7226 80.7327 14.193 80.3452 14.5839L80.2855 14.6418C80.2706 14.6567 80.2557 14.67 80.2408 14.6832L80.2226 14.6998C79.8184 15.0609 79.3596 15.2447 78.7733 15.2447C78.187 15.2447 77.6751 15.0427 77.2511 14.6435C76.8304 14.241 76.6184 13.7524 76.6184 13.1859C76.6184 12.6195 76.8304 12.1292 77.2495 11.7283C77.6751 11.3275 78.1853 11.1254 78.7716 11.1254C79.358 11.1254 79.8648 11.3275 80.2822 11.7267ZM55.1591 24.7762C54.4402 24.266 53.675 23.8569 52.8849 23.5604C52.1147 23.2706 51.4058 23.0387 50.7747 22.8714L48.3002 22.2056C47.8563 22.0896 47.3627 21.9356 46.836 21.7484C46.3126 21.5563 45.8041 21.3095 45.3287 21.018C44.8616 20.7231 44.4724 20.3539 44.171 19.9183C43.8828 19.4826 43.737 18.9526 43.737 18.3414C43.737 17.6077 43.949 16.9435 44.3681 16.3687C44.797 15.7874 45.4049 15.3236 46.1701 14.9907C46.9503 14.6544 47.8762 14.4838 48.9213 14.4838C50.3491 14.4838 51.5681 14.8085 52.547 15.4511C53.5094 16.0822 54.0659 16.9816 54.2017 18.1244L54.2183 18.2702H57.3769L57.3703 18.0996C57.3305 16.8474 56.9363 15.7128 56.2025 14.729C55.4787 13.7484 54.4849 12.9666 53.251 12.4051C52.0203 11.837 50.5942 11.5505 49.0157 11.5505C47.4372 11.5505 46.0161 11.842 44.7457 12.4167C43.4786 12.9865 42.4533 13.7998 41.6981 14.8366C40.9461 15.8702 40.5651 17.0975 40.5651 18.4839C40.5651 20.1584 41.1415 21.5331 42.2761 22.5699C43.3941 23.5919 44.9296 24.3886 46.8393 24.9385L49.8224 25.7915C50.6621 26.0251 51.4555 26.3017 52.1793 26.6131C52.8866 26.9178 53.4646 27.317 53.8969 27.8023C54.316 28.2727 54.5297 28.8971 54.5297 29.6574C54.5297 30.4988 54.2796 31.2442 53.7843 31.8736C53.2841 32.503 52.5934 33.0032 51.7338 33.361C50.8675 33.7138 49.8721 33.8926 48.7789 33.8926C47.8397 33.8926 46.9486 33.7518 46.1354 33.4752C45.337 33.1937 44.6662 32.763 44.1445 32.1949C43.6343 31.6251 43.3378 30.893 43.2633 30.0185L43.25 29.8677H39.891L39.9042 30.045C40.0003 31.3949 40.421 32.599 41.1548 33.621C41.8952 34.643 42.9204 35.4496 44.2041 36.0194C45.4894 36.5858 47.0298 36.874 48.7805 36.874C50.6588 36.874 52.2804 36.5544 53.5971 35.9233C54.9288 35.2889 55.9558 34.421 56.6465 33.3427C57.3471 32.2628 57.7032 31.0388 57.7032 29.7021C57.7032 28.541 57.4597 27.5456 56.981 26.7422C56.5057 25.9439 55.8928 25.283 55.1591 24.7745V24.7762ZM71.275 28.8495C71.275 29.946 71.0332 30.8587 70.5578 31.5626C70.0874 32.2682 69.4961 32.7982 68.7988 33.1394C68.1081 33.4806 67.4191 33.6545 66.7532 33.6545C65.6468 33.6545 64.7226 33.2736 64.0103 32.5233C63.3014 31.7696 62.9437 30.7411 62.9437 29.4657V17.9393H59.8198V29.6562C59.8198 31.2214 60.0799 32.5398 60.595 33.5767C61.1118 34.6119 61.8356 35.4003 62.7449 35.9187C63.6493 36.4272 64.6961 36.6856 65.8555 36.6856C67.2568 36.6856 68.4361 36.3527 69.3603 35.6968C70.1951 35.0972 70.8377 34.3701 71.275 33.5336V36.4488H74.3989V17.9393H71.275V28.8495ZM80.3023 17.9393H77.1785V36.4489H80.3023V17.9393Z" clip-rule="evenodd" fill-rule="evenodd"></path>
</svg>
