<svg xmlns="http://www.w3.org/2000/svg" fill="none" viewBox="0 0 185 48" height="48" width="185">
<path fill="black" d="M160.466 9.61802H160.517C160.573 9.67668 160.682 9.79438 160.834 9.95871C161.502 10.6808 163.003 12.303 164.483 13.7716C165.193 14.4744 165.969 15.2557 166.712 16.002C167.782 17.0784 168.78 18.0821 169.399 18.6728C169.583 18.8549 169.782 19.0387 169.964 19.0387C170.113 19.0387 170.18 18.8884 170.18 18.5226L170.364 7.99902C170.378 7.06579 170.512 6.71406 170.979 6.5815C171.179 6.53201 171.313 6.53201 171.479 6.53201C171.679 6.53201 171.78 6.48252 171.78 6.38354C171.78 6.25098 171.613 6.23507 171.396 6.23507C170.844 6.23507 170.374 6.2562 170.072 6.2698C169.928 6.27626 169.822 6.28103 169.763 6.28103C169.628 6.28103 169.425 6.27412 169.176 6.26566C168.784 6.2523 168.277 6.23507 167.746 6.23507C167.497 6.23507 167.313 6.25098 167.313 6.38354C167.313 6.48252 167.38 6.53201 167.58 6.53201C167.813 6.53201 168.211 6.53201 168.464 6.63276C168.863 6.7989 169.013 7.11528 169.029 8.13334L169.195 15.6204H169.112C168.989 15.5052 168.495 14.9864 167.882 14.3437L167.88 14.3417C167.083 13.5056 166.086 12.4604 165.447 11.8203C163.013 9.40416 160.478 6.73527 160.279 6.51964C160.22 6.45831 160.168 6.40054 160.12 6.34742C159.93 6.13876 159.806 6.00177 159.658 6.00177C159.492 6.00177 159.441 6.23684 159.441 6.56736L159.291 16.391C159.275 17.8403 159.207 18.3264 158.774 18.4589C158.541 18.5261 158.241 18.542 158.023 18.542C157.857 18.542 157.758 18.5756 157.758 18.6746C157.758 18.8248 157.907 18.8407 158.124 18.8407C158.733 18.8407 159.302 18.8171 159.64 18.8031C159.782 18.7972 159.883 18.793 159.929 18.793C160.04 18.793 160.194 18.7989 160.394 18.8065C160.765 18.8206 161.293 18.8407 161.997 18.8407C162.23 18.8407 162.38 18.8054 162.38 18.6746C162.38 18.5738 162.278 18.542 162.097 18.542C161.83 18.542 161.516 18.5261 161.229 18.4254C160.897 18.3105 160.68 17.8757 160.646 16.5748L160.466 9.61802ZM145.686 18.2415C142.484 18.2415 140.566 15.4878 140.566 12.0183C140.566 7.86469 142.749 6.79713 144.668 6.79713C147.402 6.79713 149.557 9.11606 149.557 12.8543C149.557 17.6742 146.853 18.2415 145.686 18.2415ZM144.986 19.0723C149.221 19.0723 151.887 16.0552 151.887 12.2357C151.887 8.41614 149.304 6.00177 145.151 6.00177C140.149 6.00177 138.265 9.68696 138.265 12.5361C138.265 15.4878 140.2 19.0723 144.986 19.0723ZM126.345 14.0031C126.345 15.5373 126.345 16.8541 126.258 17.5558C126.21 18.0383 126.11 18.4059 125.777 18.4749C125.627 18.5067 125.427 18.5402 125.176 18.5402C124.977 18.5402 124.91 18.588 124.91 18.6728C124.91 18.7877 125.026 18.839 125.244 18.839C125.622 18.839 126.125 18.8235 126.559 18.8102C126.888 18.8001 127.178 18.7912 127.343 18.7912C127.527 18.7912 127.802 18.7986 128.135 18.8076C128.646 18.8214 129.294 18.839 129.961 18.839C130.145 18.839 130.277 18.7895 130.277 18.6728C130.277 18.588 130.194 18.5402 130.012 18.5402C129.761 18.5402 129.394 18.5049 129.162 18.4749C128.662 18.4077 128.561 18.0401 128.512 17.5734C128.429 16.8558 128.429 15.5391 128.429 14.0031V7.16477L130.53 7.21426C132.015 7.24784 132.466 7.71445 132.497 8.14748L132.515 8.3313C132.533 8.58405 132.563 8.66535 132.699 8.66535C132.8 8.66535 132.831 8.56284 132.847 8.39847C132.847 8.17158 132.861 7.7456 132.873 7.34185C132.884 6.97814 132.895 6.63246 132.895 6.46661C132.895 6.21386 132.881 6.11665 132.764 6.11665C132.718 6.11665 132.637 6.13343 132.506 6.16073C132.452 6.17206 132.388 6.18521 132.315 6.19972C132.066 6.23507 131.697 6.2828 131.165 6.2828H124.563C124.012 6.2828 123.379 6.24921 122.896 6.19972C122.64 6.17905 122.477 6.10812 122.359 6.05666C122.286 6.02454 122.23 6 122.179 6C122.078 6 122.029 6.10075 121.979 6.31814C121.946 6.45071 121.631 7.9672 121.631 8.23409C121.631 8.41614 121.663 8.49921 121.779 8.49921C121.88 8.49921 121.928 8.43382 121.963 8.29949C121.999 8.16693 122.08 7.9672 122.248 7.71622C122.499 7.35035 122.898 7.26551 123.865 7.23193L126.35 7.16653V14.0031H126.345ZM115.135 15.889C115.135 15.053 115.135 14.3849 115.153 13.8865C115.169 13.3032 115.337 13.0186 115.784 12.9356C115.986 12.9002 116.102 12.8861 116.237 12.8861C116.351 12.8861 116.454 12.8525 116.454 12.7535C116.454 12.621 116.337 12.5874 116.12 12.5874C115.841 12.5874 115.476 12.5997 115.116 12.6118C114.768 12.6235 114.424 12.6351 114.169 12.6351C113.953 12.6351 113.634 12.6262 113.273 12.6161C112.796 12.6028 112.245 12.5874 111.752 12.5874C111.517 12.5874 111.402 12.621 111.402 12.7535C111.402 12.8543 111.503 12.8861 111.652 12.8861C111.889 12.8861 112.17 12.902 112.304 12.9356C112.855 13.0505 113.004 13.3191 113.02 13.8865C113.037 14.3846 113.037 15.0205 113.037 15.8523V15.8537V17.4232C113.037 17.7042 112.97 17.9216 112.719 18.0401C112.318 18.2239 111.735 18.2239 111.3 18.2239C107.783 18.2239 105.497 15.5391 105.497 11.9546C105.497 9.90259 106.098 8.65298 107.03 7.86822C108.2 6.90141 109.418 6.83425 110.333 6.83425C112.217 6.83425 113.552 7.60133 114.052 8.13334C114.485 8.60172 114.568 9.13373 114.616 9.51905C114.633 9.65161 114.665 9.73468 114.782 9.73468C114.916 9.73468 114.967 9.65161 114.967 9.38472C114.967 7.77829 115.036 7.13342 115.067 6.83708C115.076 6.74869 115.082 6.6913 115.082 6.64866C115.082 6.53554 115.049 6.46661 114.849 6.45247C114.466 6.43303 113.882 6.33582 113.534 6.26866C113.2 6.20149 111.731 6.00353 110.579 6.00353C109.181 6.00353 107.696 6.11842 106.095 7.08523C104.578 8.00432 103.194 9.87077 103.194 12.5397C103.194 17.1422 106.812 19.074 110.897 19.074C112.196 19.074 113.831 18.892 114.913 18.3264C115.112 18.2097 115.13 18.1761 115.13 17.7254V15.889H115.135ZM85.8094 9.61802H85.8607C85.9162 9.67647 86.0245 9.79353 86.1758 9.95694L86.1772 9.9585C86.8453 10.6805 88.3466 12.3029 89.8269 13.7716C90.5436 14.481 91.3286 15.2704 92.077 16.0231L92.078 16.0241C93.1399 17.0921 94.1283 18.0861 94.744 18.6728C94.9261 18.8549 95.1258 19.0387 95.3096 19.0387C95.4581 19.0387 95.5235 18.8884 95.5235 18.5226L95.7073 7.99902C95.725 7.06579 95.8593 6.71406 96.3259 6.5815C96.5256 6.53201 96.66 6.53201 96.8261 6.53201C97.0258 6.53201 97.1266 6.48252 97.1266 6.38354C97.1266 6.25098 96.9604 6.23507 96.743 6.23507C96.187 6.23507 95.7166 6.25629 95.4151 6.26989C95.2729 6.27631 95.1682 6.28103 95.1099 6.28103C94.9741 6.28103 94.7706 6.2741 94.5216 6.26563C94.1291 6.25228 93.6235 6.23507 93.0914 6.23507C92.8422 6.23507 92.6584 6.25098 92.6584 6.38354C92.6584 6.48252 92.7256 6.53201 92.9253 6.53201C93.1586 6.53201 93.5581 6.53201 93.809 6.63276C94.2085 6.7989 94.3605 7.11528 94.3729 8.13334L94.5425 15.6204H94.4595C94.335 15.5044 93.8345 14.9796 93.2159 14.331C92.4203 13.4968 91.4293 12.4577 90.792 11.8203C88.3581 9.40416 85.8253 6.73527 85.6239 6.51964C85.5706 6.46268 85.5219 6.40879 85.4768 6.35885C85.2826 6.14378 85.1544 6.00177 85.0052 6.00177C84.8373 6.00177 84.7878 6.23684 84.7878 6.56736L84.6376 16.391C84.6199 17.8403 84.5545 18.3264 84.1215 18.4589C83.8864 18.5261 83.586 18.542 83.3685 18.542C83.2024 18.542 83.1034 18.5756 83.1034 18.6746C83.1034 18.8248 83.2537 18.8407 83.4711 18.8407C84.0839 18.8407 84.6553 18.8169 84.9911 18.8029C85.1308 18.7971 85.2298 18.793 85.2739 18.793C85.3858 18.793 85.5409 18.7989 85.7421 18.8065C86.113 18.8207 86.6405 18.8407 87.3418 18.8407C87.5769 18.8407 87.7272 18.8054 87.7272 18.6746C87.7272 18.5738 87.6246 18.542 87.4444 18.542C87.1775 18.542 86.8611 18.5261 86.5765 18.4254C86.2442 18.3105 86.0268 17.8757 85.9932 16.5748L85.8094 9.61802ZM73.1826 14.0037C73.1826 15.6207 73.1826 16.9372 73.0995 17.6406C73.0482 18.1214 72.9493 18.4077 72.6152 18.4749C72.465 18.5067 72.267 18.5402 72.016 18.5402C71.8163 18.5402 71.7509 18.588 71.7509 18.6728C71.7509 18.7877 71.8658 18.839 72.0832 18.839C72.4637 18.839 72.968 18.8235 73.4022 18.8101C73.7304 18.8001 74.0187 18.7912 74.183 18.7912C74.3588 18.7912 74.6259 18.7985 74.9516 18.8074C75.4607 18.8212 76.1132 18.839 76.7847 18.839C76.9668 18.839 77.1011 18.7895 77.1011 18.6728C77.1011 18.588 77.018 18.5402 76.836 18.5402C76.5832 18.5402 76.2173 18.5049 75.9858 18.4749C75.4856 18.4077 75.3689 18.1072 75.3177 17.6565C75.2523 16.9389 75.2523 15.6221 75.2523 14.0049V11.0691C75.2523 8.53456 75.2523 8.06795 75.2877 7.5324C75.3195 6.94913 75.4538 6.66811 75.9045 6.58327C76.1042 6.54969 76.2368 6.53378 76.4047 6.53378C76.5708 6.53378 76.6698 6.49843 76.6698 6.36587C76.6698 6.26689 76.5372 6.23684 76.3199 6.23684C75.9706 6.23684 75.5148 6.25084 75.1063 6.26338C74.7747 6.27357 74.4742 6.2828 74.2872 6.2828C74.0625 6.2828 73.7146 6.27282 73.343 6.26217C72.9168 6.24995 72.4593 6.23684 72.1203 6.23684C71.8534 6.23684 71.7191 6.26866 71.7191 6.36587C71.7191 6.49843 71.8199 6.53378 71.986 6.53378C72.1857 6.53378 72.4014 6.55145 72.5852 6.60094C72.9528 6.68401 73.119 6.96858 73.1525 7.5324C73.1861 8.06779 73.1861 8.53429 73.1861 11.0669V11.0691V14.0031L73.1826 14.0037ZM60.8403 11.0674C60.8403 8.5328 60.8403 8.06618 60.8739 7.53063C60.9075 6.94737 61.04 6.66634 61.4907 6.5815C61.6904 6.54792 61.9591 6.53201 62.1411 6.53201C62.3409 6.53201 62.4416 6.49666 62.4416 6.38354C62.4416 6.26689 62.3267 6.23507 62.0917 6.23507C61.7279 6.23507 61.1845 6.24953 60.7073 6.26222C60.3336 6.27217 60.0004 6.28103 59.8258 6.28103C59.6323 6.28103 59.3269 6.2725 58.9794 6.26278C58.5204 6.24996 57.9878 6.23507 57.5422 6.23507C57.2912 6.23507 57.1763 6.26689 57.1763 6.38354C57.1763 6.49666 57.2753 6.53201 57.4591 6.53201C57.6765 6.53201 57.8745 6.54969 58.0088 6.5815C58.5602 6.69815 58.6928 6.96681 58.7264 7.53063C58.76 8.06618 58.76 8.5328 58.76 11.0674V14.0031C58.76 15.5355 58.76 16.8523 58.6769 17.554C58.6097 18.0365 58.5267 18.4042 58.1944 18.4713C58.0424 18.5067 57.8444 18.5402 57.5934 18.5402C57.3937 18.5402 57.3283 18.588 57.3283 18.6728C57.3283 18.7877 57.4432 18.839 57.6606 18.839C57.822 18.839 58.007 18.8307 58.1981 18.8222C58.4025 18.813 58.614 18.8036 58.8112 18.8036C59.2107 18.7877 59.5783 18.7877 59.7621 18.7877C60.4444 18.7877 61.0435 18.8036 61.793 18.8372C61.986 18.8413 62.1866 18.8465 62.3985 18.8521C63.0112 18.8681 63.7193 18.8867 64.6121 18.8867C65.4781 18.8867 65.563 18.8018 65.6637 18.436C65.7963 17.9552 65.9129 16.7038 65.9129 16.52C65.9129 16.3203 65.897 16.2372 65.7822 16.2372C65.6478 16.2372 65.6125 16.338 65.5983 16.4882C65.5648 16.8046 65.365 17.2712 65.1653 17.4886C64.7482 17.9393 64.0977 17.9552 63.214 17.9552C61.9131 17.9552 61.4801 17.8386 61.1938 17.5893C60.8456 17.2889 60.8456 16.1383 60.8456 14.0032V11.0674H60.8403ZM46.4159 11.0674C46.4159 8.5328 46.4159 8.06618 46.4495 7.53063C46.4848 6.94737 46.6156 6.66634 47.0663 6.5815C47.2661 6.54792 47.5347 6.53201 47.7168 6.53201C47.9165 6.53201 48.0172 6.49666 48.0172 6.38354C48.0172 6.26689 47.9024 6.23507 47.669 6.23507C47.304 6.23507 46.7598 6.24955 46.2821 6.26225C45.9087 6.27218 45.5759 6.28103 45.4014 6.28103C45.2079 6.28103 44.9025 6.2725 44.555 6.26278C44.096 6.24996 43.5634 6.23507 43.1178 6.23507C42.8668 6.23507 42.7519 6.26689 42.7519 6.38354C42.7519 6.49666 42.8509 6.53201 43.0347 6.53201C43.2521 6.53201 43.4501 6.54969 43.5844 6.5815C44.1359 6.69815 44.2684 6.96681 44.302 7.53063C44.3356 8.06618 44.3356 8.5328 44.3356 11.0674V14.0031C44.3356 15.5355 44.3356 16.8523 44.2525 17.554C44.1854 18.0365 44.1023 18.4042 43.77 18.4713C43.6198 18.5067 43.42 18.5402 43.1708 18.5402C42.9693 18.5402 42.9039 18.588 42.9039 18.6728C42.9039 18.7877 43.0188 18.839 43.2362 18.839C43.3977 18.839 43.5826 18.8307 43.7737 18.8222C43.9781 18.813 44.1896 18.8036 44.3868 18.8036C44.7881 18.7877 45.1539 18.7877 45.3377 18.7877C46.02 18.7877 46.6192 18.8036 47.3703 18.8372C47.5635 18.8413 47.7643 18.8465 47.9764 18.8521C48.589 18.8681 49.2963 18.8867 50.1877 18.8867C51.0555 18.8867 51.1386 18.8018 51.2394 18.436C51.3719 17.9552 51.4886 16.7038 51.4886 16.52C51.4886 16.3203 51.4727 16.2372 51.3578 16.2372C51.2234 16.2372 51.1899 16.338 51.174 16.4882C51.1404 16.8046 50.9407 17.2712 50.7409 17.4886C50.3256 17.9393 49.6734 17.9552 48.7896 17.9552C47.4888 17.9552 47.0557 17.8386 46.7694 17.5893C46.4212 17.2889 46.4212 16.1383 46.4212 14.0032V11.0674H46.4159ZM29.4587 14.0016C29.4587 15.5357 29.4587 16.8523 29.3757 17.554C29.3103 18.0365 29.2254 18.4042 28.8949 18.4713C28.7447 18.5067 28.5449 18.5402 28.294 18.5402C28.0942 18.5402 28.0271 18.588 28.0271 18.6728C28.0271 18.7877 28.1437 18.839 28.3594 18.839C28.5197 18.839 28.7044 18.8307 28.8954 18.8222C29.1002 18.8131 29.3125 18.8036 29.51 18.8036C29.9112 18.7877 30.2753 18.7877 30.4591 18.7877C30.9593 18.7877 31.4754 18.8036 32.193 18.8372C32.355 18.8408 32.5274 18.8453 32.7117 18.8501C33.3418 18.8666 34.1111 18.8867 35.0793 18.8867C35.7085 18.8867 35.8588 18.8867 35.9772 18.4554C36.0603 18.1214 36.1946 16.9884 36.1946 16.6049C36.1946 16.4352 36.1946 16.3026 36.0603 16.3026C35.9436 16.3026 35.91 16.368 35.8782 16.5536C35.7616 17.2376 35.5583 17.5876 35.127 17.7891C34.694 17.987 33.9923 17.987 33.5593 17.987C31.8572 17.987 31.5903 17.736 31.5567 16.5854C31.5454 16.2429 31.5502 15.3694 31.5539 14.6885C31.5554 14.4106 31.5567 14.164 31.5567 13.9996V12.6828C31.5567 12.5821 31.5726 12.5149 31.6575 12.5149C32.0587 12.5149 33.7095 12.5326 34.0259 12.5662C34.6445 12.6316 34.8778 12.8826 34.9609 13.2166C34.9967 13.3712 35.0066 13.5277 35.0153 13.6659C35.0187 13.7188 35.0219 13.7694 35.0263 13.8158C35.0263 13.9006 35.0599 13.966 35.1765 13.966C35.325 13.966 35.325 13.7822 35.325 13.6479C35.325 13.5876 35.3391 13.3751 35.3548 13.1384C35.369 12.924 35.3846 12.6896 35.3922 12.5308C35.4363 11.974 35.4797 11.6672 35.5043 11.4937C35.5171 11.4035 35.5247 11.3493 35.5247 11.3148C35.5247 11.2123 35.4752 11.1822 35.4081 11.1822C35.3308 11.1822 35.2689 11.254 35.1683 11.3706L35.1447 11.3979C34.9962 11.5658 34.7435 11.6153 34.3458 11.6489C33.9605 11.6842 32.041 11.6842 31.6734 11.6842C31.5726 11.6842 31.5585 11.617 31.5585 11.5004V7.27965C31.5585 7.163 31.5921 7.11174 31.6734 7.11174C32.0074 7.11174 33.7608 7.14532 34.0453 7.17891C34.8796 7.27965 35.044 7.47938 35.1624 7.77985C35.2455 7.97781 35.2631 8.26237 35.2631 8.38079C35.2631 8.53103 35.2967 8.6141 35.4116 8.6141C35.5283 8.6141 35.5601 8.51335 35.5777 8.43028C35.6003 8.30375 35.6215 7.95842 35.6384 7.68184C35.648 7.52578 35.6562 7.39147 35.6626 7.33091C35.695 6.80879 35.7437 6.54913 35.7716 6.40027C35.7848 6.32992 35.7934 6.28431 35.7934 6.24745C35.7934 6.16437 35.7775 6.09721 35.6944 6.09721C35.6423 6.09721 35.5833 6.11666 35.526 6.13553C35.492 6.14675 35.4585 6.15778 35.4275 6.16437C35.2967 6.19796 35.0298 6.23154 34.7134 6.26335C34.3953 6.28103 31.076 6.28103 30.544 6.28103C30.366 6.28103 30.1007 6.27075 29.7926 6.25881C29.6968 6.25509 29.5968 6.25122 29.4941 6.24745C29.2896 6.24745 29.0694 6.24362 28.8449 6.23972C28.6115 6.23567 28.3735 6.23154 28.1437 6.23154C27.8928 6.23154 27.7779 6.26335 27.7779 6.38001C27.7779 6.49313 27.8768 6.52848 28.0589 6.52848C28.294 6.52848 28.575 6.54615 28.7093 6.5762C29.2608 6.69638 29.3933 6.96504 29.4269 7.52887C29.4587 8.06441 29.4587 8.53103 29.4587 11.0656V14.0016ZM9.0815 18.4554C9.23173 18.8884 9.29889 19.0723 9.46504 19.0723C9.65552 19.0723 9.7399 18.8906 10.0233 18.2804L10.066 18.1885C10.7818 16.6544 13 10.7351 13.3164 9.88491H13.3517L16.8195 18.2557C17.0705 18.8725 17.1677 19.0723 17.3374 19.0723C17.553 19.0723 17.6361 18.8725 17.8181 18.2893C18.6365 15.7865 20.3863 10.4841 21.1551 8.38433C21.2021 8.25629 21.2461 8.13337 21.2881 8.01615C21.5572 7.26437 21.7426 6.74682 22.0866 6.61685C22.2704 6.55145 22.5037 6.53378 22.6699 6.53378C22.8201 6.53378 22.9032 6.48429 22.9032 6.36587C22.9032 6.26689 22.7883 6.23684 22.6045 6.23684C22.2258 6.23684 21.7697 6.2585 21.4838 6.27208C21.3533 6.27828 21.2583 6.2828 21.2223 6.2828C21.1777 6.2828 21.0863 6.27885 20.957 6.27327C20.6451 6.25981 20.1131 6.23684 19.4884 6.23684C19.2374 6.23684 19.1049 6.26866 19.1049 6.38531C19.1049 6.48429 19.2197 6.53378 19.3877 6.53378C20.0363 6.53378 20.1866 6.76709 20.1866 7.03397C20.1866 7.26728 20.1388 7.61547 20.0186 8.00078C19.8884 8.4365 19.7208 8.99446 19.5357 9.61077C18.8917 11.7544 18.0356 14.6044 17.8022 15.4719H17.7527L14.2832 7.06932L14.235 6.94969C14.0537 6.49821 13.9687 6.28633 13.8024 6.28633C13.6681 6.28633 13.5497 6.41889 13.3853 6.88727L10.1508 15.5921H10.0996C9.80086 14.6571 8.24901 9.60389 7.96798 8.50275C7.92798 8.35228 7.88925 8.20926 7.85289 8.07499C7.70773 7.53895 7.60035 7.14243 7.60035 6.96858C7.60035 6.78476 7.63393 6.66987 7.78417 6.60271C7.90082 6.53554 8.06873 6.53555 8.20129 6.53555C8.36743 6.53555 8.50176 6.51964 8.50176 6.38708C8.50176 6.28633 8.38511 6.23861 8.1518 6.23861C7.45722 6.23861 6.88215 6.26233 6.55831 6.27569C6.43141 6.28092 6.34306 6.28456 6.30126 6.28456C6.25712 6.28456 6.1468 6.2806 5.99099 6.275C5.61635 6.26153 4.97871 6.23861 4.36587 6.23861C4.13079 6.23861 4 6.27042 4 6.38708C4 6.51964 4.09898 6.53555 4.26512 6.53555C4.41536 6.53555 4.74764 6.56913 4.93146 6.68578C5.16477 6.85192 5.34859 7.25137 5.55008 7.86999L9.0815 18.4554ZM177.725 31.6882V30.5429H178.42C178.913 30.5429 179.206 30.6967 179.206 31.0996C179.206 31.5362 178.913 31.6882 178.427 31.6882H177.725ZM177.34 33.4239H177.727V32.0117H178.459L179.222 33.4239H179.636L178.849 31.9586C179.281 31.8614 179.581 31.5981 179.581 31.082C179.581 30.5111 179.176 30.2 178.441 30.2H177.34V33.4239ZM178.406 34.4808C176.96 34.4808 175.82 33.3054 175.82 31.8614C175.82 30.4121 176.953 29.2438 178.395 29.2438C179.841 29.2438 180.977 30.4192 180.977 31.8614C180.977 33.3161 179.846 34.4808 178.406 34.4808ZM178.395 34.7954C180.021 34.7954 181.315 33.4928 181.315 31.8614C181.315 30.2318 180.03 28.9309 178.406 28.9309C176.776 28.9309 175.486 30.2318 175.486 31.8614C175.486 33.4928 176.769 34.7954 178.395 34.7954ZM164.87 40.4854C164.955 39.7855 164.955 38.4669 164.955 36.9328H164.959V30.0962L162.473 30.1633C161.507 30.1951 161.109 30.28 160.856 30.6458C160.69 30.8968 160.609 31.0966 160.573 31.2291C160.54 31.3617 160.49 31.4288 160.39 31.4288C160.273 31.4288 160.238 31.3475 160.238 31.1637C160.238 30.8968 160.554 29.3786 160.589 29.2478C160.639 29.0304 160.688 28.9296 160.787 28.9296C160.839 28.9296 160.896 28.9544 160.97 28.9867C161.087 29.0381 161.249 29.1087 161.505 29.1294C161.989 29.1788 162.622 29.2124 163.173 29.2124H169.773C170.301 29.2124 170.664 29.1641 170.916 29.1306L170.926 29.1294C170.999 29.1148 171.062 29.1017 171.116 29.0904C171.248 29.0631 171.328 29.0463 171.375 29.0463C171.488 29.0463 171.505 29.1435 171.505 29.3962C171.505 29.561 171.495 29.906 171.483 30.2693C171.471 30.6737 171.458 31.1009 171.458 31.3281C171.44 31.4942 171.406 31.5932 171.309 31.5932C171.173 31.5932 171.139 31.5101 171.125 31.2609L171.108 31.0771C171.074 30.6441 170.625 30.1775 169.14 30.1439L167.037 30.0944V36.9328C167.037 38.4687 167.037 39.7872 167.122 40.5013C167.171 40.9715 167.27 41.3373 167.772 41.4045C168.004 41.4363 168.37 41.4716 168.623 41.4716C168.805 41.4716 168.888 41.5194 168.888 41.6024C168.888 41.7191 168.755 41.7686 168.571 41.7686C167.904 41.7686 167.256 41.7511 166.745 41.7373C166.412 41.7283 166.138 41.7209 165.954 41.7209C165.789 41.7209 165.501 41.7297 165.173 41.7398C164.739 41.7531 164.234 41.7686 163.854 41.7686C163.638 41.7686 163.522 41.7173 163.522 41.6024C163.522 41.5194 163.589 41.4716 163.788 41.4716C164.039 41.4716 164.237 41.4381 164.388 41.4045C164.722 41.3355 164.822 40.9697 164.87 40.4854ZM144.413 32.5459H144.364L144.546 39.5044C144.58 40.8053 144.797 41.2401 145.129 41.3568C145.412 41.454 145.73 41.4734 145.995 41.4734C146.179 41.4734 146.278 41.5035 146.278 41.6042C146.278 41.7368 146.13 41.7704 145.896 41.7704C145.195 41.7704 144.667 41.7503 144.295 41.7362C144.094 41.7285 143.938 41.7226 143.827 41.7226C143.782 41.7226 143.683 41.7267 143.543 41.7326C143.207 41.7466 142.635 41.7704 142.024 41.7704C141.806 41.7704 141.658 41.7527 141.658 41.6042C141.658 41.5052 141.755 41.4734 141.923 41.4734C142.139 41.4734 142.439 41.454 142.672 41.3868C143.107 41.256 143.173 40.77 143.19 39.3206L143.342 29.4988C143.342 29.1647 143.39 28.9314 143.56 28.9314C143.707 28.9314 143.833 29.0696 144.023 29.2789C144.07 29.331 144.122 29.3876 144.178 29.4475C144.378 29.6649 146.913 32.332 149.346 34.7482C149.99 35.3933 150.995 36.4475 151.795 37.2861C152.402 37.9225 152.89 38.4349 153.012 38.55H153.095L152.929 31.063C152.913 30.0449 152.765 29.7285 152.362 29.5624C152.111 29.4599 151.713 29.4599 151.48 29.4599C151.278 29.4599 151.213 29.4121 151.213 29.3114C151.213 29.1806 151.393 29.1629 151.646 29.1629C152.177 29.1629 152.683 29.1808 153.076 29.1947C153.325 29.2035 153.528 29.2107 153.663 29.2107C153.722 29.2107 153.827 29.2057 153.97 29.199C154.272 29.1849 154.741 29.1629 155.296 29.1629C155.513 29.1629 155.679 29.1806 155.679 29.3114C155.679 29.4121 155.579 29.4599 155.381 29.4599C155.213 29.4599 155.078 29.4599 154.88 29.5111C154.412 29.6437 154.279 29.9954 154.26 30.9286L154.078 41.4504C154.078 41.8181 154.011 41.9683 153.861 41.9683C153.68 41.9683 153.481 41.7845 153.297 41.6007C152.67 41.0042 151.656 39.9846 150.572 38.8945C149.842 38.1595 149.079 37.3924 148.381 36.7012C146.842 35.1736 145.278 33.481 144.654 32.8052C144.541 32.6835 144.459 32.5947 144.413 32.5459ZM129.651 40.4836C129.735 39.7837 129.735 38.4652 129.735 36.9328L129.736 33.997C129.736 31.4624 129.736 30.9958 129.703 30.462C129.671 29.8947 129.538 29.6278 128.987 29.5094C128.853 29.4775 128.57 29.4581 128.338 29.4581C128.154 29.4581 128.052 29.4263 128.052 29.3096C128.052 29.1965 128.169 29.1612 128.421 29.1612C128.651 29.1612 128.889 29.1658 129.122 29.1703C129.347 29.1746 129.567 29.1788 129.772 29.1788L129.805 29.1802C130.224 29.1973 130.594 29.2124 130.822 29.2124C131.357 29.2124 134.673 29.2124 134.991 29.1965C135.306 29.1612 135.574 29.1294 135.705 29.0958C135.736 29.0892 135.77 29.0782 135.804 29.0669C135.861 29.0481 135.92 29.0286 135.972 29.0286C136.057 29.0286 136.071 29.0958 136.071 29.1788C136.071 29.2158 136.062 29.2616 136.049 29.3324C136.021 29.4817 135.973 29.7418 135.94 30.2623C135.934 30.3245 135.925 30.4641 135.915 30.6253C135.899 30.8996 135.878 31.2363 135.857 31.3599C135.839 31.443 135.806 31.5437 135.691 31.5437C135.574 31.5437 135.542 31.4607 135.542 31.3104C135.542 31.192 135.523 30.9092 135.44 30.7077C135.323 30.4072 135.155 30.2093 134.321 30.1068C134.038 30.0767 132.285 30.0414 131.951 30.0414C131.87 30.0414 131.836 30.0926 131.836 30.2093V34.43C131.836 34.5484 131.85 34.6138 131.951 34.6138C132.32 34.6138 134.236 34.6138 134.622 34.5803C135.023 34.5467 135.272 34.4972 135.422 34.331L135.443 34.3069C135.545 34.1868 135.608 34.1136 135.686 34.1136C135.755 34.1136 135.802 34.1455 135.802 34.2444C135.802 34.2788 135.795 34.3326 135.782 34.4223C135.757 34.5952 135.714 34.9018 135.67 35.4605C135.662 35.6056 135.648 35.8124 135.636 36.0098C135.618 36.2692 135.603 36.5123 135.603 36.5775C135.603 36.7118 135.603 36.8956 135.454 36.8956C135.337 36.8956 135.304 36.8303 135.304 36.7454C135.299 36.6977 135.296 36.6462 135.293 36.5918C135.284 36.4549 135.274 36.3001 135.24 36.1445C135.155 35.8122 134.922 35.5612 134.305 35.494C133.987 35.4622 132.336 35.4463 131.937 35.4463C131.85 35.4463 131.834 35.5117 131.834 35.6125V36.931C131.834 37.0947 131.833 37.3398 131.831 37.6171C131.827 38.2976 131.822 39.1722 131.834 39.515C131.868 40.6674 132.135 40.9167 133.839 40.9167C134.27 40.9167 134.972 40.9167 135.406 40.7169C135.838 40.519 136.037 40.169 136.152 39.485C136.186 39.2994 136.221 39.2323 136.336 39.2323C136.47 39.2323 136.47 39.3666 136.47 39.5327C136.47 39.9163 136.336 41.051 136.253 41.3833C136.136 41.8163 135.984 41.8163 135.353 41.8163C134.325 41.8163 133.52 41.7948 132.868 41.7773C132.727 41.7735 132.594 41.7699 132.467 41.7668C131.751 41.7332 131.235 41.7173 130.735 41.7173C130.553 41.7173 130.187 41.7173 129.786 41.735C129.588 41.735 129.377 41.744 129.172 41.7527C128.982 41.7608 128.797 41.7686 128.637 41.7686C128.42 41.7686 128.303 41.7173 128.303 41.6024C128.303 41.5194 128.37 41.4716 128.568 41.4716C128.819 41.4716 129.02 41.4381 129.171 41.4027C129.503 41.3338 129.586 40.9661 129.651 40.4836ZM107.289 41.4186C107.756 41.3196 107.89 40.6692 107.973 40.1018L109.628 29.368C109.675 29.0852 109.776 28.9349 109.91 28.9349C110.043 28.9349 110.142 29.018 110.359 29.451L114.912 38.7232L119.446 29.3344C119.579 29.0657 119.663 28.9332 119.814 28.9332C119.964 28.9332 120.063 29.1011 120.114 29.4493L121.629 39.6547C121.781 40.7063 121.947 41.1889 122.447 41.3391C122.93 41.4893 123.266 41.507 123.479 41.507C123.631 41.507 123.746 41.5211 123.746 41.6219C123.746 41.7544 123.548 41.8039 123.313 41.8039C122.896 41.8039 120.597 41.7704 119.93 41.7209C119.547 41.6873 119.446 41.6378 119.446 41.537C119.446 41.454 119.513 41.4045 119.63 41.355C119.731 41.3232 119.778 41.1058 119.713 40.6374L118.713 33.3837H118.645L115.011 40.8212C114.628 41.6007 114.545 41.7509 114.393 41.7509C114.253 41.7509 114.098 41.4612 113.861 41.0155C113.844 40.9839 113.827 40.9516 113.81 40.9184C113.408 40.1513 112.092 37.6009 111.894 37.1343C111.825 36.9758 111.587 36.493 111.292 35.896C110.929 35.1612 110.48 34.2534 110.158 33.564H110.093L109.225 40.0683C109.193 40.3687 109.175 40.5861 109.175 40.8513C109.175 41.1676 109.393 41.3196 109.675 41.3833C109.974 41.4504 110.209 41.4699 110.375 41.4699C110.511 41.4699 110.626 41.4999 110.626 41.583C110.626 41.7332 110.476 41.7668 110.223 41.7668C109.802 41.7668 109.361 41.7494 109.013 41.7356C108.784 41.7266 108.594 41.7191 108.475 41.7191C108.338 41.7191 108.109 41.7281 107.85 41.7383C107.513 41.7516 107.126 41.7668 106.823 41.7668C106.657 41.7668 106.522 41.7332 106.522 41.583C106.522 41.5017 106.621 41.4699 106.789 41.4699C106.923 41.4699 107.038 41.4699 107.289 41.4186ZM95.0513 40.4836C95.1344 39.7837 95.1344 38.4652 95.1344 36.9328V33.997C95.1344 31.4624 95.1344 30.9958 95.1026 30.462C95.069 29.8947 94.9347 29.6278 94.385 29.5094C94.2507 29.4775 93.9679 29.4581 93.7328 29.4581C93.5507 29.4581 93.4518 29.4263 93.4518 29.3096C93.4518 29.1965 93.5667 29.1612 93.8176 29.1612C94.0476 29.1612 94.2863 29.1658 94.5201 29.1703C94.7446 29.1746 94.9645 29.1788 95.168 29.1788L95.2007 29.1802C95.6203 29.1973 95.9905 29.2124 96.2196 29.2124C96.7514 29.2124 100.071 29.2124 100.387 29.1965C100.705 29.1612 100.971 29.1294 101.103 29.0958C101.133 29.0893 101.166 29.0785 101.199 29.0674C101.256 29.0484 101.316 29.0286 101.368 29.0286C101.451 29.0286 101.469 29.0958 101.469 29.1788C101.469 29.216 101.46 29.2622 101.447 29.3336C101.419 29.4831 101.37 29.7432 101.336 30.2623C101.331 30.3192 101.324 30.4411 101.315 30.585C101.298 30.8657 101.276 31.2302 101.253 31.3599C101.234 31.443 101.202 31.5437 101.086 31.5437C100.971 31.5437 100.937 31.4607 100.937 31.3104C100.937 31.192 100.919 30.9092 100.836 30.7077C100.718 30.4072 100.553 30.2093 99.7192 30.1068C99.4347 30.0767 97.6831 30.0414 97.349 30.0414C97.2677 30.0414 97.2324 30.0926 97.2324 30.2093V34.43C97.2324 34.5484 97.2483 34.6138 97.349 34.6138C97.7167 34.6138 99.6344 34.6138 100.02 34.5803C100.417 34.5467 100.67 34.4972 100.819 34.331C100.827 34.3214 100.835 34.312 100.843 34.3029C100.945 34.1852 101.007 34.1136 101.084 34.1136C101.149 34.1136 101.2 34.1455 101.2 34.2444C101.2 34.2785 101.193 34.3317 101.18 34.42C101.155 34.5925 101.11 34.8993 101.066 35.4605C101.059 35.6178 101.044 35.8476 101.03 36.0593C101.015 36.2996 101.001 36.5164 101.001 36.5775C101.001 36.7118 101.001 36.8956 100.852 36.8956C100.736 36.8956 100.7 36.8303 100.7 36.7454C100.696 36.6989 100.693 36.6487 100.689 36.5958C100.68 36.4578 100.671 36.3016 100.635 36.1445C100.552 35.8122 100.32 35.5612 99.6998 35.494C99.3852 35.4622 97.7326 35.4463 97.3314 35.4463C97.2483 35.4463 97.2306 35.5117 97.2306 35.6125V36.931C97.2306 37.0947 97.2293 37.3398 97.2278 37.6171C97.2241 38.2976 97.2193 39.1722 97.2306 39.515C97.266 40.6674 97.5311 40.9167 99.2332 40.9167C99.668 40.9167 100.37 40.9167 100.801 40.7169C101.232 40.519 101.437 40.169 101.552 39.485C101.586 39.2994 101.619 39.2323 101.734 39.2323C101.868 39.2323 101.868 39.3666 101.868 39.5327C101.868 39.9163 101.734 41.051 101.651 41.3833C101.533 41.8163 101.384 41.8163 100.753 41.8163C99.7237 41.8163 98.9203 41.7948 98.2682 41.7773C98.1277 41.7735 97.9941 41.77 97.8669 41.7668C97.1493 41.7332 96.6332 41.7173 96.1348 41.7173C95.951 41.7173 95.5851 41.7173 95.1857 41.735C94.987 41.735 94.7746 41.744 94.5698 41.7527C94.3792 41.7608 94.1952 41.7686 94.035 41.7686C93.8176 41.7686 93.7027 41.7173 93.7027 41.6024C93.7027 41.5194 93.7681 41.4716 93.9679 41.4716C94.2206 41.4716 94.4186 41.4381 94.5688 41.4027C94.8993 41.3338 94.9859 40.9661 95.0513 40.4836ZM87.1631 36.8126C87.1436 37.3145 87.1436 37.9809 87.1436 38.8169H87.1401V40.6498C87.1401 41.1022 87.1242 41.1358 86.9262 41.2525C85.8428 41.8163 84.2096 42.0001 82.9088 42.0001C78.8206 42.0001 75.2043 40.0683 75.2043 35.4658C75.2043 32.7969 76.59 30.9286 78.1065 30.0113C79.7078 29.0463 81.1925 28.9296 82.5924 28.9296C83.7412 28.9296 85.2118 29.1294 85.5441 29.1948C85.894 29.2637 86.4755 29.3609 86.8608 29.3786C87.0588 29.3945 87.0941 29.4616 87.0941 29.5783C87.0941 29.6204 87.088 29.6773 87.0786 29.7651C87.0468 30.0606 86.9775 30.7059 86.9775 32.3126C86.9775 32.5795 86.928 32.6643 86.7937 32.6643C86.6752 32.6643 86.6434 32.5795 86.6257 32.4469C86.578 32.0634 86.495 31.5314 86.0619 31.0612C85.5617 30.5292 84.2273 29.7621 82.3432 29.7621C81.4276 29.7621 80.2081 29.8275 79.0397 30.7961C78.1083 31.5791 77.5073 32.8305 77.5073 34.8825C77.5073 38.4669 79.7927 41.1517 83.31 41.1517C83.743 41.1517 84.328 41.1517 84.7293 40.9697C84.9802 40.8495 85.0474 40.6339 85.0474 40.3493V38.7815C85.0474 37.9491 85.0474 37.3145 85.0297 36.8126C85.0138 36.247 84.8636 35.9783 84.3121 35.8617C84.1796 35.8316 83.895 35.814 83.6617 35.814C83.5115 35.814 83.4125 35.7804 83.4125 35.6814C83.4125 35.5488 83.5274 35.5153 83.7625 35.5153C84.2549 35.5153 84.8074 35.5307 85.284 35.544C85.6456 35.5541 85.9636 35.563 86.1786 35.563C86.4324 35.563 86.775 35.5514 87.1234 35.5397C87.4835 35.5276 87.8496 35.5153 88.1299 35.5153C88.3455 35.5153 88.4622 35.5488 88.4622 35.6814C88.4622 35.7786 88.3614 35.814 88.2448 35.814C88.1122 35.814 87.9938 35.8299 87.7941 35.8617C87.3451 35.9483 87.179 36.2293 87.1631 36.8126ZM62.9504 36.5669C62.9345 36.6341 62.9504 36.6836 63.0176 36.6836V36.6853H66.0877C66.1708 36.6853 66.1867 36.6341 66.1708 36.5828L64.6684 32.4805C64.6662 32.4724 64.6639 32.464 64.6617 32.4553C64.6461 32.3959 64.6285 32.3285 64.5853 32.3285C64.5323 32.3285 64.5022 32.4169 64.4846 32.4805L62.9504 36.5669ZM66.5684 37.6309C66.5349 37.5478 66.4854 37.5143 66.4023 37.5143L62.6818 37.516C62.5987 37.516 62.5669 37.5478 62.5315 37.6504L61.6319 39.9357C61.4657 40.3511 61.3827 40.7541 61.3827 40.9538C61.3827 41.2542 61.5311 41.4716 62.049 41.4716H62.2982C62.5015 41.4716 62.551 41.5017 62.551 41.6024C62.551 41.735 62.4502 41.7686 62.2682 41.7686C61.9979 41.7686 61.6818 41.7564 61.3685 41.7444C61.061 41.7326 60.7564 41.7209 60.5007 41.7209C60.4428 41.7209 60.312 41.7256 60.1328 41.7321C59.7435 41.7462 59.126 41.7686 58.5317 41.7686C58.3161 41.7686 58.2153 41.735 58.2153 41.6024C58.2153 41.5035 58.2825 41.4716 58.4133 41.4716C58.5635 41.4716 58.7986 41.4522 58.9312 41.4363C59.7 41.3356 60.0164 40.7682 60.3504 39.9339L64.5323 29.5942C64.7356 29.1117 64.8345 28.9279 65.0024 28.9279C65.1509 28.9279 65.2499 29.0781 65.416 29.4634C65.6046 29.8926 66.2888 31.581 67.073 33.5159C67.9647 35.7162 68.9857 38.2353 69.5537 39.584C70.1847 41.0846 70.6708 41.3196 71.0207 41.4027C71.2699 41.4504 71.5209 41.4699 71.7206 41.4699C71.855 41.4699 71.938 41.4858 71.938 41.6007C71.938 41.7332 71.7878 41.7668 71.1709 41.7668C70.5682 41.7668 69.354 41.7668 68.0195 41.7332C67.9932 41.7317 67.9676 41.7303 67.9429 41.7289C67.6856 41.7147 67.5193 41.7055 67.5193 41.6007C67.5193 41.4999 67.5865 41.4699 67.7526 41.4504C67.8693 41.4169 67.986 41.2666 67.9029 41.0669L66.5684 37.6309ZM43.6937 32.5459H43.646L43.8281 39.5044C43.8617 40.8053 44.0791 41.2401 44.4114 41.3568C44.6941 41.454 45.0105 41.4734 45.2774 41.4734C45.4595 41.4734 45.5602 41.5035 45.5602 41.6042C45.5602 41.7368 45.4117 41.7704 45.1784 41.7704C44.4757 41.7704 43.9478 41.7503 43.5767 41.7362C43.3756 41.7285 43.2205 41.7226 43.1087 41.7226C43.0646 41.7226 42.9655 41.7267 42.8256 41.7326C42.4893 41.7465 41.917 41.7704 41.3041 41.7704C41.0885 41.7704 40.9383 41.7527 40.9383 41.6042C40.9383 41.5052 41.0355 41.4734 41.2051 41.4734C41.4208 41.4734 41.7212 41.454 41.9546 41.3868C42.3894 41.256 42.4548 40.77 42.4724 39.3206L42.6227 29.4988C42.6227 29.1647 42.6721 28.9314 42.8401 28.9314C42.9872 28.9314 43.1129 29.0696 43.3031 29.2789C43.3505 29.331 43.4019 29.3876 43.4587 29.4475C43.6584 29.6649 46.193 32.332 48.6285 34.7482C49.2726 35.3943 50.2795 36.4507 51.0794 37.29C51.6842 37.9246 52.1707 38.4351 52.2925 38.55H52.3756L52.2095 31.063C52.1935 30.0449 52.0451 29.7285 51.6421 29.5624C51.3929 29.4599 50.9934 29.4599 50.7584 29.4599C50.5604 29.4599 50.495 29.4121 50.495 29.3114C50.495 29.1806 50.6753 29.1629 50.928 29.1629C51.4575 29.1629 51.9619 29.1808 52.3539 29.1946C52.6031 29.2035 52.8069 29.2107 52.943 29.2107C53.0029 29.2107 53.1092 29.2057 53.2532 29.199C53.5553 29.1848 54.0231 29.1629 54.5761 29.1629C54.7935 29.1629 54.9596 29.1806 54.9596 29.3114C54.9596 29.4121 54.8607 29.4599 54.6609 29.4599C54.4948 29.4599 54.3605 29.4599 54.1625 29.5111C53.6924 29.6437 53.5598 29.9954 53.5421 30.9286L53.3601 41.4504C53.3601 41.8181 53.2929 41.9683 53.1427 41.9683C52.9606 41.9683 52.7609 41.7845 52.5771 41.6007C51.9531 41.0061 50.9438 39.9912 49.8636 38.9051C49.1295 38.1668 48.3626 37.3957 47.6617 36.7012C46.1562 35.206 44.6264 33.5527 43.9758 32.8495C43.8419 32.7049 43.7453 32.6005 43.6937 32.5459ZM28.8151 36.5669C28.7975 36.6341 28.8151 36.6836 28.8805 36.6836V36.6853H31.9506C32.0337 36.6853 32.0514 36.6341 32.0337 36.5828L30.5331 32.4805L30.5307 32.4709C30.5152 32.4083 30.4954 32.3285 30.45 32.3285C30.3988 32.3285 30.367 32.4169 30.3475 32.4805L28.8151 36.5669ZM32.4349 37.6309C32.3996 37.5478 32.3483 37.5143 32.2652 37.5143L28.55 37.516C28.4652 37.516 28.4334 37.5478 28.3998 37.6504L27.4984 39.9357C27.3305 40.3511 27.2474 40.7541 27.2474 40.9538C27.2474 41.2542 27.3976 41.4716 27.9137 41.4716H28.1665C28.3662 41.4716 28.4157 41.5017 28.4157 41.6024C28.4157 41.735 28.3167 41.7686 28.1329 41.7686C27.8637 41.7686 27.5479 41.7564 27.2347 41.7444C26.9267 41.7326 26.6213 41.7209 26.3654 41.7209C26.3082 41.7209 26.1781 41.7256 25.9998 41.732C25.6108 41.7461 24.992 41.7686 24.3982 41.7686C24.1826 41.7686 24.0818 41.735 24.0818 41.6024C24.0818 41.5035 24.1472 41.4716 24.2816 41.4716C24.4318 41.4716 24.6651 41.4522 24.7977 41.4363C25.5647 41.3356 25.8829 40.7682 26.2152 39.9339L30.4006 29.5942C30.602 29.1117 30.701 28.9279 30.8672 28.9279C31.0174 28.9279 31.1164 29.0781 31.2843 29.4634C31.4649 29.8781 32.1089 31.4683 32.8591 33.3205C33.7683 35.5654 34.8335 38.1952 35.4184 39.584C36.0529 41.0846 36.5355 41.3196 36.8854 41.4027C37.1346 41.4504 37.3856 41.4699 37.5854 41.4699C37.7179 41.4699 37.801 41.4858 37.801 41.6007C37.801 41.7332 37.6507 41.7668 37.0339 41.7668C36.4347 41.7668 35.2169 41.7668 33.8825 41.7332C33.8561 41.7317 33.8306 41.7303 33.8058 41.7289C33.5485 41.7147 33.3823 41.7055 33.3823 41.6007C33.3823 41.4999 33.4495 41.4699 33.6174 41.4504C33.7323 41.4169 33.8507 41.2666 33.7676 41.0669L32.4349 37.6309ZM5.27057 41.4186C5.73719 41.3196 5.87151 40.6692 5.95459 40.1018L7.60541 29.368C7.6549 29.0852 7.75564 28.9349 7.8882 28.9349C8.02253 28.9349 8.12151 29.018 8.33891 29.451L12.8902 38.7232L17.4255 29.3344C17.5598 29.0657 17.6429 28.9332 17.7931 28.9332C17.9434 28.9332 18.0424 29.1011 18.0936 29.4493L19.6083 39.6547C19.7586 40.7063 19.9265 41.1889 20.4267 41.3391C20.9092 41.4893 21.245 41.507 21.4607 41.507C21.6109 41.507 21.7258 41.5211 21.7258 41.6219C21.7258 41.7544 21.5261 41.8039 21.2927 41.8039C20.8774 41.8039 18.5744 41.7704 17.908 41.7209C17.5263 41.6873 17.4255 41.6378 17.4255 41.537C17.4255 41.454 17.4944 41.4045 17.6093 41.355C17.7118 41.3232 17.7596 41.1058 17.6924 40.6374L16.6938 33.3837H16.6266L12.9927 40.8212C12.6074 41.6007 12.5243 41.7509 12.3741 41.7509C12.2338 41.7509 12.0796 41.4612 11.8425 41.0155C11.8257 40.9839 11.8085 40.9515 11.7908 40.9184C11.3896 40.1513 10.0728 37.6009 9.87308 37.1343C9.80353 36.9687 9.54701 36.4489 9.234 35.8147C8.87885 35.0951 8.45098 34.2282 8.14095 33.564H8.07379L7.20773 40.0683C7.17591 40.3687 7.15647 40.5861 7.15647 40.8513C7.15647 41.1676 7.37387 41.3196 7.65667 41.3833C7.95537 41.4504 8.18868 41.4699 8.35659 41.4699C8.49092 41.4699 8.60757 41.4999 8.60757 41.583C8.60757 41.7332 8.45733 41.7668 8.20812 41.7668C7.78398 41.7668 7.3424 41.7494 6.99308 41.7356C6.76448 41.7266 6.5754 41.7191 6.45655 41.7191C6.31905 41.7191 6.0901 41.7281 5.83119 41.7383C5.49433 41.7516 5.10676 41.7668 4.80396 41.7668C4.63781 41.7668 4.50349 41.7332 4.50349 41.583C4.50349 41.5017 4.60423 41.4699 4.77038 41.4699C4.9047 41.4699 5.01959 41.4699 5.27057 41.4186Z" clip-rule="evenodd" fill-rule="evenodd"></path>
</svg>
