<?xml version="1.0" encoding="utf-8"?>
<!-- Generator: Adobe Illustrator 23.0.6, SVG Export Plug-In . SVG Version: 6.00 Build 0)  -->
<svg version="1.1" id="Layer_1" xmlns="http://www.w3.org/2000/svg" xmlns:xlink="http://www.w3.org/1999/xlink" x="0px" y="0px"
	 viewBox="0 0 103 48" style="enable-background:new 0 0 103 48;" xml:space="preserve">
<style type="text/css">
	.st0{fill-rule:evenodd;clip-rule:evenodd;fill:#FFFFFF;}
	.st1{fill:#FFFFFF;}
</style>
<path class="st0" d="M52.1,10.4c4.9-0.4,9.2,1.2,12.6,4.8c3,3.1,4.4,6.8,4.4,11c0,8.7-7,15.8-16.5,15.8c-3.6-0.1-7.4-1.6-10.4-4.7
	c-3.1-3.1-4.6-7-4.6-11.4c0.1-4.3,1.6-8,4.7-11C45,12.2,48.3,10.7,52.1,10.4z M53.4,17c-2.5,0-4.7,0.9-6.4,2.6
	c-2.1,2.1-3,4.6-2.7,7.5c0.2,2,1.1,3.9,2.5,5.3c2,2,4.5,3,7.4,2.7c4.3-0.4,8.3-4.1,8.2-8.4c0-3.3-0.9-5.4-2.6-7.2
	C58.1,17.9,55.9,17,53.4,17z"/>
<path class="st1" d="M24.6,6c0.2,0,0.3,0.1,0.4,0.3c2.4,5.6,4.8,11.1,7.2,16.7c2.6,6,5.2,12,7.8,18c0,0.1,0.1,0.2,0.1,0.3h-7
	c-0.1,0-0.3-0.1-0.3-0.2c-1.8-4.3-3.6-8.6-5.3-12.9c-0.5-1.1-0.9-2.2-1.4-3.3c-0.4-1-0.8-2-1.3-3c-0.9-2.1-1.7-4.2-2.6-6.3
	c0-0.1-0.1-0.1-0.1-0.2c-1.9,4.6-3.8,9.1-5.7,13.7h7.4c0.2,0,0.3,0.1,0.3,0.2c0.8,1.9,1.7,3.8,2.5,5.7c0,0.1,0.1,0.2,0.1,0.3h-0.3
	c-4.1,0-8.2,0-12.3,0c-0.2,0-0.3,0.1-0.4,0.3c-0.8,1.9-1.5,3.7-2.3,5.6c-0.1,0.1-0.1,0.2-0.3,0.2c-2.3,0-4.6,0-7,0c0,0,0,0-0.1,0
	c0-0.1,0-0.1,0.1-0.2c2.4-5.5,4.8-11,7.1-16.5c2.6-6.1,5.3-12.2,7.9-18.2C19.2,6.1,19.3,6,19.5,6C21.2,6,22.9,6,24.6,6z"/>
<path class="st1" d="M77.4,11c0.2,0,0.3,0.1,0.4,0.2c4.7,5.8,9.4,11.7,14,17.5c0,0.1,0.1,0.1,0.2,0.2V11.1h6.7v30.2h-5
	c-0.1,0-0.3-0.1-0.4-0.2c-3.5-4.4-7.1-8.8-10.6-13.2c-1.4-1.7-2.8-3.5-4.2-5.2l-0.1,0l0,0.1c0,0.3,0,0.6,0,0.8v17.7h-6.7V11.1
	c0.1,0,0.2,0,0.2,0H77.4z"/>
</svg>
