<?xml version="1.0" encoding="utf-8"?>
<!-- Generator: Adobe Illustrator 23.0.6, SVG Export Plug-In . SVG Version: 6.00 Build 0)  -->
<svg version="1.1" id="Layer_1" xmlns="http://www.w3.org/2000/svg" xmlns:xlink="http://www.w3.org/1999/xlink" x="0px" y="0px"
	 viewBox="0 0 123 48" style="enable-background:new 0 0 123 48;" xml:space="preserve">
<style type="text/css">
	.st0{fill-rule:evenodd;clip-rule:evenodd;fill:#FFFFFF;}
</style>
<path class="st0" d="M88.7,15.8c0.2,0,0.4-0.1,0.6-0.2l1.2-1.2c0.1-0.2,0.3-0.2,0.5-0.2h0c0.2,0,0.4,0.1,0.6,0.3l1,1.1
	c0.2,0.2,0.4,0.3,0.7,0.3h2.6c-2.5-3.3-6.4-5.4-10.9-5.4c-4.4,0-8.4,2.1-10.9,5.4H88.7z M90.1,19.5h2.4v0h5.4
	c0.4,1.1,0.6,2.2,0.7,3.4H88.5c-0.3,0-0.5-0.1-0.7-0.3l-1-1.1c-0.1-0.2-0.4-0.3-0.6-0.3h0c-0.2,0-0.4,0.1-0.5,0.2l-1.2,1.2
	c-0.2,0.2-0.4,0.2-0.6,0.2H71.6c0.1-1.2,0.3-2.3,0.7-3.4h13.1c0.4,0,0.8-0.2,1.1-0.5l0.8-0.9c0.1-0.2,0.4-0.3,0.6-0.3
	c0.2,0,0.4,0.1,0.6,0.3l1,1.1C89.6,19.4,89.8,19.5,90.1,19.5z M79.6,29.7c-0.2,0.2-0.4,0.2-0.6,0.2v0h-6.2c-0.5-1.1-0.9-2.2-1.1-3.4
	h8.8c0.4,0,0.8-0.2,1.1-0.5l0.8-0.9c0.1-0.2,0.4-0.3,0.6-0.3c0.2,0,0.4,0.1,0.6,0.3l1,1.1c0.2,0.2,0.5,0.3,0.7,0.3h13.1
	c-0.2,1.2-0.6,2.3-1.1,3.4H83.6c-0.3,0-0.5-0.1-0.7-0.3l-1-1.1c-0.1-0.2-0.4-0.3-0.6-0.3h0c-0.2,0-0.4,0.1-0.5,0.2L79.6,29.7z
	 M80,33.3h3.6v0H95c-2.5,2.7-6,4.3-9.9,4.3c-3.9,0-7.4-1.7-9.9-4.3h0.1c0.4,0,0.8-0.2,1.1-0.5l0.8-0.9c0.1-0.2,0.4-0.3,0.6-0.3
	c0.2,0,0.4,0.1,0.6,0.3l1,1.1C79.4,33.1,79.7,33.3,80,33.3z M25.1,36.7L22.3,30H10l-2.8,6.7H4l12.1-25.4l12.1,25.4H25.1z M11,27.4
	h10.2l-5.1-10.8L11,27.4z M32.7,11.3v25.4h3V25.9h4.1c5.4,0,8.5-2.5,8.5-7.2c0-4.8-2.9-7.3-8.4-7.3H32.7z M39,23.2h-3.4V14H39
	c4.2,0,6.1,1.5,6.1,4.7S43.3,23.2,39,23.2z M59,14h-8.8v-2.7h20.5V14H62v22.7h-3V14z M105.4,30.3l-2.6,1.7l0,0
	c2,3.8,4.8,5.3,8.7,5.3c4.7,0,8-3.3,8-7.1c0-3.5-1.4-5.7-7.3-8.4c-4.5-2-5.5-3.2-5.5-5.1c0-2.1,1.6-3.6,4.4-3.6c2.3,0,3.6,1,4.7,2.7
	l0.6,0.1l2.1-1.4c-1.4-2.4-3.8-3.9-7.3-3.9c-4.8,0-7.5,2.8-7.5,6.3c0,3.2,1.8,5.5,7.1,7.7c4.6,1.9,5.7,3.4,5.7,5.7
	c0,2.4-2,4.4-5,4.4c-2.6,0-4.3-1.1-5.9-4L105.4,30.3z"/>
</svg>
