<?xml version="1.0" encoding="utf-8"?>
<!-- Generator: Adobe Illustrator 23.0.6, SVG Export Plug-In . SVG Version: 6.00 Build 0)  -->
<svg version="1.1" id="Layer_1" xmlns="http://www.w3.org/2000/svg" xmlns:xlink="http://www.w3.org/1999/xlink" x="0px" y="0px"
	 viewBox="0 0 206 48" style="enable-background:new 0 0 206 48;" xml:space="preserve">
<style type="text/css">
	.st0{fill:#FFFFFF;}
</style>
<path class="st0" d="M29.2,37.5V10h6.3v27.5H29.2z M151.1,27.2c0-6.6-5.2-10.8-11.2-10.8c-6.1,0-11.2,4.2-11.2,10.8
	c0,6.6,5.2,10.8,11.2,10.8C145.9,38,151.1,33.8,151.1,27.2z M144.9,27.2c0,3.5-2.3,5.4-5,5.4s-5-1.9-5-5.4c0-3.5,2.3-5.4,5-5.4
	S144.9,23.7,144.9,27.2z M26.7,29.6c0-3.1-1.6-5.5-4.5-6.5c2.7-1.5,3.7-3.4,3.7-5.7c0-4-2.9-7.3-9.4-7.3H4v27.5h13
	C23.5,37.5,26.7,34.2,26.7,29.6z M19.2,18.1c0,1.9-1.2,2.9-3.5,2.9h-5.2v-5.7h5.2C17.8,15.3,19.2,16.3,19.2,18.1z M19.8,29.1
	c0,1.8-1.3,3-3.6,3h-5.7v-6h5.7C18.5,26.2,19.8,27.3,19.8,29.1z M81.3,22.1c-1.7-3.6-4.9-5.6-9.8-5.6c-5.7,0-10.9,3.6-10.9,10.7
	c0,6.9,4.5,10.8,10.8,10.8c4.4,0,8.1-1.8,9.9-5.5l-5-2.6c-0.9,1.7-2.3,2.7-4.6,2.7c-2.9,0-4.8-2.1-4.8-5.4c0-3.4,2.1-5.4,4.7-5.4
	c2,0,3.6,0.9,4.5,2.9L81.3,22.1z M173.7,22.1c-1.7-3.6-4.9-5.6-9.8-5.6c-5.7,0-10.9,3.6-10.9,10.7c0,6.9,4.5,10.8,10.8,10.8
	c4.4,0,8.1-1.8,9.9-5.5l-5-2.6c-0.9,1.7-2.3,2.7-4.6,2.7c-2.9,0-4.8-2.1-4.8-5.4c0-3.4,2.1-5.4,4.7-5.4c2,0,3.6,0.9,4.5,2.9
	L173.7,22.1z M121.1,37.5l-5.2-9.2h-4v9.2h-6.5V10h11.7c6.3,0,10.7,3,10.7,8.9c0,3.8-1.9,6.4-5.2,8.1l6,10.5H121.1z M111.9,22.8h4.8
	c3,0,4.4-1.7,4.4-3.7c0-2.4-1.4-3.7-4.4-3.7h-4.8V22.8z M59.6,37.1v-4.3c-0.3,0.1-0.7,0.2-1.1,0.2c-0.8,0-1.2-0.4-1.2-1.1v-7.1
	c0-5.3-3.6-8.2-9.5-8.2c-3.9,0-7.2,1.4-9.2,3.2l3.5,3.9c1.4-1.2,3.2-2,5-2c2.8,0,4.1,1.4,4.1,3.6v0.6c-1.3-0.3-2.9-0.6-4.9-0.6
	c-5,0-8.3,2.4-8.3,6.4c0,4.1,2.7,6.2,6.9,6.2c2.9,0,5.4-1.2,6.8-2.7c0.8,2,2.6,2.6,4.3,2.6C57.1,37.8,58.5,37.6,59.6,37.1z
	 M51.1,30.7c0,1.9-1.8,3.1-3.9,3.1c-2,0-2.9-1-2.9-2.4c0-1.4,1.1-2.5,3.3-2.5c1.3,0,2.5,0.2,3.5,0.5V30.7z M196.1,37.5l-7.4-12.8
	l6.9-7.5h-7l-7.3,8.1V10h-6.2v27.5h6.2v-5l3-3.2l4.7,8.1L196.1,37.5L196.1,37.5z M103.8,37.5l-7.4-12.8l6.9-7.5h-7L89,25.3V10h-6.2
	v27.5H89v-5l3-3.2l4.7,8.1L103.8,37.5L103.8,37.5z M199.9,33.7c1.3,0,2.1,0.8,2.1,2s-0.8,2-2.1,2s-2.1-0.8-2.1-2
	S198.6,33.7,199.9,33.7z M199.9,37.4c1,0,1.7-0.6,1.7-1.8s-0.7-1.8-1.7-1.8c-1,0-1.7,0.6-1.7,1.8C198.2,36.9,198.9,37.4,199.9,37.4z
	 M199.1,34.6h0.8c0.5,0,0.8,0.3,0.8,0.6c0,0.3-0.2,0.5-0.4,0.6l0.4,0.7h-0.4L200,36h-0.5v0.6h-0.4V34.6z M199.5,34.9v0.7h0.4
	c0.3,0,0.4-0.1,0.4-0.3c0-0.2-0.1-0.3-0.4-0.3L199.5,34.9L199.5,34.9z"/>
</svg>
