<?xml version="1.0" encoding="utf-8"?>
<!-- Generator: Adobe Illustrator 23.0.6, SVG Export Plug-In . SVG Version: 6.00 Build 0)  -->
<svg version="1.1" id="Layer_1" xmlns="http://www.w3.org/2000/svg" xmlns:xlink="http://www.w3.org/1999/xlink" x="0px" y="0px"
	 viewBox="0 0 200 48" style="enable-background:new 0 0 200 48;" xml:space="preserve">
<style type="text/css">
	.st0{opacity:0.8;}
	.st1{fill:#FFFFFF;}
	.st2{fill-rule:evenodd;clip-rule:evenodd;fill:#FFFFFF;}
</style>
<g class="st0">
	<path class="st1" d="M18.8,48L4,27.2l14.8,8.7l14.8-8.7L18.8,48z"/>
	<path class="st1" d="M165,21.3c0-0.4,0.4-0.7,0.8-0.6c0.2,0.1,0.4,0.3,0.4,0.6v12.9c0,0.3-0.3,0.6-0.6,0.6c-0.3,0-0.6-0.2-0.6-0.6
		v-2.4c-1,1.9-2.7,3.3-4.9,3.3c-3.5,0-5.4-3-5.4-6.2v-7.5c0-0.3,0.2-0.6,0.6-0.6c0.3,0,0.6,0.3,0.6,0.6v7.5c0,2.5,1.4,5.1,4.3,5.1
		c4,0,4.9-3.7,4.9-7.8V21.3z"/>
	<path class="st2" d="M51.6,20.3c4,0,6.8,3.5,6.8,7.3c0,0.3-0.3,0.6-0.6,0.6H46c0.3,2.9,2.5,5.6,5.6,5.6c2.1,0,3.7-0.8,4.9-2.5
		c0.1-0.2,0.3-0.3,0.5-0.3c0.3,0,0.6,0.2,0.6,0.6c0,0.1,0,0.2-0.1,0.3C56.3,34,53.9,35,51.6,35c-4,0-6.8-3.5-6.8-7.3
		C44.8,23.9,47.6,20.3,51.6,20.3z M51.6,21.5c-3.1,0-5.3,2.7-5.6,5.6h11.2C56.9,24.2,54.7,21.5,51.6,21.5z"/>
	<path class="st2" d="M106.4,20.3c3.9,0,6.8,3.5,6.8,7.3c0,0.3-0.3,0.6-0.6,0.6h-11.8c0.3,2.9,2.5,5.6,5.6,5.6
		c2.1,0,3.7-0.8,4.9-2.5c0.1-0.2,0.3-0.3,0.5-0.3c0.3,0,0.6,0.2,0.6,0.6c0,0.1,0,0.2-0.1,0.3c-1.2,2.1-3.6,3.1-5.9,3.1
		c-4,0-6.8-3.5-6.8-7.3C99.6,23.9,102.4,20.3,106.4,20.3z M106.4,21.5c-3.1,0-5.3,2.7-5.6,5.6h11.2
		C111.7,24.2,109.5,21.5,106.4,21.5z"/>
	<path class="st2" d="M140.2,20.3c4,0,6.8,3.5,6.8,7.3c0,0.3-0.3,0.6-0.6,0.6h-11.8c0.3,2.9,2.5,5.6,5.6,5.6c2.1,0,3.7-0.8,4.9-2.5
		c0.1-0.2,0.3-0.3,0.5-0.3c0.3,0,0.6,0.2,0.6,0.6c0,0.1,0,0.2-0.1,0.3c-1.2,2.1-3.6,3.1-5.9,3.1c-4,0-6.8-3.5-6.8-7.3
		C133.4,23.9,136.3,20.3,140.2,20.3z M140.2,21.5c-3.1,0-5.3,2.7-5.6,5.6h11.2C145.6,24.2,143.3,21.5,140.2,21.5z"/>
	<path class="st1" d="M69,15.5c0.4,0,0.7,0.2,0.7,0.6v4.6h3.1c0.3,0,0.6,0.3,0.6,0.6c0,0.3-0.2,0.6-0.6,0.6h-3.2v12.4
		c0,0.3-0.2,0.6-0.6,0.6c-0.3,0-0.6-0.3-0.6-0.6V21.8h-3c-0.3,0-0.6-0.2-0.6-0.6c0-0.3,0.2-0.6,0.6-0.6h3v-4.5
		C68.4,15.8,68.7,15.5,69,15.5z"/>
	<path class="st1" d="M81.1,8.9c0.3,0,0.6,0.3,0.6,0.6v13.9c1-1.8,2.8-3,4.9-3c3.5,0,5.5,3,5.5,6.2v7.5c0,0.3-0.3,0.6-0.6,0.6
		c-0.3,0-0.6-0.2-0.6-0.6v-7.5c0-2.5-1.4-5.1-4.3-5.1c-3.6,0-5.2,3.2-5,6.4c0,0.1,0,0.5,0,0.5v5.6c0,0.3-0.2,0.6-0.5,0.6
		c-0.4,0-0.7-0.2-0.7-0.6V9.5C80.5,9.2,80.7,8.9,81.1,8.9z"/>
	<path class="st1" d="M190.6,20.4c3.5,0,5.4,3,5.4,6.2v7.5c0,0.3-0.3,0.6-0.6,0.6c-0.3,0-0.6-0.2-0.6-0.6v-7.5c0-2.5-1.4-5-4.3-5
		c-3.6,0-4.9,3.8-4.9,6.7v5.8c0,0.3-0.3,0.6-0.6,0.6c-0.3,0-0.6-0.2-0.6-0.6v-7.5c0-2.5-1.4-5-4.3-5c-3.6,0-5.1,2.8-4.9,6.6
		c0,0.1,0,0.2,0,0.3v5.7c0,0.3-0.2,0.6-0.5,0.6c-0.4,0-0.7-0.2-0.7-0.6V21.3c0-0.3,0.2-0.6,0.5-0.6c0.4,0,0.7,0.2,0.7,0.6v2.1
		c1-1.8,2.8-3,4.9-3c2.4,0,4.3,1.5,5,3.7C186.2,21.9,188.1,20.4,190.6,20.4z"/>
	<path class="st1" d="M127.1,20.6c0.3,0,0.6,0.2,0.6,0.5c0,0.4-0.2,0.6-0.6,0.6c-3.5,0.5-5,3.3-5,6.6V34c0,0.3-0.2,0.6-0.5,0.6
		c-0.4,0-0.7-0.2-0.7-0.6V21.3c0-0.3,0.2-0.6,0.5-0.6c0.4,0,0.7,0.2,0.7,0.6v2.6C123.1,22.2,125,20.6,127.1,20.6z"/>
	<path class="st1" d="M33.5,24.4l-14.8,8.7L4,24.4L18.8,0L33.5,24.4z"/>
</g>
</svg>
