<?xml version="1.0" encoding="utf-8"?>
<!-- Generator: Adobe Illustrator 23.0.6, SVG Export Plug-In . SVG Version: 6.00 Build 0)  -->
<svg version="1.1" id="Layer_1" xmlns="http://www.w3.org/2000/svg" xmlns:xlink="http://www.w3.org/1999/xlink" x="0px" y="0px"
	 viewBox="0 0 119 48" style="enable-background:new 0 0 119 48;" xml:space="preserve">
<style type="text/css">
	.st0{fill:#FFFFFF;}
</style>
<path class="st0" d="M13.1,11.2h6.7v11.1c-2.2,0.5-4,0.7-5.8,0.7C6.6,23,4,18.8,4,11.8C4,4.3,7.6,0,14.8,0c0.9,0,2.6,0.1,4.8,0.4
	v7.1H18l-0.9-2.7c-0.8-2.6-1.8-3.9-3.4-3.9c-2.8,0-4.2,3.8-4.2,10.8c0,7.1,0.6,10.4,4.2,10.4c0.5,0,1.1-0.1,1.6-0.2v-8.2l-2.2-1.5
	L13.1,11.2L13.1,11.2z M19.7,41c0,4.4-3,7-8.3,7c-1.5,0-3.6-0.2-5.6-0.6v-8.7h1.6l0.7,2.1c1.5,4.7,2.5,6.3,4.3,6.3
	c1.9,0,3.3-1.7,3.3-4c0-1.9-0.9-3.2-2.8-4.2l-3.2-1.8c-2.5-1.3-3.9-3.4-3.9-6c0-3.9,3.1-6.2,8.3-6.2c1.2,0,2.5,0.1,4.7,0.4v7.1h-1.6
	l-0.9-2.7c-0.9-2.9-1.8-3.9-3.5-3.9c-1.9,0-3.1,1.2-3.1,3c0,1.6,0.9,2.7,2.6,3.7l3.3,1.9C18.4,36,19.7,38.1,19.7,41z M34,46.1l0.6,1
	v0.5h-5l-0.2-1.9c-0.5,1.4-1.9,2.3-3.6,2.3c-2.6,0-4.2-1.6-4.2-4.3c0-2.6,1.5-4.3,5.9-6.1l1.9-0.8v-2.4c0-2.2-0.4-3-1.6-3
	c-1,0-1.5,0.5-2.5,2.9l-1.1,2.7h-1.5v-5.3c1.9-0.6,3.8-1,5.5-1c3.7,0,5.6,1.8,5.6,5V46.1z M35.9,14.3c0,5.6-2.9,8.7-6.7,8.7
	c-3.8,0-6.7-3.1-6.7-8.7c0-5.6,2.9-8.7,6.7-8.7C32.9,5.6,35.9,8.8,35.9,14.3z M29.5,43.4v-5.7L28.9,38c-1.9,0.8-2.6,2.6-2.6,5.1
	c0,1.9,0.5,3,1.5,3C28.8,46.2,29.5,45.1,29.5,43.4z M31.1,14.3c0-6.3-0.5-7.9-2-7.9c-1.5,0-2,1.7-2,7.9c0,6.3,0.5,7.9,2,7.9
	C30.6,22.3,31.1,20.6,31.1,14.3z M47.4,43.5l0.6,0.3c-1,3-2.4,4.1-4.9,4.1c-4.2,0-6.5-3.2-6.5-8.7c0-5.5,2.7-8.7,7.2-8.7
	c1.2,0,2.8,0.2,4.2,0.7v5.6h-1.5l-0.6-2.1c-0.8-2.8-1.3-3.5-2.1-3.5c-1.3,0-2.3,1.7-2.3,8.2c0,5.2,0.8,7.1,2.8,7.1
	C45.4,46.6,46.5,45.7,47.4,43.5L47.4,43.5z M43.8,22.6H38v-0.5l0.6-1V2.9l-0.6-1V1.4L43.2,1v20.1l0.6,1V22.6L43.8,22.6z M51.8,23
	c-3.6,0-5.7-3.3-5.7-8.9c0-5.6,2.2-8.5,5.7-8.5c1.8,0,2.7,0.7,3.1,2.1V2.9l-0.6-1V1.4L59.4,1v20.1l0.6,1v0.5h-4.6l-0.4-2.5
	C54.6,22.3,53.6,23,51.8,23z M63.2,46.1l0.6,1v0.5H58v-0.5l0.6-1V34.4c0-1.4-0.4-2.3-1.4-2.3c-1.2,0-2.1,1-2.1,3v11l0.6,1v0.5h-5.8
	v-0.5l0.6-1V27.9l-0.6-1v-0.5l5.2-0.4v6.8c0.6-1.4,1.9-2.2,3.8-2.2c2.7,0,4.2,1.7,4.2,5L63.2,46.1L63.2,46.1L63.2,46.1z M50.8,14.2
	c0,5.9,0.5,7.7,1.9,7.7c1.8,0,2.1-2.6,2.1-7.7c0-5-0.4-7.5-2.1-7.5C51.4,6.7,50.8,8.4,50.8,14.2z M83.4,21.2l0.7,1v0.5h-5.8v-0.5
	l0.6-1V9c0-1.2-0.4-1.9-1.3-1.9c-1.1,0-2,1-2,3v11.1l0.6,1v0.5h-5.8v-0.5l0.6-1V9c0-1.2-0.4-1.9-1.3-1.9c-1.1,0-2,1-2,3v11.1l0.6,1
	v0.5h-5.8v-0.5l0.6-1V7.8l-0.6-0.8V6.6L67.1,6h0.4l0.1,1.8c0.5-1.4,1.9-2.2,3.8-2.2c2,0,3.3,1,3.9,2.7c0.5-1.7,2-2.7,4-2.7
	c2.6,0,4.2,1.7,4.2,5V21.2z M77.3,42.8c0,2.8-1.8,5.2-6.2,5.2c-1.1,0-2.7-0.1-5-0.6v-6.1h1.3l0.4,1.3c1,3.3,2,4.6,3.6,4.6
	c1.5,0,2.5-1.1,2.5-2.7c0-1.4-0.7-2.3-2.3-3.2l-2.8-1.5c-1.8-1-2.8-2.5-2.8-4.4c0-3,2.3-4.8,6.1-4.8c1.1,0,2.5,0.2,4.1,0.5v4.8H75
	l-0.7-1.7c-0.8-2.1-1.5-2.8-2.8-2.8c-1.3,0-2.1,0.8-2.1,2.1c0,1.1,0.7,1.9,2.2,2.8l2.8,1.6C76.3,38.9,77.3,40.4,77.3,42.8L77.3,42.8
	z M98.3,21.2l0.6,1v0.5h-5l-0.2-1.9c-0.5,1.4-1.9,2.3-3.6,2.3c-2.6,0-4.2-1.6-4.2-4.3c0-2.6,1.5-4.3,5.9-6.1l1.9-0.8V9.4
	c0-2.2-0.4-3-1.6-3c-1,0-1.5,0.5-2.5,2.9l-1.1,2.7h-1.5V6.6c1.9-0.6,3.8-1,5.5-1c3.7,0,5.6,1.8,5.6,5V21.2L98.3,21.2z M93.8,18.4
	v-5.7L93.2,13c-1.9,0.8-2.6,2.6-2.6,5.1c0,1.9,0.5,3,1.5,3C93.1,21.2,93.8,20.1,93.8,18.4z M115,22.1v0.5h-5.8v-0.5l0.6-1V9.4
	c0-1.4-0.4-2.3-1.4-2.3c-1.2,0-2.1,1-2.1,3v11l0.7,1v0.5h-5.8v-0.5l0.6-1V7.8l-0.7-0.8V6.6l4.7-0.6h0.4l0.1,1.8
	c0.5-1.4,1.9-2.2,3.8-2.2c2.7,0,4.2,1.7,4.2,5v10.5L115,22.1z"/>
</svg>
