<?xml version="1.0" encoding="utf-8"?>
<!-- Generator: Adobe Illustrator 23.0.6, SVG Export Plug-In . SVG Version: 6.00 Build 0)  -->
<svg version="1.1" id="Layer_1" xmlns="http://www.w3.org/2000/svg" xmlns:xlink="http://www.w3.org/1999/xlink" x="0px" y="0px"
	 viewBox="0 0 162 48" style="enable-background:new 0 0 162 48;" xml:space="preserve">
<style type="text/css">
	.st0{fill-rule:evenodd;clip-rule:evenodd;fill:#FFFFFF;}
</style>
<path class="st0" d="M48.2,9.9c2,2.6,3.4,5.7,4.2,8.9c-3.2-4.3-7.9-8.4-13.6-11.8c-5.8-3.4-11.7-5.4-17-6c3.2-0.9,6.5-1.2,9.8-0.7
	c3.3,0.4,6.4,1.5,9.3,3.1C43.7,5,46.2,7.2,48.2,9.9z M22.8,33.4c-6.2-3.6-12.9-4.5-17.7-2.9c0.5,1.5,1.1,3,1.8,4.4
	c4.2-0.1,8.7,1,13,3.5s7.5,5.9,9.5,9.6c1.6,0,3.2-0.3,4.8-0.6C33.1,42.4,29,37,22.8,33.4z M8.6,37.7c2,2.8,4.6,5.2,7.6,6.9
	c3,1.7,6.3,2.8,9.8,3.2c-1.8-2.7-4.4-5.1-7.6-7C15.2,39,11.8,38,8.6,37.7z M44.7,30.5c-2.7-4.5-7.4-8.8-13.1-12.2
	C25.8,15,19.7,13.1,14.5,13c-4.6-0.1-8.1,1.2-9.5,3.7c0,0,0,0,0,0h0c0,0,0,0,0,0c-0.1,0.5-0.2,0.9-0.3,1.4c2-0.8,4.3-1.2,6.9-1.3
	c5.7-0.1,12.1,1.7,18,5.1c5.9,3.4,10.7,8.1,13.4,13.1c1.2,2.3,2,4.5,2.3,6.6c0.4-0.3,0.7-0.6,1-1c0,0,0,0,0,0c0,0,0,0,0,0
	C47.6,38.2,47.1,34.5,44.7,30.5z M4,23.5c4.7-3.6,14.4-2.8,23.2,2.3C36,31,41.5,39,40.7,44.9c-1,0.5-2,1-3,1.4
	c-0.3-1.4-0.8-2.8-1.4-4.1c-2.2-4.7-6.4-9-11.6-12.1c-5.2-3-11-4.5-16.2-4.1c-1.4,0.1-2.8,0.4-4.2,0.8C4.1,25.8,4,24.6,4,23.5z
	 M49.2,23c-2.8-4.5-7.5-8.9-13.2-12.2c-5.8-3.4-11.9-5.3-17.2-5.5c-4-0.1-7.1,0.9-8.8,2.7c6.7-1.1,15.6,0.8,24.2,5.8
	c8.6,5,14.6,11.7,17,18.2C52,29.6,51.3,26.4,49.2,23z M78,14.9h-4.1v13.7c0,0.6-0.1,1.2-0.3,1.6c-0.2,0.4-0.5,0.8-0.8,1
	c-0.4,0.2-0.8,0.3-1.3,0.3c-0.5,0-0.9-0.1-1.3-0.3c-0.4-0.2-0.6-0.5-0.8-0.8c-0.2-0.4-0.3-0.8-0.3-1.3H65c0,1.3,0.3,2.4,0.8,3.3
	c0.6,0.9,1.3,1.5,2.3,1.9c1,0.4,2,0.6,3.2,0.6c1.3,0,2.5-0.3,3.5-0.8c1-0.5,1.8-1.2,2.3-2.2c0.6-0.9,0.9-2,0.9-3.3V14.9z M90.8,19.8
	v8.5c0,0.7-0.1,1.2-0.4,1.7c-0.3,0.4-0.6,0.8-1,1c-0.4,0.2-0.9,0.3-1.4,0.3c-0.8,0-1.4-0.3-1.8-0.8c-0.5-0.5-0.7-1.2-0.7-2.1v-8.6
	h-4.1v9.4c0,1.2,0.2,2.1,0.6,3c0.4,0.8,1,1.5,1.8,1.9c0.7,0.4,1.6,0.7,2.6,0.7c1.1,0,2-0.3,2.8-0.8c0.8-0.5,1.3-1.2,1.7-2.1H91v2.7
	h3.9V19.8H90.8z M98.2,19.8V40h4.1v-7.9h0.1c0.2,0.4,0.5,0.8,0.8,1.2c0.4,0.4,0.8,0.7,1.4,1c0.6,0.3,1.2,0.4,2,0.4
	c1.1,0,2.1-0.3,3-0.9c0.9-0.6,1.6-1.4,2.1-2.6c0.5-1.1,0.8-2.5,0.8-4.2c0-1.7-0.3-3.1-0.8-4.2c-0.5-1.1-1.3-2-2.2-2.5
	c-0.9-0.6-1.9-0.8-3-0.8c-0.8,0-1.5,0.1-2.1,0.4c-0.6,0.3-1,0.6-1.3,1c-0.3,0.4-0.6,0.8-0.8,1.2h-0.2v-2.5H98.2z M102.5,29.4
	c-0.2-0.7-0.4-1.4-0.4-2.3c0-0.9,0.1-1.6,0.4-2.3c0.2-0.6,0.6-1.1,1-1.5c0.5-0.4,1-0.5,1.7-0.5c0.7,0,1.2,0.2,1.7,0.5s0.8,0.9,1,1.5
	c0.2,0.6,0.4,1.4,0.4,2.2c0,0.9-0.1,1.6-0.4,2.3c-0.2,0.7-0.6,1.2-1,1.5c-0.5,0.4-1,0.5-1.7,0.5c-0.7,0-1.2-0.2-1.7-0.5
	C103.1,30.6,102.8,30.1,102.5,29.4z M119.3,19.8h-4.1v14.7h4.1V19.8z M115.7,17.3c0.4,0.4,1,0.6,1.6,0.6c0.6,0,1.1-0.2,1.6-0.6
	c0.4-0.4,0.7-0.9,0.7-1.5c0-0.6-0.2-1-0.7-1.4c-0.4-0.4-0.9-0.6-1.6-0.6c-0.6,0-1.1,0.2-1.6,0.6c-0.4,0.4-0.6,0.9-0.6,1.4
	C115.1,16.4,115.3,16.9,115.7,17.3z M130.4,22.8v-3.1h-2.8v-3.5h-4.1v3.5h-2v3.1h2v7.7c0,1,0.2,1.8,0.6,2.4c0.4,0.6,1,1.1,1.7,1.4
	c0.7,0.3,1.6,0.4,2.6,0.4c0.5,0,1-0.1,1.4-0.2c0.4-0.1,0.7-0.2,0.9-0.2l-0.6-3c-0.1,0-0.2,0-0.4,0.1c-0.2,0-0.4,0-0.6,0
	c-0.3,0-0.5,0-0.7-0.1c-0.2-0.1-0.4-0.2-0.5-0.4c-0.1-0.2-0.2-0.5-0.2-0.9v-7.1H130.4z M135.7,33.9c1.1,0.6,2.4,0.9,3.9,0.9
	c1.2,0,2.3-0.2,3.2-0.6c0.9-0.4,1.7-0.9,2.3-1.6c0.6-0.7,1-1.5,1.2-2.4l-3.8-0.2c-0.1,0.4-0.3,0.7-0.6,0.9c-0.3,0.3-0.6,0.4-1,0.6
	c-0.4,0.1-0.8,0.2-1.2,0.2c-0.7,0-1.3-0.1-1.8-0.4c-0.5-0.3-0.9-0.7-1.2-1.2c-0.3-0.5-0.4-1.2-0.4-1.9v0h10v-1.1
	c0-1.3-0.2-2.3-0.5-3.3c-0.4-0.9-0.8-1.7-1.5-2.3c-0.6-0.6-1.4-1.1-2.2-1.4c-0.8-0.3-1.7-0.5-2.7-0.5c-1.4,0-2.7,0.3-3.8,1
	c-1.1,0.6-1.9,1.5-2.5,2.7c-0.6,1.1-0.9,2.5-0.9,4c0,1.6,0.3,2.9,0.9,4C133.8,32.4,134.7,33.2,135.7,33.9z M136.4,25.6
	c0-0.5,0.2-1,0.4-1.4c0.3-0.5,0.6-0.9,1.1-1.1c0.5-0.3,1-0.4,1.6-0.4c0.6,0,1.1,0.1,1.6,0.4c0.5,0.3,0.8,0.6,1.1,1.1
	c0.3,0.5,0.4,1,0.4,1.6H136.4z M153,19.8h-4v14.7h4.1v-8.3c0-0.6,0.1-1.1,0.4-1.6c0.3-0.5,0.6-0.8,1.1-1.1c0.5-0.3,1-0.4,1.6-0.4
	c0.3,0,0.6,0,0.9,0.1c0.3,0,0.6,0.1,0.8,0.2v-3.6c-0.2,0-0.4-0.1-0.6-0.1c-0.2,0-0.5,0-0.7,0c-0.8,0-1.6,0.2-2.2,0.7
	c-0.6,0.5-1.1,1.2-1.4,2.1H153V19.8z"/>
</svg>
