<?xml version="1.0" encoding="UTF-8"?>
<!DOCTYPE svg PUBLIC "-//W3C//DTD SVG 1.1//EN" "http://www.w3.org/Graphics/SVG/1.1/DTD/svg11.dtd">
<!-- Creator: CorelDRAW 2019 (64-Bit) -->
<svg xmlns="http://www.w3.org/2000/svg" xml:space="preserve" width="2.538in" height="1.927in" version="1.1" style="shape-rendering:geometricPrecision; text-rendering:geometricPrecision; image-rendering:optimizeQuality; fill-rule:evenodd; clip-rule:evenodd"
viewBox="0 0 2538 1927"
 xmlns:xlink="http://www.w3.org/1999/xlink"
 xmlns:xodm="http://www.corel.com/coreldraw/odm/2003">
 <defs>
  <style type="text/css">
   <![CDATA[
    .fil0 {fill:black;fill-rule:nonzero}
   ]]>
  </style>
 </defs>
 <g id="Layer_x0020_1">
  <metadata id="CorelCorpID_0Corel-Layer"/>
  <path class="fil0" d="M2247.55 1820.96c0,-39.23 23.98,-69.67 65.37,-69.67 39.23,0 63.1,30.5 63.1,69.67 0,41.39 -26.3,69.69 -63.1,69.69 -41.43,2.2 -65.41,-30.46 -65.41,-69.69l0.04 0zm-1278.46 -1033.59c0.04,-240.25 109.95,-467.27 298.36,-616.33 -340.39,-267.65 -833.3,-208.65 -1100.92,131.75 -267.64,340.39 -208.64,833.29 131.75,1100.93 284.37,223.59 684.79,223.59 969.17,0 -188.41,-149.06 -298.31,-376.1 -298.36,-616.35zm299.61 563.35c299.88,-258.54 345.38,-711.42 97.48,-1024.89 -29.2,-36.94 -61.88,-71.04 -97.5,-101.78 -163.34,141.01 -257.93,346.49 -257.93,563.33 0,216.85 94.61,422.33 257.95,563.35zm1268.49 -563.35c0.32,432.57 -350.11,783.51 -782.68,783.82 -175.74,0.13 -346.43,-58.86 -484.59,-167.47 340.39,-269.18 398.11,-763.36 128.95,-1103.75 -37.85,-47.83 -81.11,-91.11 -128.95,-128.93 340.07,-267.33 832.48,-208.35 1099.79,131.72 108.63,138.18 167.61,308.87 167.48,484.61zm-121.94 1033.59l0 -187.3 -41.39 0 0 108.9c-15.26,-19.61 -36.81,-30.5 -67.52,-30.5 -58.8,0 -102.39,45.76 -102.39,108.9 0,63.16 43.54,108.9 102.39,108.9 30.48,0 52.26,-10.87 67.52,-30.49l0 26.29 41.39 0 0 -104.7zm-588.04 0c0,-39.23 23.97,-69.67 65.35,-69.67 39.23,0 63.1,30.5 63.1,69.67 0,41.39 -26.3,69.69 -63.1,69.69 -41.39,2.15 -65.35,-30.5 -65.35,-69.69zm167.69 0l0 -104.53 -41.39 0 0 26.29c-15.26,-19.61 -36.81,-30.5 -67.52,-30.5 -58.78,0 -102.39,45.76 -102.39,108.9 0,63.16 43.54,108.9 102.39,108.9 30.5,0 52.26,-10.87 67.52,-30.48l0 26.29 41.39 0 0 -104.86zm161.16 -108.9c-22.92,-0.5 -44.44,11.07 -56.63,30.5l0 -26.29 -41.39 0 0 209.07 41.34 0 0 -117.41c0,-34.87 17.4,-56.65 45.74,-56.65 9.56,0.4 19.05,1.85 28.3,4.37l13.09 -39.23c-9.98,-2.52 -20.22,-3.98 -30.5,-4.37l0.04 0zm-1609.48 108.9c0,-39.23 23.99,-69.67 65.36,-69.67 39.23,0 63.1,30.5 63.1,69.67 0,41.39 -26.29,69.69 -63.1,69.69 -41.37,2.15 -65.36,-30.5 -65.36,-69.69zm167.69 0l0 -104.53 -41.39 0 0 26.29c-15.24,-19.61 -36.81,-30.5 -67.52,-30.5 -58.79,0 -102.39,45.76 -102.39,108.9 0,63.16 43.54,108.9 102.39,108.9 30.5,0 52.27,-10.87 67.52,-30.48l0 26.29 41.39 0 0 -104.86zm564.07 -69.67c30.48,0 52.27,19.61 54.43,52.27l-113.22 0c6.52,-30.5 26.29,-52.27 58.79,-52.27zm2.16 -39.23c-61,0 -102.39,43.54 -102.39,108.9 0,65.37 43.54,108.9 106.69,108.9 30.73,0.66 60.74,-9.33 84.94,-28.29l-21.78 -30.5c-17.5,13.56 -38.87,21.18 -61,21.77 -28.29,0 -58.79,-17.4 -63.1,-54.41l154.66 0 0 -17.41c0,-65.36 -39.23,-108.9 -98.02,-108.9l0 -0.06zm291.83 108.9c0,63.1 41.39,108.9 108.9,108.9 30.5,0 52.27,-6.52 74.04,-23.97l-21.77 -32.66c-15.4,12.48 -34.58,19.4 -54.41,19.61 -36.81,0 -65.37,-28.28 -65.37,-69.67 0,-41.39 28.19,-69.47 65.37,-69.47 19.83,0.23 39.01,7.13 54.41,19.61l21.77 -32.64c-21.77,-17.42 -43.54,-23.99 -74.04,-23.99 -65.36,-4.36 -108.9,41.39 -108.9,104.54l0 -0.27zm-631.57 -87.13c-21.77,-15.24 -52.27,-21.77 -84.93,-21.77 -52.27,0 -84.93,23.98 -84.93,65.37 0,34.85 23.99,54.41 69.67,61l21.77 2.14c23.98,4.37 39.23,13.1 39.23,23.99 0,15.24 -17.4,26.28 -50.11,26.28 -24.96,0.52 -49.44,-7.13 -69.67,-21.76l-21.77 32.64c30.5,21.77 67.53,26.3 89.4,26.3 61,0 93.66,-28.3 93.66,-67.53 0,-36.81 -26.3,-54.42 -71.9,-60.99l-21.76 -2.16c-19.63,-2.16 -36.81,-8.73 -36.81,-21.77 0,-15.26 17.4,-26.29 41.39,-26.29 26.29,0 52.27,10.87 65.35,17.4l21.41 -32.87zm585.83 -21.77c-22.92,-0.5 -44.44,11.07 -56.63,30.5l0 -26.29 -41.39 0 0 209.07 41.39 0 0 -117.41c0,-34.87 17.41,-56.65 45.74,-56.65 9.56,0.4 19.05,1.85 28.28,4.37l13.1 -39.23c-9.98,-2.52 -20.2,-3.98 -30.5,-4.37zm-387.66 6.53l-76.24 0 0 -63.1 -41.27 0 0 63.1 -43.54 0 0 36.8 43.54 0 0 98.23c0,47.9 17.4,76.24 69.67,76.24 19.8,-0.4 39.21,-5.64 56.53,-15.24l-13.09 -36.8c-11.75,7.33 -25.38,11.12 -39.23,10.89 -21.77,0 -32.66,-13.1 -32.66,-34.87l0 -100.13 76.24 0 0 -34.86 0.04 -0.26zm-679.47 206.92l0 -130.67c0,-50.11 -30.5,-82.77 -80.56,-82.77 -26.3,0 -54.43,8.74 -74.06,36.81 -15.24,-23.97 -36.8,-36.81 -69.66,-36.81 -24.82,-1.06 -48.52,10.4 -63.1,30.5l0 -26.29 -41.39 0 0 209.07 41.39 0 0 -119.63c0,-36.8 21.77,-54.43 52.27,-54.43 30.49,0 47.9,19.61 47.9,54.43l0 119.79 41.39 0 0 -119.79c0,-36.8 21.76,-54.43 52.26,-54.43 30.5,0 47.9,19.61 47.9,54.43l0 119.79 45.66 0z"/>
 </g>
</svg>
