<?xml version="1.0" encoding="utf-8"?>
<!-- Generator: Adobe Illustrator 23.0.6, SVG Export Plug-In . SVG Version: 6.00 Build 0)  -->
<svg version="1.1" id="Layer_1" xmlns:xodm="http://www.corel.com/coreldraw/odm/2003"
	 xmlns="http://www.w3.org/2000/svg" xmlns:xlink="http://www.w3.org/1999/xlink" x="0px" y="0px" viewBox="0 0 182.7 138.7"
	 style="enable-background:new 0 0 182.7 138.7;" xml:space="preserve">
<style type="text/css">
	.st0{fill:#FFFFFF;}
</style>
<g id="Layer_x0020_1">
	<path class="st0" d="M161.8,131.1c0-2.8,1.7-5,4.7-5c2.8,0,4.5,2.2,4.5,5c0,3-1.9,5-4.5,5C163.5,136.3,161.8,133.9,161.8,131.1
		L161.8,131.1L161.8,131.1z M69.8,56.7c0-17.3,7.9-33.6,21.5-44.4C66.7-7,31.3-2.7,12,21.8c-19.3,24.5-15,60,9.5,79.3
		c20.5,16.1,49.3,16.1,69.8,0C77.7,90.3,69.8,74,69.8,56.7z M91.3,97.3c21.6-18.6,24.9-51.2,7-73.8c-2.1-2.7-4.5-5.1-7-7.3
		C79.6,26.3,72.8,41.1,72.8,56.7C72.8,72.3,79.6,87.1,91.3,97.3L91.3,97.3z M182.7,56.7c0,31.1-25.2,56.4-56.4,56.4
		c-12.7,0-24.9-4.2-34.9-12.1c24.5-19.4,28.7-55,9.3-79.5c-2.7-3.4-5.8-6.6-9.3-9.3c24.5-19.2,59.9-15,79.2,9.5
		C178.4,31.7,182.7,44,182.7,56.7z M173.9,131.1v-13.5h-3v7.8c-1.1-1.4-2.7-2.2-4.9-2.2c-4.2,0-7.4,3.3-7.4,7.8
		c0,4.5,3.1,7.8,7.4,7.8c2.2,0,3.8-0.8,4.9-2.2v1.9h3C173.9,138.6,173.9,131.1,173.9,131.1z M131.6,131.1c0-2.8,1.7-5,4.7-5
		c2.8,0,4.5,2.2,4.5,5c0,3-1.9,5-4.5,5C133.3,136.3,131.6,133.9,131.6,131.1z M143.6,131.1v-7.5h-3v1.9c-1.1-1.4-2.7-2.2-4.9-2.2
		c-4.2,0-7.4,3.3-7.4,7.8c0,4.5,3.1,7.8,7.4,7.8c2.2,0,3.8-0.8,4.9-2.2v1.9h3V131.1L143.6,131.1z M155.2,123.3
		c-1.7,0-3.2,0.8-4.1,2.2v-1.9h-3v15.1h3v-8.5c0-2.5,1.3-4.1,3.3-4.1c0.7,0,1.4,0.1,2,0.3l0.9-2.8
		C156.7,123.4,156,123.3,155.2,123.3L155.2,123.3L155.2,123.3z M39.4,131.1c0-2.8,1.7-5,4.7-5c2.8,0,4.5,2.2,4.5,5c0,3-1.9,5-4.5,5
		C41.1,136.3,39.4,133.9,39.4,131.1z M51.4,131.1v-7.5h-3v1.9c-1.1-1.4-2.7-2.2-4.9-2.2c-4.2,0-7.4,3.3-7.4,7.8
		c0,4.5,3.1,7.8,7.4,7.8c2.2,0,3.8-0.8,4.9-2.2v1.9h3V131.1L51.4,131.1z M92,126.1c2.2,0,3.8,1.4,3.9,3.8h-8.2
		C88.3,127.7,89.7,126.1,92,126.1z M92.2,123.3c-4.4,0-7.4,3.1-7.4,7.8c0,4.7,3.1,7.8,7.7,7.8c2.2,0,4.4-0.7,6.1-2l-1.6-2.2
		c-1.3,1-2.8,1.5-4.4,1.6c-2,0-4.2-1.3-4.5-3.9h11.1v-1.3C99.3,126.4,96.4,123.3,92.2,123.3C92.2,123.3,92.2,123.3,92.2,123.3z
		 M113.2,131.1c0,4.5,3,7.8,7.8,7.8c2.2,0,3.8-0.5,5.3-1.7l-1.6-2.4c-1.1,0.9-2.5,1.4-3.9,1.4c-2.7,0-4.7-2-4.7-5c0-3,2-5,4.7-5
		c1.4,0,2.8,0.5,3.9,1.4l1.6-2.4c-1.6-1.3-3.1-1.7-5.3-1.7C116.3,123.3,113.2,126.6,113.2,131.1L113.2,131.1L113.2,131.1z
		 M67.7,124.8c-1.6-1.1-3.8-1.6-6.1-1.6c-3.8,0-6.1,1.7-6.1,4.7c0,2.5,1.7,3.9,5,4.4l1.6,0.2c1.7,0.3,2.8,0.9,2.8,1.7
		c0,1.1-1.3,1.9-3.6,1.9c-1.8,0-3.6-0.5-5-1.6l-1.6,2.4c2.2,1.6,4.9,1.9,6.4,1.9c4.4,0,6.7-2,6.7-4.9c0-2.7-1.9-3.9-5.2-4.4
		l-1.6-0.2c-1.4-0.2-2.7-0.6-2.7-1.6c0-1.1,1.3-1.9,3-1.9c1.9,0,3.8,0.8,4.7,1.3L67.7,124.8L67.7,124.8z M109.9,123.3
		c-1.7,0-3.2,0.8-4.1,2.2v-1.9h-3v15.1h3v-8.5c0-2.5,1.3-4.1,3.3-4.1c0.7,0,1.4,0.1,2,0.3l0.9-2.8
		C111.4,123.4,110.7,123.3,109.9,123.3L109.9,123.3z M82,123.7h-5.5v-4.5h-3v4.5h-3.1v2.6h3.1v7.1c0,3.4,1.3,5.5,5,5.5
		c1.4,0,2.8-0.4,4.1-1.1l-0.9-2.6c-0.8,0.5-1.8,0.8-2.8,0.8c-1.6,0-2.4-0.9-2.4-2.5v-7.2H82L82,123.7L82,123.7L82,123.7z
		 M33.1,138.6v-9.4c0-3.6-2.2-6-5.8-6c-1.9,0-3.9,0.6-5.3,2.7c-1.1-1.7-2.6-2.7-5-2.7c-1.8-0.1-3.5,0.7-4.5,2.2v-1.9h-3v15.1h3V130
		c0-2.6,1.6-3.9,3.8-3.9c2.2,0,3.4,1.4,3.4,3.9v8.6h3V130c0-2.6,1.6-3.9,3.8-3.9s3.4,1.4,3.4,3.9v8.6
		C29.8,138.6,33.1,138.6,33.1,138.6z"/>
</g>
</svg>
