<?xml version="1.0" encoding="utf-8"?>
<!-- Generator: Adobe Illustrator 23.0.6, SVG Export Plug-In . SVG Version: 6.00 Build 0)  -->
<svg version="1.1" id="Layer_1" xmlns="http://www.w3.org/2000/svg" xmlns:xlink="http://www.w3.org/1999/xlink" x="0px" y="0px"
	 viewBox="0 0 140 48" style="enable-background:new 0 0 140 48;" xml:space="preserve">
<style type="text/css">
	.st0{fill-rule:evenodd;clip-rule:evenodd;fill:#FFFFFF;}
</style>
<path class="st0" d="M57.8,5c1.8,0,3.3,1.4,3.3,3.2s-1.5,3.2-3.3,3.2c-1.8,0-3.3-1.4-3.3-3.2S56,5,57.8,5z M60.3,33.7h-5V14.9h5
	V33.7z M52.1,19.3c-0.3-0.1-1.1-0.2-1.8-0.2c-2.2,0-4.6,1.8-4.6,4v10.5h-5V14.9h4.8v1.9c1.1-1.4,3.2-2.3,5.5-2.3
	c0.6,0,1.1,0.1,1.7,0.2L52.1,19.3z M69.7,16.4c1.6-1.3,3.5-1.9,5.5-1.9c5.1,0,9.2,4.3,9.2,9.8c0,2.6-0.9,4.9-2.4,6.6
	c-1.7,1.9-4.3,3.2-7.1,3.2c-1.8,0-3.6-0.6-5-1.7V43h-5V14.9h4.8V16.4z M69.4,24.3c0,3,2.1,5.2,5.2,5.2c2.7,0,4.8-2.3,4.8-5.2
	c0-2.9-2.2-5.2-4.8-5.2C71.5,19.1,69.4,21.3,69.4,24.3z M115,33.7h-5V6.2h5V33.7z M127.8,34.1c2.9,0,5.9-1.2,7.7-3.4l-2.9-2.9
	c-0.9,1-2.6,2.2-4.7,2.2c-2.7,0-4.8-1.8-5.1-4.5h13c0.1-0.5,0.1-1,0.1-1.4c0-5.2-3.7-9.6-8.9-9.6c-5.6,0-9.1,4.6-9.1,9.8
	C118,30.2,122.2,34.1,127.8,34.1z M127.1,18.6c2.1,0,3.6,1.6,3.7,3.3h-7.7C123.3,20.2,125,18.6,127.1,18.6z M97.8,14.5
	c-2,0-3.9,0.6-5.5,1.9v-1.5h-4.8V43h5V32.4c1.4,1.1,3.2,1.7,5,1.7c2.8,0,5.5-1.2,7.1-3.2c1.5-1.7,2.4-4,2.4-6.6
	C107,18.8,102.9,14.5,97.8,14.5z M97.1,29.5c-3.1,0-5.2-2.2-5.2-5.2c0-3,2.1-5.2,5.2-5.2c2.7,0,4.8,2.3,4.8,5.2
	C102,27.2,99.8,29.5,97.1,29.5z M26.6,26c1.3,0,2.5,0.2,3.7,0.9c1,0.6,1.9,1.4,2.5,2.5c0.6,1,0.9,2.2,0.9,3.4c0,1.2-0.3,2.3-0.9,3.4
	c-0.6,1-1.4,1.9-2.5,2.5c-1,0.6-2.2,0.9-3.4,0.9c-1.2,0-2.3-0.3-3.4-0.9c-1-0.6-1.9-1.4-2.5-2.5c-0.6-1-0.9-2.2-0.9-3.4
	c0-1.3,0.5-2.5,1.1-3.6c0.7-1.3,0.3-2.9-1-3.7c-1.7-1-3.1,0.1-3.6,1c-0.7,1.1-1.5,2.1-2.6,2.7c-1,0.6-2.2,0.9-3.4,0.9
	c-1.2,0-2.3-0.3-3.4-0.9c-1-0.6-1.9-1.4-2.5-2.5c-0.6-1-0.9-2.2-0.9-3.4c0-1.2,0.3-2.3,0.9-3.4c0.6-1,1.4-1.9,2.5-2.5
	c1-0.6,2.2-0.9,3.4-0.9c1.2,0,2.3,0.3,3.4,0.9c1.1,0.7,1.9,1.7,2.6,2.7c0.8,1.3,2.4,1.7,3.6,1c1.7-1,1.5-2.7,1-3.7
	c-0.6-1.1-1.1-2.3-1.1-3.6c0-1.2,0.3-2.3,0.9-3.4s1.4-1.9,2.5-2.5c1-0.6,2.2-0.9,3.4-0.9c1.2,0,2.3,0.3,3.4,0.9
	c1,0.6,1.9,1.4,2.5,2.5c0.6,1,0.9,2.2,0.9,3.4s-0.3,2.3-0.9,3.4c-0.6,1-1.4,1.9-2.5,2.5c-1.1,0.7-2.4,0.8-3.7,0.9
	c-1.5,0.1-2.7,1.2-2.7,2.7C24,25.2,25.5,25.9,26.6,26z"/>
</svg>
