<?xml version="1.0" encoding="utf-8"?>
<!-- Generator: Adobe Illustrator 23.0.6, SVG Export Plug-In . SVG Version: 6.00 Build 0)  -->
<svg version="1.1" id="Layer_1" xmlns="http://www.w3.org/2000/svg" xmlns:xlink="http://www.w3.org/1999/xlink" x="0px" y="0px"
	 viewBox="0 0 231 48" style="enable-background:new 0 0 231 48;" xml:space="preserve">
<style type="text/css">
	.st0{fill:#FFFFFF;}
	.st1{fill-rule:evenodd;clip-rule:evenodd;fill:#FFFFFF;}
</style>
<path class="st0" d="M4,25.7c0-0.3,0.3-0.3,0.4-0.1c0.2,0.4,0.5,0.8,0.9,1.1c0.2,0.1,0.3,0.3,0.5,0.4c0,0,0,0,0,0
	c0.2,0.1,0.4,0.3,0.6,0.4c0,0,0,0,0,0c0.2,0.1,0.5,0.3,0.7,0.4c0,0,0,0,0,0c0.2,0.1,0.5,0.3,0.8,0.4c0,0,0,0,0,0
	c0.3,0.1,0.5,0.2,0.8,0.3c0,0,0,0,0,0c0.3,0.1,0.6,0.2,0.9,0.3c0,0,0,0,0,0c0.3,0.1,0.6,0.2,1,0.3c0,0,0,0,0,0
	c0.2,0,0.3,0.1,0.5,0.1c0,0,0,0,0,0c0.2,0,0.3,0.1,0.5,0.1c0,0,0,0,0.1,0c0.2,0,0.3,0.1,0.5,0.1c0,0,0,0,0,0c0.2,0,0.3,0.1,0.5,0.1
	c0,0,0,0,0.1,0c0.2,0,0.4,0.1,0.5,0.1c0,0,0,0,0.1,0c0.2,0,0.3,0.1,0.5,0.1c0,0,0,0,0.1,0c0.2,0,0.4,0.1,0.5,0.1c0,0,0.1,0,0.1,0
	c0.2,0,0.3,0.1,0.5,0.1c0,0,0,0,0.1,0c0.2,0,0.4,0.1,0.6,0.1c0,0,0.1,0,0.1,0c0.2,0,0.3,0,0.5,0.1c0,0,0,0,0.1,0
	c0.2,0,0.4,0,0.6,0.1c0,0,0.1,0,0.1,0c0.2,0,0.4,0,0.5,0c0,0,0,0,0.1,0c0.2,0,0.4,0,0.6,0c0,0,0.1,0,0.1,0c0.2,0,0.4,0,0.6,0
	c0,0,0,0,0.1,0c0.2,0,0.4,0,0.6,0c0,0,0.1,0,0.1,0c0.2,0,0.4,0,0.6,0h0c0.2,0,0.4,0,0.6,0c0,0,0.1,0,0.2,0h0c0.3,0,0.6,0.3,0.6,0.7
	v2.4c0,0.4,0.3,0.7,0.6,0.7c6.6-0.1,12.3-1.4,15.2-3.4l0,0c0.8,0.6,1.2,1.2,1.2,1.8c0,2.2-6.2,5.2-16.4,5.4c-0.3,0-0.6,0.3-0.6,0.7
	v2.4c0,0.4-0.3,0.7-0.6,0.7C11.7,41.9,4,39,4,35.6v-2.3c0-0.3,0.3-0.3,0.4-0.1c0.2,0.4,0.5,0.8,0.9,1.1c0.2,0.1,0.3,0.3,0.5,0.4
	c0,0,0,0,0,0c0.2,0.1,0.4,0.3,0.6,0.4c0,0,0,0,0,0c0.2,0.1,0.5,0.3,0.7,0.4c0,0,0,0,0,0c0.2,0.1,0.5,0.3,0.8,0.4c0,0,0,0,0,0
	c0.3,0.1,0.5,0.2,0.8,0.3c0,0,0,0,0,0c0.3,0.1,0.6,0.2,0.9,0.3c0,0,0,0,0,0c0.3,0.1,0.6,0.2,1,0.3c0,0,0,0,0,0
	c0.2,0,0.3,0.1,0.5,0.1c0,0,0,0,0,0c0.2,0,0.3,0.1,0.5,0.1c0,0,0,0,0.1,0c0.2,0,0.3,0.1,0.5,0.1c0,0,0,0,0,0c0.2,0,0.3,0.1,0.5,0.1
	c0,0,0,0,0.1,0c0.2,0,0.4,0.1,0.5,0.1c0,0,0,0,0.1,0c0.2,0,0.3,0.1,0.5,0.1c0,0,0,0,0.1,0c0.2,0,0.4,0.1,0.5,0.1c0,0,0.1,0,0.1,0
	c0.2,0,0.3,0.1,0.5,0.1c0,0,0,0,0.1,0c0.2,0,0.4,0.1,0.6,0.1c0,0,0.1,0,0.1,0c0.2,0,0.3,0,0.5,0.1c0,0,0,0,0.1,0
	c0.2,0,0.4,0,0.6,0.1c0,0,0.1,0,0.1,0c0.2,0,0.4,0,0.5,0c0,0,0,0,0.1,0c0.2,0,0.4,0,0.6,0c0,0,0.1,0,0.1,0c0.2,0,0.4,0,0.6,0
	c0,0,0,0,0.1,0c0.2,0,0.4,0,0.6,0c0,0,0.1,0,0.1,0c0.2,0,0.4,0,0.6,0h0c0.2,0,0.4,0,0.6,0c0,0,0.1,0,0.2,0h0c0.3,0,0.6-0.3,0.6-0.7
	v-2.4c0-0.4-0.3-0.7-0.6-0.7C11.7,34.4,4,31.5,4,28V25.7z"/>
<path class="st0" d="M59.5,11.7c4.7,0,8,2.4,8,7.8h-3.9c0-3.3-1.3-4.3-4.1-4.3h-0.2c-2.3,0-3.5,0.9-3.5,3c0,2.4,2.1,3.2,4.5,3.9
	c4.4,1.4,7.8,3.1,7.8,7.5c0,4.6-3.3,6.8-8.1,6.8h-0.2c-4.9,0-8.3-2.4-8.3-7.7h3.9c0,3.3,1.4,4.2,4.4,4.2H60c2.9,0,4.3-0.9,4.3-3.3
	c0-2.8-3.3-3.4-5.9-4.3c-4.1-1.4-6.5-3.3-6.4-7.1c0.1-4.3,3.3-6.5,7.4-6.5H59.5z"/>
<path class="st0" d="M99.4,11.7c4.8,0,8.2,2.9,8.2,8.8h-3.9c0-4-1.3-5.3-4.3-5.3h-0.2c-2.9,0-4.3,1.3-4.3,5.3v7.1
	c0,4,1.3,5.3,4.3,5.3h0.2c2.9,0,4.3-1.3,4.3-5.3h3.9c0,5.9-3.4,8.8-8.2,8.8h-0.2c-4.8,0-8.2-2.9-8.2-8.8v-7.1c0-5.9,3.4-8.8,8.2-8.8
	H99.4z"/>
<path class="st0" d="M116.3,28.2c0,3.5,1.1,4.6,4,4.6h0.2c2.9,0,4-1.2,4-4.6V12h3.9v16.2c0,5.3-3.1,8.2-7.9,8.2h-0.2
	c-4.8,0-7.9-2.8-7.9-8.2V12h3.9V28.2z"/>
<path class="st0" d="M87.4,15.6H76.6v6.5h8v3.6h-8v6.6h10.8V36H72.7V12h14.7V15.6z"/>
<path class="st1" d="M142.2,12c5.2,0,7.8,2.5,7.8,7.5v0.1c0,4.1-1.8,6.5-5.2,7.3v0.3l5.3,8.7h-4.3l-5.3-8.8H138V36h-3.9V12H142.2z
	 M138,23.6h4.2c3.2,0,4-1.1,4-3.9v-0.1c0-2.9-0.8-3.9-4-3.9H138V23.6z"/>
<path class="st0" d="M158.6,36h-3.9V12h3.9V36z"/>
<path class="st0" d="M187.1,36h-3.9V12h3.9V36z"/>
<path class="st0" d="M207.3,15.3L196.5,32v0.4h10.9V36h-15.5v-3.2L202.7,16v-0.4h-10.2V12h14.8V15.3z"/>
<path class="st0" d="M227,15.6h-10.8v6.5h8v3.6h-8v6.6H227V36h-14.7V12H227V15.6z"/>
<path class="st0" d="M179.3,15.6h-6.5V36h-3.9V17.7l1.5-1.5c0.2-0.2,0.1-0.6-0.2-0.6h-7.8V12h16.9V15.6z"/>
<path class="st0" d="M4,16.6c0-0.3,0.3-0.4,0.4-0.1c0.2,0.4,0.5,0.8,0.9,1.1c0.2,0.1,0.3,0.3,0.5,0.4c0,0,0,0,0,0
	c0.2,0.1,0.4,0.3,0.6,0.4c0,0,0,0,0,0c0.2,0.1,0.5,0.3,0.7,0.4c0,0,0,0,0,0c0.2,0.1,0.5,0.3,0.8,0.4c0,0,0,0,0,0
	c0.3,0.1,0.5,0.2,0.8,0.3c0,0,0,0,0,0c0.3,0.1,0.6,0.2,0.9,0.3c0,0,0,0,0,0c0.3,0.1,0.6,0.2,1,0.3c0,0,0,0,0,0
	c0.2,0,0.3,0.1,0.5,0.1c0,0,0,0,0,0c0.2,0,0.3,0.1,0.5,0.1c0,0,0,0,0.1,0c0.2,0,0.3,0.1,0.5,0.1c0,0,0,0,0,0c0.2,0,0.3,0.1,0.5,0.1
	c0,0,0,0,0.1,0c0.2,0,0.4,0.1,0.5,0.1c0,0,0,0,0.1,0c0.2,0,0.3,0.1,0.5,0.1c0,0,0,0,0.1,0c0.2,0,0.4,0.1,0.5,0.1c0,0,0.1,0,0.1,0
	c0.2,0,0.3,0.1,0.5,0.1c0,0,0.1,0,0.1,0c0.2,0,0.4,0.1,0.6,0.1c0,0,0.1,0,0.1,0c0.2,0,0.3,0,0.5,0.1c0,0,0.1,0,0.1,0
	c0.2,0,0.4,0,0.6,0.1c0,0,0.1,0,0.1,0c0.2,0,0.4,0,0.5,0c0,0,0,0,0.1,0c0.2,0,0.4,0,0.6,0c0,0,0.1,0,0.1,0c0.2,0,0.4,0,0.6,0
	c0,0,0,0,0.1,0c0.2,0,0.4,0,0.6,0c0,0,0.1,0,0.1,0c0.2,0,0.4,0,0.6,0h0c0.2,0,0.4,0,0.6,0c0,0,0.1,0,0.2,0c0.2,0,0.4,0,0.6,0h0.3
	l0,0C32,21.6,40,24.5,40,28v3.4c0,0.3-0.3,0.4-0.4,0.1c-0.2-0.4-0.5-0.8-0.9-1.1c-0.2-0.1-0.3-0.3-0.5-0.4c0,0,0,0,0,0
	c-0.2-0.1-0.4-0.3-0.6-0.4c0,0,0,0,0,0c-0.2-0.1-0.5-0.3-0.7-0.4c0,0,0,0,0,0c-0.2-0.1-0.5-0.3-0.8-0.4c0,0,0,0,0,0
	c-0.3-0.1-0.5-0.2-0.8-0.3c0,0,0,0,0,0c-0.3-0.1-0.6-0.2-0.9-0.3c0,0,0,0,0,0c-0.3-0.1-0.6-0.2-1-0.3c0,0,0,0,0,0
	c-0.2,0-0.3-0.1-0.5-0.1c0,0,0,0,0,0c-0.2,0-0.3-0.1-0.5-0.1c0,0,0,0-0.1,0c-0.2,0-0.3-0.1-0.5-0.1c0,0,0,0,0,0
	c-0.2,0-0.3-0.1-0.5-0.1c0,0,0,0-0.1,0c-0.2,0-0.4-0.1-0.5-0.1c0,0,0,0-0.1,0c-0.2,0-0.3-0.1-0.5-0.1c0,0,0,0-0.1,0
	c-0.2,0-0.4-0.1-0.5-0.1c0,0-0.1,0-0.1,0c-0.2,0-0.3-0.1-0.5-0.1c0,0,0,0-0.1,0c-0.2,0-0.4-0.1-0.6-0.1c0,0-0.1,0-0.1,0
	c-0.2,0-0.3,0-0.5-0.1c0,0,0,0-0.1,0c-0.2,0-0.4,0-0.6-0.1c0,0-0.1,0-0.1,0c-0.2,0-0.4,0-0.5,0c0,0,0,0-0.1,0c-0.2,0-0.4,0-0.6,0
	c0,0-0.1,0-0.1,0c-0.2,0-0.4,0-0.6,0c0,0,0,0-0.1,0c-0.2,0-0.4,0-0.6,0c0,0-0.1,0-0.1,0c-0.2,0-0.4,0-0.6,0h0c-0.2,0-0.4,0-0.6,0
	c0,0-0.1,0-0.2,0c-0.2,0-0.4,0-0.6,0v0C12,26.4,4,23.5,4,20V16.6z"/>
<path class="st0" d="M22.6,6C32.3,6.1,40,9,40,12.4v2.3c0,0.3-0.3,0.4-0.4,0.1c-0.2-0.4-0.5-0.8-0.9-1.1c-0.2-0.1-0.3-0.3-0.5-0.4
	c0,0,0,0,0,0c-0.2-0.1-0.4-0.3-0.6-0.4c0,0,0,0,0,0c-0.2-0.1-0.5-0.3-0.7-0.4c0,0,0,0,0,0c-0.2-0.1-0.5-0.3-0.8-0.4c0,0,0,0,0,0
	c-0.3-0.1-0.5-0.2-0.8-0.3c0,0,0,0,0,0c-0.3-0.1-0.6-0.2-0.9-0.3c0,0,0,0,0,0c-0.3-0.1-0.6-0.2-1-0.3c0,0,0,0,0,0
	c-0.2,0-0.3-0.1-0.5-0.1c0,0,0,0,0,0c-0.2,0-0.3-0.1-0.5-0.1c0,0,0,0-0.1,0c-0.2,0-0.3-0.1-0.5-0.1c0,0,0,0,0,0
	c-0.2,0-0.3-0.1-0.5-0.1c0,0,0,0-0.1,0c-0.2,0-0.4-0.1-0.5-0.1c0,0,0,0-0.1,0c-0.2,0-0.3-0.1-0.5-0.1c0,0,0,0-0.1,0
	c-0.2,0-0.4-0.1-0.5-0.1c0,0-0.1,0-0.1,0c-0.2,0-0.3-0.1-0.5-0.1c0,0,0,0-0.1,0c-0.2,0-0.4-0.1-0.6-0.1c0,0-0.1,0-0.1,0
	c-0.2,0-0.3,0-0.5-0.1c0,0-0.1,0-0.1,0c-0.2,0-0.4,0-0.6-0.1c0,0-0.1,0-0.1,0c-0.2,0-0.4,0-0.5,0c0,0,0,0-0.1,0c-0.2,0-0.4,0-0.6,0
	c0,0-0.1,0-0.1,0c-0.2,0-0.4,0-0.6,0c0,0,0,0-0.1,0c-0.2,0-0.4,0-0.6,0c0,0-0.1,0-0.1,0c-0.2,0-0.4,0-0.6,0h0c-0.2,0-0.4,0-0.6,0
	c0,0-0.1,0-0.2,0h0c-0.3,0-0.6,0.3-0.6,0.7v2.4c0,0.4,0.3,0.7,0.6,0.7c9.6,0.1,17.4,3,17.4,6.4v2.3c0,0.3-0.3,0.4-0.4,0.1
	c-0.2-0.4-0.5-0.8-0.9-1.1c-0.2-0.1-0.3-0.3-0.5-0.4c0,0,0,0,0,0c-0.2-0.1-0.4-0.3-0.6-0.4c0,0,0,0,0,0c-0.2-0.1-0.5-0.3-0.7-0.4
	c0,0,0,0,0,0c-0.2-0.1-0.5-0.3-0.8-0.4c0,0,0,0,0,0c-0.3-0.1-0.5-0.2-0.8-0.3c0,0,0,0,0,0c-0.3-0.1-0.6-0.2-0.9-0.3c0,0,0,0,0,0
	c-0.3-0.1-0.6-0.2-1-0.3c0,0,0,0,0,0c-0.2,0-0.3-0.1-0.5-0.1c0,0,0,0,0,0c-0.2,0-0.3-0.1-0.5-0.1c0,0,0,0-0.1,0
	c-0.2,0-0.3-0.1-0.5-0.1c0,0,0,0,0,0c-0.2,0-0.3-0.1-0.5-0.1c0,0,0,0-0.1,0c-0.2,0-0.4-0.1-0.5-0.1c0,0,0,0-0.1,0
	c-0.2,0-0.3-0.1-0.5-0.1c0,0,0,0-0.1,0c-0.2,0-0.4-0.1-0.5-0.1c0,0-0.1,0-0.1,0c-0.2,0-0.3-0.1-0.5-0.1c0,0-0.1,0-0.1,0
	c-0.2,0-0.4-0.1-0.6-0.1c0,0-0.1,0-0.1,0c-0.2,0-0.3,0-0.5-0.1c0,0,0,0-0.1,0c-0.2,0-0.4,0-0.6-0.1c0,0-0.1,0-0.1,0
	c-0.2,0-0.4,0-0.5,0c0,0,0,0-0.1,0c-0.2,0-0.4,0-0.6,0c0,0-0.1,0-0.1,0c-0.2,0-0.4,0-0.6,0c0,0,0,0-0.1,0c-0.2,0-0.4,0-0.6,0
	c0,0-0.1,0-0.1,0c-0.2,0-0.4,0-0.6,0h0c-0.2,0-0.4,0-0.6,0c0,0-0.1,0-0.2,0h0c-0.3,0-0.6-0.3-0.6-0.7v-2.4c0-0.4-0.3-0.7-0.6-0.7
	C14.8,13.6,9.1,15,6.2,16.9C5.4,16.3,5,15.7,5,15.1c0-2.2,6.2-5.2,16.4-5.4c0.3,0,0.6-0.3,0.6-0.7V6.7C22,6.3,22.3,6,22.6,6z"/>
</svg>
