<svg xmlns="http://www.w3.org/2000/svg" fill="none" viewBox="0 0 231 48" height="48" width="231">
<path fill="black" d="M4.00334 25.7315C4.00339 25.4682 4.32628 25.3823 4.44616 25.6115C4.64593 25.991 4.92224 26.3867 5.31179 26.7018C5.47824 26.8485 5.65978 26.9936 5.85452 27.1349C5.85695 27.1362 5.85786 27.1369 5.85786 27.1369C6.05263 27.2784 6.26082 27.4161 6.48223 27.5505C6.48389 27.5523 6.48726 27.554 6.48891 27.554C6.71032 27.6881 6.94345 27.819 7.18984 27.9462C7.19477 27.9479 7.19813 27.9496 7.20143 27.9514C7.44781 28.0784 7.70414 28.2021 7.97382 28.322C7.98047 28.3238 7.98561 28.3274 7.99226 28.3292C8.26027 28.4474 8.53998 28.5637 8.82962 28.6747C8.83792 28.6765 8.84625 28.68 8.85455 28.6836C9.14257 28.7946 9.44232 28.9002 9.75196 29.0042C9.76358 29.0095 9.77528 29.0132 9.7869 29.0168C10.0932 29.1188 10.4112 29.2155 10.7375 29.3103C10.7541 29.3139 10.7691 29.3192 10.784 29.3228C10.9489 29.3693 11.1137 29.4158 11.2818 29.4606C11.2868 29.4624 11.2902 29.4641 11.2952 29.4641C11.4566 29.5071 11.6214 29.5484 11.7879 29.5895C11.8062 29.5931 11.8229 29.5986 11.8412 29.6022C12.0127 29.6434 12.1843 29.6845 12.359 29.7239C12.3707 29.7275 12.384 29.7293 12.3973 29.7327C12.5604 29.7686 12.7253 29.8044 12.8918 29.8402C12.9134 29.8438 12.9333 29.849 12.955 29.8526C13.1314 29.8902 13.3079 29.9261 13.4877 29.9601C13.5093 29.9637 13.531 29.969 13.5527 29.9726C13.7174 30.0032 13.8823 30.0335 14.0504 30.0639C14.0737 30.0675 14.097 30.073 14.1203 30.0766C14.3017 30.1088 14.4832 30.1391 14.668 30.1677C14.6979 30.1731 14.7263 30.1767 14.7563 30.1821C14.9244 30.2089 15.0909 30.234 15.2607 30.259C15.2857 30.2626 15.3106 30.2663 15.3355 30.2699C15.5203 30.2967 15.7086 30.3219 15.8967 30.3469C15.9316 30.3505 15.9682 30.3541 16.0031 30.3595C16.1746 30.3809 16.3462 30.4022 16.5193 30.422C16.5443 30.4256 16.5692 30.4274 16.5941 30.431C16.7839 30.4524 16.9755 30.4722 17.1686 30.4918C17.2086 30.4971 17.2501 30.5008 17.2917 30.5044C17.4682 30.5222 17.6447 30.5385 17.8229 30.5529C17.8445 30.5547 17.8677 30.5564 17.891 30.5581C18.0858 30.5742 18.2823 30.5885 18.4804 30.6028C18.5254 30.6064 18.5703 30.6081 18.6153 30.6117C18.7984 30.6243 18.9832 30.6352 19.1696 30.6458C19.1879 30.6476 19.2062 30.6493 19.2246 30.6493C19.4243 30.6601 19.6257 30.6691 19.8272 30.6781C19.8754 30.6797 19.9237 30.6816 19.972 30.6834C20.1651 30.6906 20.36 30.6978 20.5548 30.7032H20.5913C20.7961 30.7086 21.001 30.7121 21.2074 30.7157C21.2573 30.7175 21.3089 30.7174 21.3588 30.7174H21.3739C21.7118 30.7209 21.9847 31.0183 21.9847 31.3817V33.8075C21.9848 34.1763 22.2647 34.4751 22.6075 34.4717C29.1818 34.3911 34.8587 33.0448 37.8054 31.0915L37.8005 31.1079C38.5595 31.7128 38.9574 32.3234 38.9574 32.8802C38.9574 35.0786 32.7477 38.1293 22.5891 38.2474C22.2511 38.251 21.9798 38.5482 21.9798 38.9117V41.3394C21.9798 41.7081 21.6968 42.0036 21.3539 42C11.7147 41.8818 4.00013 39.0425 4 35.5585V33.2472C4.00005 32.984 4.32295 32.898 4.44282 33.1273C4.64259 33.5067 4.91891 33.9025 5.30845 34.2176C5.47491 34.3643 5.65645 34.5094 5.85118 34.6507C5.85366 34.652 5.85452 34.6526 5.85452 34.6526C6.04931 34.794 6.25748 34.9319 6.4789 35.0662C6.48056 35.0679 6.4839 35.0696 6.48557 35.0696C6.70699 35.2039 6.94011 35.3348 7.1865 35.4618C7.19142 35.4635 7.19479 35.4652 7.19809 35.467C7.44445 35.5942 7.70081 35.7178 7.97049 35.8378C7.97713 35.8396 7.98227 35.8432 7.98892 35.845C8.25694 35.9631 8.53664 36.0795 8.82628 36.1905C8.83459 36.1923 8.84291 36.1958 8.85122 36.1994C9.13923 36.3104 9.43896 36.416 9.74863 36.5199C9.76025 36.5253 9.77194 36.5288 9.78357 36.5322C10.0899 36.6344 10.4079 36.7311 10.7342 36.8261C10.7508 36.8297 10.7658 36.8349 10.7807 36.8385C10.9455 36.8849 11.1103 36.9316 11.2785 36.9764C11.2835 36.9782 11.2868 36.9799 11.2918 36.9799C11.4533 37.0229 11.6181 37.0641 11.7845 37.1053C11.8028 37.1089 11.8196 37.1144 11.8379 37.118C12.0094 37.1591 12.1809 37.2003 12.3557 37.2397C12.3673 37.2431 12.3807 37.2449 12.394 37.2485C12.5571 37.2842 12.722 37.32 12.8884 37.3559C12.91 37.3594 12.93 37.3648 12.9516 37.3684C13.1281 37.406 13.3046 37.4417 13.4844 37.4759C13.506 37.4793 13.5277 37.4848 13.5493 37.4884C13.7141 37.5188 13.879 37.5493 14.0471 37.5797C14.0704 37.5833 14.0937 37.5887 14.117 37.5923C14.2984 37.6245 14.4799 37.6549 14.6646 37.6835C14.6946 37.6889 14.723 37.6925 14.753 37.6979C14.9211 37.7247 15.0876 37.7498 15.2574 37.7748C15.2823 37.7784 15.3073 37.7821 15.3322 37.7857C15.517 37.8125 15.7052 37.8375 15.8934 37.8626C15.9283 37.8662 15.965 37.8699 16 37.8751C16.1714 37.8967 16.3429 37.918 16.516 37.9378C16.5409 37.9414 16.5659 37.9432 16.5908 37.9468C16.7806 37.9682 16.9722 37.9879 17.1653 38.0075C17.2052 38.0129 17.2468 38.0166 17.2884 38.0202C17.4649 38.038 17.6414 38.0541 17.8195 38.0685C17.8412 38.0701 17.8645 38.0719 17.8878 38.0737C18.0826 38.0899 18.279 38.1043 18.4771 38.1185C18.522 38.1221 18.567 38.1239 18.6119 38.1275C18.795 38.1401 18.9798 38.1508 19.1663 38.1616C19.1846 38.1634 19.2029 38.1651 19.2212 38.1651C19.421 38.1759 19.6224 38.1849 19.8238 38.1937C19.8721 38.1955 19.9204 38.1973 19.9687 38.1991C20.1618 38.2063 20.3567 38.2136 20.5514 38.219H20.588C20.7927 38.2244 20.9977 38.2279 21.2041 38.2313C21.254 38.2331 21.3055 38.233 21.3554 38.233H21.3621C21.7017 38.2366 21.9782 37.9432 21.9782 37.5779V35.1484C21.9782 34.7834 21.7035 34.4878 21.3639 34.4842C11.7214 34.3678 4.00345 31.5285 4.00334 28.0428V25.7315Z"></path>
<path fill="black" d="M59.5188 11.6571C64.2644 11.6571 67.5337 14.0482 67.5337 19.4281H63.6668C63.6668 16.0877 62.4013 15.1734 59.5188 15.1734H59.3076C57.0228 15.1734 55.8275 16.0878 55.8275 18.1272C55.8276 20.5533 57.9367 21.2918 60.3271 22.0302C64.7213 23.4016 68.0963 25.0894 68.0963 29.5549C68.0963 34.1262 64.7917 36.3415 59.9757 36.3415H59.7647C54.8433 36.3415 51.4685 33.9504 51.4685 28.6058H55.3354C55.3354 31.911 56.7064 32.8253 59.7647 32.8254H59.9757C62.8934 32.8253 64.2292 31.9462 64.2292 29.5549C64.2292 26.7421 60.8897 26.1091 58.3235 25.23C54.1754 23.8235 51.8552 21.9599 51.8902 18.1272C51.9606 13.8725 55.1595 11.6571 59.3076 11.6571H59.5188Z"></path>
<path fill="black" d="M99.3633 11.6571C104.144 11.6571 107.519 14.5758 107.519 20.448H103.617C103.617 16.4394 102.281 15.1734 99.3633 15.1734H99.1524C96.2347 15.1734 94.8987 16.4394 94.8987 20.448V27.5508C94.8987 31.5594 96.2346 32.8254 99.1524 32.8254H99.3633C102.281 32.8254 103.617 31.5594 103.617 27.5508H107.519C107.519 33.423 104.144 36.3415 99.3633 36.3415H99.1524C94.3714 36.3415 90.9967 33.423 90.9967 27.5508V20.448C90.9967 14.5758 94.3714 11.6571 99.1524 11.6571H99.3633Z"></path>
<path fill="black" d="M116.262 28.1833C116.262 31.6645 117.317 32.825 120.235 32.825H120.446C123.363 32.825 124.418 31.6645 124.418 28.1833V12.0084H128.32V28.1833C128.32 33.5281 125.227 36.3411 120.446 36.3411H120.235C115.454 36.3411 112.36 33.5281 112.36 28.1833V12.0084H116.262V28.1833Z"></path>
<path fill="black" d="M87.3807 15.6302H76.5533V22.1352H84.5684V25.722H76.5533V32.3678H87.3807V35.9895H72.6513V12.0084H87.3807V15.6302Z"></path>
<path fill="black" d="M142.186 12.0084C147.353 12.0084 150.025 14.505 150.025 19.5333V19.6739C150.025 23.788 148.232 26.1791 144.787 26.9526V27.2691L150.096 35.9895H145.772L140.498 27.1989H138.003V35.9895H134.101V12.0084H142.186ZM138.003 23.6121H142.186C145.35 23.6121 146.193 22.5221 146.193 19.6739V19.5333C146.193 16.6499 145.35 15.6302 142.186 15.6302H138.003V23.6121Z" clip-rule="evenodd" fill-rule="evenodd"></path>
<path fill="black" d="M158.567 35.9895H154.665V12.0084H158.567V35.9895Z"></path>
<path fill="black" d="M187.061 35.9895H183.159V12.0084H187.061V35.9895Z"></path>
<path fill="black" d="M207.28 15.3137L196.522 32.0162V32.3678H207.456V35.9895H191.918V32.7897L202.709 15.9818V15.6302H192.515V12.0084H207.28V15.3137Z"></path>
<path fill="black" d="M227 15.6302H216.173V22.1352H224.186V25.722H216.173V32.3678H227V35.9895H212.269V12.0084H227V15.6302Z"></path>
<path fill="black" d="M179.314 15.63H172.811V35.9892H168.944V17.7093L170.489 16.1959C170.7 15.9891 170.554 15.6301 170.258 15.63H162.441V12.0084H179.314V15.63Z"></path>
<path fill="black" d="M4 16.5865C4.00003 16.327 4.32303 16.2357 4.44124 16.4631C4.63934 16.8426 4.9173 17.2418 5.30845 17.5587C5.47492 17.7054 5.65643 17.8505 5.85118 17.9919C5.85263 17.9935 5.85452 17.9937 5.85452 17.9937C6.04931 18.1351 6.25748 18.273 6.4789 18.4073C6.48221 18.4091 6.48392 18.4108 6.48557 18.4108C6.70531 18.5451 6.94011 18.6759 7.1865 18.803C7.19143 18.8048 7.19479 18.8065 7.19809 18.8083C7.44444 18.9354 7.70082 19.0589 7.97049 19.1788C7.97713 19.1806 7.98227 19.1842 7.98892 19.186C8.25694 19.3042 8.53663 19.4205 8.82628 19.5315C8.83459 19.5333 8.84291 19.5369 8.85122 19.5405C9.13923 19.6515 9.43896 19.7572 9.74863 19.861C9.76026 19.8664 9.77194 19.8699 9.78357 19.8735C10.0899 19.9755 10.4079 20.0722 10.7342 20.1671C10.7508 20.1707 10.7658 20.1762 10.7807 20.1798C10.9438 20.2263 11.1104 20.2727 11.2785 20.3175C11.2835 20.3192 11.2868 20.3211 11.2918 20.3211C11.4549 20.3641 11.6181 20.4052 11.7845 20.4464C11.8028 20.45 11.8196 20.4554 11.8379 20.459C12.0094 20.5002 12.1809 20.5413 12.3557 20.5807C12.3673 20.5843 12.3807 20.5861 12.394 20.5897C12.5571 20.6255 12.722 20.6614 12.8884 20.6972C12.91 20.7008 12.93 20.7061 12.9516 20.7096C13.1281 20.7472 13.3046 20.7829 13.4844 20.817C13.506 20.8205 13.5277 20.826 13.5493 20.8296C13.7141 20.86 13.879 20.8905 14.0471 20.9209C14.0704 20.9245 14.0937 20.9298 14.117 20.9334C14.2984 20.9656 14.4799 20.9961 14.6646 21.0247C14.6946 21.0301 14.723 21.0336 14.753 21.039C14.9211 21.0658 15.0876 21.091 15.2574 21.1161C15.284 21.1196 15.309 21.1232 15.334 21.1268C15.5187 21.1536 15.7069 21.1786 15.895 21.2037C15.9299 21.2073 15.9666 21.211 16.0015 21.2163C16.173 21.2378 16.3445 21.2592 16.5176 21.2789C16.5425 21.2825 16.5676 21.2842 16.5925 21.2878C16.7823 21.3093 16.9738 21.3291 17.1669 21.3488C17.2068 21.3541 17.2485 21.3576 17.2901 21.3612C17.4666 21.3791 17.643 21.3954 17.8211 21.4097C17.8428 21.4115 17.8661 21.4132 17.8894 21.415C18.0842 21.4311 18.2806 21.4454 18.4787 21.4598C18.5236 21.4633 18.5686 21.4651 18.6135 21.4687C18.7966 21.4813 18.9815 21.4921 19.168 21.5028C19.1846 21.5046 19.2029 21.5063 19.2212 21.5063C19.421 21.517 19.6224 21.526 19.8238 21.5349C19.8721 21.5367 19.9204 21.5386 19.9687 21.5404C20.1618 21.5475 20.3567 21.5547 20.5514 21.56H20.588C20.7927 21.5654 20.9977 21.5689 21.2041 21.5725C21.254 21.5743 21.3055 21.5743 21.3554 21.5743C21.5469 21.5779 21.7402 21.578 21.9333 21.578H22.233L22.2311 21.5815C32.0467 21.6298 39.9611 24.4961 39.9612 28.0248V31.4121C39.9612 31.6716 39.6383 31.763 39.5202 31.5357C39.322 31.1544 39.044 30.757 38.6528 30.4401C38.4863 30.2932 38.3049 30.1482 38.11 30.0068C38.1068 30.0051 38.1067 30.0049 38.1067 30.0049C37.9118 29.8634 37.7038 29.7256 37.4823 29.5913C37.4807 29.5895 37.4774 29.5878 37.4757 29.5878C37.2543 29.4536 37.0214 29.3227 36.7749 29.1956C36.7699 29.1938 36.7665 29.1921 36.7631 29.1903C36.5168 29.0634 36.2604 28.9397 35.9907 28.8197C35.9841 28.818 35.9791 28.8144 35.9725 28.8125C35.7046 28.6944 35.4248 28.578 35.1351 28.4671C35.1268 28.4653 35.1183 28.4617 35.11 28.4581C34.822 28.3472 34.5223 28.2414 34.2128 28.1376C34.2011 28.1322 34.1895 28.1287 34.1778 28.1251C33.8715 28.0232 33.5535 27.9263 33.2272 27.8315C33.2121 27.8279 33.1956 27.8226 33.1807 27.819C33.0158 27.7724 32.8508 27.7257 32.6827 27.681C32.6778 27.6794 32.6745 27.6776 32.6696 27.6776C32.5081 27.6346 32.3432 27.5934 32.1767 27.5522C32.1584 27.5486 32.1418 27.5432 32.1235 27.5396C31.952 27.4984 31.7804 27.4572 31.6057 27.4179C31.594 27.4143 31.5807 27.4125 31.5674 27.4089C31.4044 27.3731 31.2394 27.3374 31.073 27.3016C31.0514 27.298 31.0313 27.2925 31.0096 27.289C30.8332 27.2514 30.6567 27.2156 30.4769 27.1816C30.4553 27.178 30.4337 27.1726 30.4119 27.169C30.2472 27.1386 30.0824 27.1082 29.9143 27.0778C29.8909 27.0742 29.8678 27.0688 29.8444 27.0652C29.663 27.033 29.4812 27.0026 29.2966 26.9739C29.2666 26.9685 29.2384 26.965 29.2084 26.9596C29.042 26.9327 28.8737 26.9077 28.7038 26.8827C28.6788 26.8791 28.654 26.8754 28.629 26.8718C28.4442 26.845 28.2561 26.8199 28.0679 26.7949C28.033 26.7913 27.9963 26.7876 27.9614 26.7823C27.7899 26.7609 27.6184 26.7393 27.4452 26.7197C27.4204 26.7161 27.3954 26.7144 27.3704 26.7108C27.1806 26.6894 26.9892 26.6696 26.7961 26.65C26.7546 26.6446 26.7145 26.641 26.6728 26.6374C26.4965 26.6194 26.3199 26.6034 26.1417 26.5891C26.1201 26.5873 26.0967 26.5854 26.0736 26.5836C25.8787 26.5676 25.6824 26.5532 25.4843 26.5388C25.4394 26.5352 25.3944 26.5335 25.3495 26.5301C25.1663 26.5175 24.9816 26.5066 24.7951 26.4958C24.7768 26.4942 24.7583 26.4925 24.74 26.4925C24.5403 26.4817 24.3389 26.4727 24.1374 26.4637C24.0892 26.4619 24.0407 26.46 23.9925 26.4582C23.7995 26.4512 23.6046 26.4441 23.41 26.4387H23.3733C23.1685 26.4333 22.9637 26.4297 22.7573 26.4261C22.7075 26.4243 22.6558 26.4243 22.6058 26.4243C22.3976 26.4207 22.1896 26.4189 21.9798 26.4171V26.4189C12.0493 26.4189 4 23.5329 4 19.9738V16.5865Z"></path>
<path fill="black" d="M22.6126 6.00003C32.2518 6.11819 39.9666 8.9577 39.9667 12.4416V14.7547C39.9667 15.0161 39.6438 15.1074 39.5254 14.8801C39.3273 14.4988 39.0493 14.1012 38.658 13.7843C38.4916 13.6375 38.3102 13.4925 38.1155 13.3511C38.1137 13.3493 38.112 13.3493 38.112 13.3493C37.9173 13.2079 37.7091 13.07 37.4878 12.9357C37.4844 12.9339 37.4827 12.9322 37.4811 12.9322C37.2614 12.7979 37.0265 12.6671 36.7802 12.54C36.7752 12.5382 36.7718 12.5365 36.7686 12.5347C36.5221 12.4076 36.2659 12.2841 35.9962 12.1641C35.9894 12.1623 35.9844 12.1587 35.9777 12.1569C35.7097 12.0388 35.4298 11.9225 35.1402 11.8115C35.132 11.8097 35.1237 11.8061 35.1153 11.8025C34.8274 11.6915 34.5276 11.5858 34.218 11.482C34.2064 11.4766 34.1947 11.4731 34.1831 11.4695C33.8767 11.3675 33.5588 11.2708 33.2325 11.1759C33.216 11.1723 33.2008 11.167 33.186 11.1634C33.0211 11.1169 32.8563 11.0703 32.688 11.0255C32.6832 11.0238 32.6797 11.0218 32.6747 11.0218C32.5132 10.9789 32.3486 10.9378 32.1821 10.8966C32.1638 10.893 32.1469 10.8876 32.1286 10.884C31.9573 10.8428 31.7857 10.8016 31.611 10.7623C31.5993 10.7587 31.586 10.7569 31.5727 10.7533C31.4095 10.7175 31.2447 10.6818 31.0782 10.646C31.0565 10.6424 31.0366 10.6369 31.015 10.6333C30.8385 10.5958 30.6621 10.5601 30.4823 10.526C30.4606 10.5225 30.4389 10.517 30.4173 10.5134C30.2525 10.483 30.0876 10.4525 29.9196 10.4221C29.8964 10.4185 29.8729 10.4132 29.8495 10.4096C29.6681 10.3774 29.4867 10.3469 29.3019 10.3183C29.2718 10.3129 29.2436 10.3094 29.2135 10.304C29.0454 10.2772 28.879 10.252 28.7093 10.2269C28.6843 10.2234 28.6593 10.2198 28.6343 10.2162C28.4495 10.1894 28.2614 10.1644 28.0733 10.1393C28.0382 10.1357 28.0018 10.132 27.9667 10.1267C27.7952 10.1052 27.6238 10.0838 27.4507 10.0641C27.4257 10.0606 27.4007 10.0588 27.3757 10.0552C27.186 10.0337 26.9945 10.0139 26.8014 9.99423C26.7613 9.98886 26.7198 9.98534 26.6781 9.98176C26.5017 9.96386 26.3253 9.94779 26.1471 9.93346C26.1254 9.93168 26.1022 9.9298 26.0788 9.92802C25.8841 9.9119 25.6875 9.89755 25.4894 9.88323C25.4445 9.87965 25.3995 9.87785 25.3545 9.87427C25.1715 9.86174 24.9867 9.85111 24.8002 9.84038C24.7819 9.83858 24.7636 9.83669 24.7453 9.83669C24.5455 9.82595 24.344 9.81702 24.1427 9.80806C24.0943 9.80628 24.0461 9.80441 23.9978 9.80262C23.8047 9.79546 23.6099 9.78832 23.415 9.78295H23.3785C23.1738 9.77759 22.969 9.77405 22.7626 9.77048C22.7126 9.76868 22.661 9.76872 22.611 9.76872H22.6044C22.2631 9.76336 21.9851 10.0588 21.9851 10.4258V12.8623C21.9851 13.2257 22.2581 13.5194 22.5961 13.523C32.2418 13.6394 39.963 16.4787 39.9632 19.9644V22.2777C39.9631 22.5372 39.6402 22.6285 39.5221 22.4011C39.324 22.0198 39.0459 21.6223 38.6549 21.3054C38.4884 21.1586 38.3067 21.0137 38.112 20.8723C38.1105 20.8707 38.1088 20.8703 38.1088 20.8703C37.9139 20.7289 37.7058 20.5912 37.4843 20.4569C37.481 20.4551 37.4794 20.4532 37.4776 20.4532C37.2579 20.319 37.0231 20.1883 36.7768 20.0612C36.7718 20.0594 36.7685 20.0576 36.7651 20.0558C36.5188 19.9287 36.2623 19.8051 35.9927 19.6852C35.9861 19.6834 35.981 19.6798 35.9744 19.678C35.7063 19.5598 35.4267 19.4435 35.137 19.3325C35.1286 19.3307 35.1204 19.3271 35.1121 19.3236C34.8241 19.2126 34.5243 19.1069 34.2147 19.003C34.203 18.9977 34.1914 18.9941 34.1798 18.9906C33.8734 18.8885 33.5553 18.7918 33.2291 18.6969C33.2125 18.6933 33.1975 18.688 33.1824 18.6844C33.0178 18.6379 32.8529 18.5913 32.6848 18.5466C32.6798 18.5448 32.6765 18.5431 32.6715 18.5431C32.51 18.5001 32.3451 18.4588 32.1786 18.4177C32.1603 18.4141 32.1438 18.4088 32.1254 18.4052C31.9539 18.364 31.7824 18.3229 31.6076 18.2835C31.596 18.2799 31.5826 18.2781 31.5694 18.2745C31.4063 18.2387 31.2414 18.2028 31.0749 18.167C31.0533 18.1635 31.0333 18.1582 31.0115 18.1546C30.8352 18.117 30.6586 18.0811 30.4788 18.0471C30.4573 18.0435 30.4357 18.0382 30.414 18.0346C30.2493 18.0042 30.0843 17.9737 29.9162 17.9433C29.8929 17.9397 29.8695 17.9342 29.8463 17.9306C29.665 17.8984 29.4833 17.8681 29.2987 17.8395C29.2687 17.8341 29.2402 17.8304 29.2104 17.8251C29.0423 17.7982 28.8758 17.7732 28.7059 17.7482C28.681 17.7446 28.6559 17.741 28.6311 17.7374C28.4463 17.7106 28.2582 17.6854 28.07 17.6603C28.0351 17.6567 27.9983 17.6532 27.9634 17.6479C27.7919 17.6264 27.6204 17.6049 27.4473 17.5852C27.4224 17.5816 27.3973 17.5798 27.3725 17.5762C27.1827 17.5547 26.9911 17.5351 26.798 17.5154C26.7581 17.5101 26.7163 17.5064 26.6748 17.5028C26.4983 17.4849 26.3219 17.4688 26.1438 17.4545C26.1222 17.4527 26.0987 17.4509 26.0755 17.4491C25.8806 17.4329 25.6843 17.4188 25.4862 17.4044C25.4413 17.4009 25.3963 17.3991 25.3514 17.3955C25.1682 17.383 24.9835 17.3722 24.7971 17.3614C24.7787 17.3596 24.7603 17.3579 24.7419 17.3579C24.5422 17.3472 24.3407 17.3381 24.1393 17.3291C24.0912 17.3273 24.0428 17.3256 23.9946 17.3238C23.8014 17.3167 23.6066 17.3095 23.4119 17.3042H23.3752C23.1704 17.2988 22.9656 17.2951 22.7592 17.2915C22.7093 17.2897 22.6577 17.2898 22.6079 17.2898H22.5928C22.2549 17.2862 21.9818 16.989 21.9818 16.6255V14.1925C21.9817 13.8273 21.7037 13.5284 21.3625 13.532C14.7849 13.6125 9.10632 14.9588 6.15793 16.912C5.39883 16.3069 5.00086 15.6964 5.00083 15.1397C5.00091 12.9412 11.2139 9.89036 21.3807 9.75607C21.717 9.75249 21.9868 9.45717 21.9868 9.09553V6.66076C21.9869 6.29199 22.2698 5.99648 22.6126 6.00003Z"></path>
</svg>
