<?xml version="1.0" encoding="utf-8"?>
<!-- Generator: Adobe Illustrator 23.0.6, SVG Export Plug-In . SVG Version: 6.00 Build 0)  -->
<svg version="1.1" id="Layer_1" xmlns="http://www.w3.org/2000/svg" xmlns:xlink="http://www.w3.org/1999/xlink" x="0px" y="0px"
	 viewBox="0 0 110 48" style="enable-background:new 0 0 110 48;" xml:space="preserve">
<style type="text/css">
	.st0{fill:#FFFFFF;}
	.st1{fill-rule:evenodd;clip-rule:evenodd;fill:#FFFFFF;}
</style>
<path class="st0" d="M14.8,35.6c1.7-1.4,4.2-1.3,5.7,0.4c2.7,3,7.3,3.4,10.5,0.9l0.3-0.3c1.7-1.4,4.2-1.3,5.8,0.1
	c-3.5,3.9-8.5,6.3-14.2,6.3c-4.5,0-8.6-1.6-11.9-4.2L14.8,35.6z"/>
<path class="st0" d="M64,14.7c4.6,0,7.6,2.6,7.7,6.5h-3.8c-0.1-2.1-1.5-3.4-3.9-3.4c-2.5,0-3.9,1.1-3.9,3c0,1.4,1,2.4,3.1,2.9
	l3.7,0.9c3.5,0.9,5.3,2.5,5.3,5.6c0,4-3.4,6.5-8.4,6.5c-4.9,0-8-2.6-8-6.6h3.8c0,2.1,1.6,3.4,4.3,3.4c2.8,0,4.4-1.2,4.4-3.1
	c0-1.4-0.7-2.3-2.9-2.8l-3.7-0.9c-3.7-0.9-5.5-2.7-5.5-5.8C56.2,17.1,59.4,14.7,64,14.7z"/>
<path class="st1" d="M86.2,14.7c5.9,0,9.8,4.1,9.8,10.3v1.5l-16.2,0c0.3,4.4,2.6,6.8,6.6,6.8c3.1,0,5.2-1.3,5.9-3.7h3.8
	c-1,4.5-4.5,7-9.7,7c-6.2,0-10.4-4.4-10.4-10.9C76,19.2,80.1,14.7,86.2,14.7z M86.2,18c-3.5,0-5.7,2.1-6.2,5.8H92
	C92,20.3,89.7,18,86.2,18z"/>
<path class="st0" d="M22.9,5c4.9,0,9.3,1.8,12.7,4.9c-1.2,0.3-2.3,0.9-3.3,1.8L32,11.9c-1.6,1.4-4.1,1.3-5.6-0.2
	c-2.9-3-7.6-3.1-10.7-0.2l-4.4,4.2l2.4,2.6l4.4-4.2c1.6-1.5,4.1-1.5,5.7,0.1c2.8,2.9,7.4,3.1,10.5,0.4l0.3-0.3c1.1-1,2.6-1.3,3.9-1
	c2.1,3.1,3.3,6.8,3.3,10.7c0,3.6-1,6.9-2.7,9.8c-2.9-2.3-7.1-2.4-10.1,0l-0.3,0.3c-1.7,1.4-4.1,1.2-5.6-0.5
	c-2.8-3.1-7.5-3.4-10.6-0.7l-4.1,3.5C6,33.5,4.4,29.9,4,25.9l0.5-0.5c1.7-1.6,4.3-1.5,5.9,0.1c2.8,2.8,7.2,3.1,10.4,0.7l2.5-1.9
	c1.8-1.4,4.3-1.3,6,0.2l4.8,4.2l2.3-2.7l-4.8-4.2c-3-2.6-7.4-2.7-10.5-0.3l-2.5,1.9c-1.7,1.3-4.1,1.2-5.6-0.4c-2.4-2.4-6-3-8.9-1.6
	C5.3,12.2,13.3,5,22.9,5z"/>
<path class="st0" d="M105.4,15.3v20.9h-4V15.3H105.4z"/>
<path class="st0" d="M103.3,5c1.5,0,2.7,1.2,2.7,2.7c0,1.5-1.2,2.7-2.7,2.7c-1.5,0-2.7-1.2-2.7-2.7C100.7,6.2,101.9,5,103.3,5z"/>
</svg>
