<?xml version="1.0" encoding="utf-8"?>
<!-- Generator: Adobe Illustrator 23.0.6, SVG Export Plug-In . SVG Version: 6.00 Build 0)  -->
<svg version="1.1" id="Layer_1" xmlns="http://www.w3.org/2000/svg" xmlns:xlink="http://www.w3.org/1999/xlink" x="0px" y="0px"
	 viewBox="0 0 196 48" style="enable-background:new 0 0 196 48;" xml:space="preserve">
<style type="text/css">
	.st0{fill-rule:evenodd;clip-rule:evenodd;fill:#FFFFFF;}
</style>
<path class="st0" d="M35.2,34.1L30,39.6c-0.1,0.1-0.2,0.2-0.4,0.3S29.3,40,29.1,40H4.6c-0.1,0-0.2,0-0.3-0.1
	c-0.1-0.1-0.2-0.2-0.2-0.3S4,39.4,4,39.3c0-0.1,0.1-0.2,0.2-0.3l5.2-5.5c0.1-0.1,0.2-0.2,0.4-0.3c0.2-0.1,0.3-0.1,0.5-0.1h24.5
	c0.1,0,0.2,0,0.3,0.1c0.1,0.1,0.2,0.2,0.2,0.3c0,0.1,0.1,0.2,0,0.3C35.3,33.9,35.2,34,35.2,34.1z M30,22.9c-0.1-0.1-0.2-0.2-0.4-0.3
	c-0.2-0.1-0.3-0.1-0.5-0.1H4.6c-0.1,0-0.2,0-0.3,0.1c-0.1,0.1-0.2,0.2-0.2,0.3S4,23.1,4,23.2c0,0.1,0.1,0.2,0.2,0.3l5.2,5.5
	c0.1,0.1,0.2,0.2,0.4,0.3c0.2,0.1,0.3,0.1,0.5,0.1h24.5c0.1,0,0.2,0,0.3-0.1c0.1-0.1,0.2-0.2,0.2-0.3c0-0.1,0.1-0.2,0-0.3
	c0-0.1-0.1-0.2-0.2-0.3L30,22.9z M4.6,18.9h24.5c0.2,0,0.3,0,0.5-0.1c0.2-0.1,0.3-0.2,0.4-0.3l5.2-5.5c0.1-0.1,0.1-0.2,0.2-0.3
	c0-0.1,0-0.2,0-0.3c0-0.1-0.1-0.2-0.2-0.3C34.9,12,34.8,12,34.7,12H10.2c-0.2,0-0.3,0-0.5,0.1c-0.2,0.1-0.3,0.2-0.4,0.3l-5.2,5.5
	C4.1,18,4,18.1,4,18.2c0,0.1,0,0.2,0,0.3s0.1,0.2,0.2,0.3C4.4,18.9,4.5,18.9,4.6,18.9z M65,23.8H51.9v-4.3h16.5v-4.3H51.9
	c-0.6,0-1.1,0.1-1.7,0.3c-0.5,0.2-1,0.5-1.4,0.9c-0.4,0.4-0.7,0.9-0.9,1.4c-0.2,0.5-0.3,1.1-0.3,1.6v4.4c0,0.6,0.1,1.1,0.3,1.6
	c0.2,0.5,0.5,1,0.9,1.4c0.4,0.4,0.9,0.7,1.4,0.9c0.5,0.2,1.1,0.3,1.7,0.3H65v4.3H47.9v4.3H65c0.6,0,1.1-0.1,1.7-0.3
	c0.5-0.2,1-0.5,1.4-0.9c0.4-0.4,0.7-0.9,0.9-1.4c0.2-0.5,0.3-1.1,0.3-1.6v-4.4c0-0.6-0.1-1.1-0.3-1.6c-0.2-0.5-0.5-1-0.9-1.4
	c-0.4-0.4-0.9-0.7-1.4-0.9C66.2,23.9,65.6,23.8,65,23.8z M77.3,15.2h13.2c0.6,0,1.1,0.1,1.7,0.3c0.5,0.2,1,0.5,1.4,0.9
	c0.4,0.4,0.7,0.9,0.9,1.4c0.2,0.5,0.3,1.1,0.3,1.6v13c0,0.6-0.1,1.1-0.3,1.6c-0.2,0.5-0.5,1-0.9,1.4c-0.4,0.4-0.9,0.7-1.4,0.9
	c-0.5,0.2-1.1,0.3-1.7,0.3H77.3c-0.6,0-1.1-0.1-1.7-0.3c-0.5-0.2-1-0.5-1.4-0.9c-0.4-0.4-0.7-0.9-0.9-1.4c-0.2-0.5-0.3-1.1-0.3-1.6
	v-13c0-0.6,0.1-1.1,0.3-1.6c0.2-0.5,0.5-1,0.9-1.4c0.4-0.4,0.9-0.7,1.4-0.9C76.2,15.3,76.7,15.2,77.3,15.2z M77.3,32.5h13.1l0-12.9
	H77.3V32.5z M136.6,15.2h-12.8c-0.6,0-1.1,0.1-1.7,0.3c-0.5,0.2-1,0.5-1.4,0.9s-0.7,0.9-0.9,1.4c-0.2,0.5-0.3,1.1-0.3,1.6v17.3h4.4
	v-7.1h12.8v7.1h4.4V19.5c0-0.6-0.1-1.1-0.3-1.7c-0.2-0.5-0.5-1-0.9-1.4c-0.4-0.4-0.9-0.7-1.4-0.9C137.7,15.3,137.1,15.2,136.6,15.2z
	 M136.5,25.4h-12.8v-5.9h12.8V25.4z M174.8,15.2h12.8c0.6,0,1.1,0.1,1.7,0.3c0.5,0.2,1,0.5,1.4,0.9c0.4,0.4,0.7,0.9,0.9,1.4
	c0.2,0.5,0.3,1.1,0.3,1.6v17.3h-4.4v-7.1h-12.8v7.1h-4.4V19.5c0-0.6,0.1-1.1,0.3-1.6c0.2-0.5,0.5-1,0.9-1.4c0.4-0.4,0.9-0.7,1.4-0.9
	S174.3,15.2,174.8,15.2z M174.8,25.4h12.8v-5.9h-12.8V25.4z M162.2,32.5h-1.8L154.2,17c-0.2-0.5-0.6-1-1.1-1.3
	c-0.5-0.3-1-0.5-1.6-0.5h-3.9c-0.4,0-0.8,0.1-1.1,0.2c-0.4,0.1-0.7,0.4-0.9,0.6c-0.3,0.3-0.5,0.6-0.6,0.9c-0.1,0.3-0.2,0.7-0.2,1.1
	v18.7h4.4V19.5h1.8l6.3,15.5c0.2,0.5,0.6,1,1.1,1.3c0.5,0.3,1,0.5,1.6,0.5h3.9c0.4,0,0.8-0.1,1.1-0.2c0.3-0.1,0.7-0.4,0.9-0.6
	c0.3-0.3,0.5-0.6,0.6-0.9c0.1-0.3,0.2-0.7,0.2-1.1V15.2h-4.4V32.5z M98.6,15.2h4.4v17.3h13.1v4.3H103c-0.6,0-1.1-0.1-1.7-0.3
	c-0.5-0.2-1-0.5-1.4-0.9c-0.4-0.4-0.7-0.9-0.9-1.4c-0.2-0.5-0.3-1.1-0.3-1.7V15.2z"/>
</svg>
