<?xml version="1.0" encoding="utf-8"?>
<!-- Generator: Adobe Illustrator 23.0.6, SVG Export Plug-In . SVG Version: 6.00 Build 0)  -->
<svg version="1.1" id="Layer_1" xmlns="http://www.w3.org/2000/svg" xmlns:xlink="http://www.w3.org/1999/xlink" x="0px" y="0px"
	 viewBox="0 0 85 48" style="enable-background:new 0 0 85 48;" xml:space="preserve">
<style type="text/css">
	.st0{fill-rule:evenodd;clip-rule:evenodd;fill:#FFFFFF;}
</style>
<path class="st0" d="M31.8,28.2c0-2.8-1-5.4-2.6-7.5h0L20.3,9.9c-0.3-0.4-0.9-0.4-1.2,0L17.4,12c-0.5,0.7-1.2,1.8-1.6,3.1
	c-0.4,1.3-0.6,2.9-0.3,4.4c0.5,2.4,2.2,4.5,5.3,6.2c4.5,2.6,7.3,5.7,8.1,9.5c0,0.2,0.1,0.4,0.1,0.6l0,0.2l0.1-0.2
	C30.8,33.7,31.8,31,31.8,28.2z M20.2,4.1l11.8,14.4l0,0l0,0c2.2,2.7,3.5,6.1,3.5,9.8c0,8.7-7,15.7-15.7,15.7C11,44.1,4,37.1,4,28.4
	c0-3.7,1.3-7.1,3.5-9.8l0,0L19.3,4.1C19.5,3.8,19.9,3.8,20.2,4.1z M11.4,19.3l-1.1,1.3l0,0c-1.7,2.1-2.7,4.7-2.7,7.5
	c0,6.7,5.4,12,12.1,12c1.9,0,3.7-0.4,5.3-1.2l0.1,0l0-0.1c0.1-0.9,0.1-2-0.2-3c-0.6-2.5-2.7-4.9-6.2-6.9c-4.1-2.3-6.5-5.3-7.2-8.9
	c0-0.2-0.1-0.4-0.1-0.6L11.4,19.3z M80.3,11.7c0.4,0.4,0.6,0.9,0.6,1.5h0c0,0.5-0.2,1-0.6,1.4l-0.1,0.1c0,0,0,0,0,0l0,0
	c-0.4,0.4-0.9,0.5-1.4,0.5c-0.6,0-1.1-0.2-1.5-0.6c-0.4-0.4-0.6-0.9-0.6-1.5c0-0.6,0.2-1.1,0.6-1.5c0.4-0.4,0.9-0.6,1.5-0.6
	C79.4,11.1,79.9,11.3,80.3,11.7z M55.2,24.8c-0.7-0.5-1.5-0.9-2.3-1.2c-0.8-0.3-1.5-0.5-2.1-0.7l-2.5-0.7c-0.4-0.1-0.9-0.3-1.5-0.5
	c-0.5-0.2-1-0.4-1.5-0.7c-0.5-0.3-0.9-0.7-1.2-1.1c-0.3-0.4-0.4-1-0.4-1.6c0-0.7,0.2-1.4,0.6-2c0.4-0.6,1-1,1.8-1.4
	c0.8-0.3,1.7-0.5,2.8-0.5c1.4,0,2.6,0.3,3.6,1c1,0.6,1.5,1.5,1.7,2.7l0,0.1h3.2l0-0.2c0-1.3-0.4-2.4-1.2-3.4c-0.7-1-1.7-1.8-3-2.3
	c-1.2-0.6-2.7-0.9-4.2-0.9c-1.6,0-3,0.3-4.3,0.9c-1.3,0.6-2.3,1.4-3,2.4c-0.8,1-1.1,2.3-1.1,3.6c0,1.7,0.6,3,1.7,4.1
	c1.1,1,2.7,1.8,4.6,2.4l3,0.9c0.8,0.2,1.6,0.5,2.4,0.8c0.7,0.3,1.3,0.7,1.7,1.2c0.4,0.5,0.6,1.1,0.6,1.9c0,0.8-0.3,1.6-0.7,2.2
	c-0.5,0.6-1.2,1.1-2.1,1.5c-0.9,0.4-1.9,0.5-3,0.5c-0.9,0-1.8-0.1-2.6-0.4c-0.8-0.3-1.5-0.7-2-1.3c-0.5-0.6-0.8-1.3-0.9-2.2l0-0.2
	h-3.4l0,0.2c0.1,1.3,0.5,2.6,1.3,3.6c0.7,1,1.8,1.8,3,2.4c1.3,0.6,2.8,0.9,4.6,0.9c1.9,0,3.5-0.3,4.8-1c1.3-0.6,2.4-1.5,3-2.6
	c0.7-1.1,1.1-2.3,1.1-3.6c0-1.2-0.2-2.2-0.7-3C56.5,25.9,55.9,25.3,55.2,24.8L55.2,24.8z M71.3,28.8c0,1.1-0.2,2-0.7,2.7
	c-0.5,0.7-1.1,1.2-1.8,1.6c-0.7,0.3-1.4,0.5-2,0.5c-1.1,0-2-0.4-2.7-1.1c-0.7-0.8-1.1-1.8-1.1-3.1V17.9h-3.1v11.7
	c0,1.6,0.3,2.9,0.8,3.9c0.5,1,1.2,1.8,2.1,2.3c0.9,0.5,2,0.8,3.1,0.8c1.4,0,2.6-0.3,3.5-1c0.8-0.6,1.5-1.3,1.9-2.2v2.9h3.1V17.9
	h-3.1V28.8z M80.3,17.9h-3.1v18.5h3.1V17.9z"/>
</svg>
