<?xml version="1.0" encoding="UTF-8"?>
<!DOCTYPE svg PUBLIC "-//W3C//DTD SVG 1.1//EN" "http://www.w3.org/Graphics/SVG/1.1/DTD/svg11.dtd">
<!-- Creator: CorelDRAW 2019 (64-Bit) -->
<svg xmlns="http://www.w3.org/2000/svg" xml:space="preserve" width="3.637in" height="1.175in" version="1.1" style="shape-rendering:geometricPrecision; text-rendering:geometricPrecision; image-rendering:optimizeQuality; fill-rule:evenodd; clip-rule:evenodd"
viewBox="0 0 3637 1175"
 xmlns:xlink="http://www.w3.org/1999/xlink"
 xmlns:xodm="http://www.corel.com/coreldraw/odm/2003">
 <defs>
  <style type="text/css">
   <![CDATA[
    .fil0 {fill:black;fill-rule:nonzero}
   ]]>
  </style>
 </defs>
 <g id="Layer_x0020_1">
  <metadata id="CorelCorpID_0Corel-Layer"/>
  <path class="fil0" d="M1799.3 23.47l-243.02 1136.07 -293.93 0 243.11 -1136.07 293.84 0zm1236.48 733.54l154.72 -426.57 89.06 426.57 -243.78 0zm327.95 402.53l271.82 0 -237.28 -1136.07 -250.85 0c-56.41,0 -103.98,32.78 -125.1,83.31l-440.99 1052.76 308.53 0 61.32 -169.73 377.03 0 35.52 169.73zm-767.12 -370.94c1.32,-299.81 -414.6,-316.36 -411.73,-450.32 0.93,-40.73 39.71,-84.04 124.65,-95.14 42.05,-5.48 158.18,-9.74 289.74,50.81l51.65 -240.87c-70.77,-25.69 -161.72,-50.38 -274.97,-50.38 -290.46,0 -494.95,154.44 -496.58,375.53 -1.94,163.63 145.92,254.8 257.33,309.2 114.44,55.69 152.84,91.39 152.42,141.17 -0.85,76.26 -91.33,109.89 -175.91,111.2 -147.76,2.3 -233.52,-39.94 -301.85,-71.79l-53.21 248.96c68.61,31.5 195.37,59 326.82,60.33 308.77,0 510.7,-152.45 511.65,-388.71zm-1217.26 -765.13l-476.17 1136.07 -310.66 0 -234.33 -906.66c-14.24,-55.82 -26.56,-76.31 -69.82,-99.78 -70.65,-38.39 -187.31,-74.35 -289.93,-96.68l6.92 -32.95 500.11 0c63.7,0 121.05,42.39 135.53,115.8l123.76 657.43 305.88 -773.23 308.7 0z"/>
 </g>
</svg>
