<?xml version="1.0" encoding="utf-8"?>
<!-- Generator: Adobe Illustrator 23.0.6, SVG Export Plug-In . SVG Version: 6.00 Build 0)  -->
<svg version="1.1" id="Layer_1" xmlns:xodm="http://www.corel.com/coreldraw/odm/2003"
	 xmlns="http://www.w3.org/2000/svg" xmlns:xlink="http://www.w3.org/1999/xlink" x="0px" y="0px" viewBox="0 0 261.9 84.6"
	 style="enable-background:new 0 0 261.9 84.6;" xml:space="preserve">
<style type="text/css">
	.st0{fill:#FFFFFF;}
</style>
<g id="Layer_x0020_1">
	<path class="st0" d="M129.5,1.7l-17.5,81.8H90.9l17.5-81.8C108.4,1.7,129.5,1.7,129.5,1.7z M218.6,54.5l11.1-30.7l6.4,30.7H218.6z
		 M242.2,83.5h19.6L244.7,1.7h-18.1c-4.1,0-7.5,2.4-9,6l-31.8,75.8h22.2l4.4-12.2h27.1C239.6,71.3,242.2,83.5,242.2,83.5z M187,56.8
		c0.1-21.6-29.9-22.8-29.6-32.4c0.1-2.9,2.9-6.1,9-6.9c3-0.4,11.4-0.7,20.9,3.7l3.7-17.3c-5.1-1.8-11.6-3.6-19.8-3.6
		c-20.9,0-35.6,11.1-35.8,27c-0.1,11.8,10.5,18.3,18.5,22.3c8.2,4,11,6.6,11,10.2c-0.1,5.5-6.6,7.9-12.7,8
		c-10.6,0.2-16.8-2.9-21.7-5.2l-3.8,17.9c4.9,2.3,14.1,4.2,23.5,4.3C172.3,84.8,186.9,73.8,187,56.8L187,56.8z M99.3,1.7L65,83.5
		H42.7L25.8,18.2c-1-4-1.9-5.5-5-7.2c-5.1-2.8-13.5-5.4-20.9-7l0.5-2.4h36c4.6,0,8.7,3.1,9.8,8.3l8.9,47.3l22-55.7L99.3,1.7
		L99.3,1.7z"/>
</g>
</svg>
