<?xml version="1.0" encoding="utf-8"?>
<!-- Generator: Adobe Illustrator 23.0.6, SVG Export Plug-In . SVG Version: 6.00 Build 0)  -->
<svg version="1.1" id="Layer_1" xmlns="http://www.w3.org/2000/svg" xmlns:xlink="http://www.w3.org/1999/xlink" x="0px" y="0px"
	 viewBox="0 0 185 48" style="enable-background:new 0 0 185 48;" xml:space="preserve">
<style type="text/css">
	.st0{fill-rule:evenodd;clip-rule:evenodd;fill:#FFFFFF;}
</style>
<path class="st0" d="M160.5,9.6L160.5,9.6c0.1,0.1,0.2,0.2,0.4,0.3c0.7,0.7,2.2,2.3,3.6,3.8c0.7,0.7,1.5,1.5,2.2,2.2
	c1.1,1.1,2.1,2.1,2.7,2.7c0.2,0.2,0.4,0.4,0.6,0.4c0.1,0,0.2-0.2,0.2-0.5L170.4,8c0-0.9,0.1-1.3,0.6-1.4c0.2,0,0.3,0,0.5,0
	c0.2,0,0.3,0,0.3-0.1c0-0.1-0.2-0.1-0.4-0.1c-0.6,0-1,0-1.3,0c-0.1,0-0.3,0-0.3,0c-0.1,0-0.3,0-0.6,0c-0.4,0-0.9,0-1.4,0
	c-0.2,0-0.4,0-0.4,0.1c0,0.1,0.1,0.1,0.3,0.1c0.2,0,0.6,0,0.9,0.1c0.4,0.2,0.5,0.5,0.6,1.5l0.2,7.5h-0.1c-0.1-0.1-0.6-0.6-1.2-1.3
	l0,0c-0.8-0.8-1.8-1.9-2.4-2.5c-2.4-2.4-5-5.1-5.2-5.3c-0.1-0.1-0.1-0.1-0.2-0.2c-0.2-0.2-0.3-0.3-0.5-0.3c-0.2,0-0.2,0.2-0.2,0.6
	l-0.1,9.8c0,1.4-0.1,1.9-0.5,2.1c-0.2,0.1-0.5,0.1-0.8,0.1c-0.2,0-0.3,0-0.3,0.1c0,0.2,0.1,0.2,0.4,0.2c0.6,0,1.2,0,1.5,0
	c0.1,0,0.2,0,0.3,0c0.1,0,0.3,0,0.5,0c0.4,0,0.9,0,1.6,0c0.2,0,0.4,0,0.4-0.2c0-0.1-0.1-0.1-0.3-0.1c-0.3,0-0.6,0-0.9-0.1
	c-0.3-0.1-0.5-0.5-0.6-1.9L160.5,9.6z M145.7,18.2c-3.2,0-5.1-2.8-5.1-6.2c0-4.2,2.2-5.2,4.1-5.2c2.7,0,4.9,2.3,4.9,6.1
	C149.6,17.7,146.9,18.2,145.7,18.2z M145,19.1c4.2,0,6.9-3,6.9-6.8c0-3.8-2.6-6.2-6.7-6.2c-5,0-6.9,3.7-6.9,6.5
	C138.3,15.5,140.2,19.1,145,19.1z M126.3,14c0,1.5,0,2.9-0.1,3.6c0,0.5-0.1,0.9-0.5,0.9c-0.2,0-0.3,0.1-0.6,0.1
	c-0.2,0-0.3,0-0.3,0.1c0,0.1,0.1,0.2,0.3,0.2c0.4,0,0.9,0,1.3,0c0.3,0,0.6,0,0.8,0c0.2,0,0.5,0,0.8,0c0.5,0,1.2,0,1.8,0
	c0.2,0,0.3,0,0.3-0.2c0-0.1-0.1-0.1-0.3-0.1c-0.3,0-0.6,0-0.8-0.1c-0.5-0.1-0.6-0.4-0.7-0.9c-0.1-0.7-0.1-2-0.1-3.6V7.2l2.1,0
	c1.5,0,1.9,0.5,2,0.9l0,0.2c0,0.3,0,0.3,0.2,0.3c0.1,0,0.1-0.1,0.1-0.3c0-0.2,0-0.7,0-1.1c0-0.4,0-0.7,0-0.9c0-0.3,0-0.3-0.1-0.3
	c0,0-0.1,0-0.3,0c-0.1,0-0.1,0-0.2,0c-0.2,0-0.6,0.1-1.2,0.1h-6.6c-0.6,0-1.2,0-1.7-0.1c-0.3,0-0.4-0.1-0.5-0.1
	c-0.1,0-0.1-0.1-0.2-0.1c-0.1,0-0.2,0.1-0.2,0.3c0,0.1-0.3,1.6-0.3,1.9c0,0.2,0,0.3,0.1,0.3c0.1,0,0.1-0.1,0.2-0.2
	c0-0.1,0.1-0.3,0.3-0.6c0.3-0.4,0.7-0.5,1.6-0.5l2.5-0.1L126.3,14L126.3,14z M115.1,15.9c0-0.8,0-1.5,0-2c0-0.6,0.2-0.9,0.6-1
	c0.2,0,0.3,0,0.5,0c0.1,0,0.2,0,0.2-0.1c0-0.1-0.1-0.2-0.3-0.2c-0.3,0-0.6,0-1,0c-0.3,0-0.7,0-0.9,0c-0.2,0-0.5,0-0.9,0
	c-0.5,0-1,0-1.5,0c-0.2,0-0.3,0-0.3,0.2c0,0.1,0.1,0.1,0.3,0.1c0.2,0,0.5,0,0.7,0c0.6,0.1,0.7,0.4,0.7,1c0,0.5,0,1.1,0,2v0v1.6
	c0,0.3-0.1,0.5-0.3,0.6c-0.4,0.2-1,0.2-1.4,0.2c-3.5,0-5.8-2.7-5.8-6.3c0-2.1,0.6-3.3,1.5-4.1c1.2-1,2.4-1,3.3-1
	c1.9,0,3.2,0.8,3.7,1.3c0.4,0.5,0.5,1,0.6,1.4c0,0.1,0,0.2,0.2,0.2c0.1,0,0.2-0.1,0.2-0.3c0-1.6,0.1-2.3,0.1-2.5c0-0.1,0-0.1,0-0.2
	c0-0.1,0-0.2-0.2-0.2c-0.4,0-1-0.1-1.3-0.2c-0.3-0.1-1.8-0.3-3-0.3c-1.4,0-2.9,0.1-4.5,1.1c-1.5,0.9-2.9,2.8-2.9,5.5
	c0,4.6,3.6,6.5,7.7,6.5c1.3,0,2.9-0.2,4-0.7c0.2-0.1,0.2-0.2,0.2-0.6L115.1,15.9L115.1,15.9z M85.8,9.6L85.8,9.6
	c0.1,0.1,0.2,0.2,0.4,0.3l0,0c0.7,0.7,2.2,2.3,3.6,3.8c0.7,0.7,1.5,1.5,2.3,2.3l0,0c1.1,1.1,2.1,2.1,2.7,2.6
	c0.2,0.2,0.4,0.4,0.6,0.4c0.1,0,0.2-0.2,0.2-0.5L95.7,8c0-0.9,0.2-1.3,0.6-1.4c0.2,0,0.3,0,0.5,0c0.2,0,0.3,0,0.3-0.1
	c0-0.1-0.2-0.1-0.4-0.1c-0.6,0-1,0-1.3,0c-0.1,0-0.2,0-0.3,0c-0.1,0-0.3,0-0.6,0c-0.4,0-0.9,0-1.4,0c-0.2,0-0.4,0-0.4,0.1
	c0,0.1,0.1,0.1,0.3,0.1c0.2,0,0.6,0,0.9,0.1c0.4,0.2,0.6,0.5,0.6,1.5l0.2,7.5h-0.1c-0.1-0.1-0.6-0.6-1.2-1.3
	c-0.8-0.8-1.8-1.9-2.4-2.5c-2.4-2.4-5-5.1-5.2-5.3c-0.1-0.1-0.1-0.1-0.1-0.2C85.3,6.1,85.2,6,85,6c-0.2,0-0.2,0.2-0.2,0.6l-0.2,9.8
	c0,1.4-0.1,1.9-0.5,2.1c-0.2,0.1-0.5,0.1-0.8,0.1c-0.2,0-0.3,0-0.3,0.1c0,0.2,0.2,0.2,0.4,0.2c0.6,0,1.2,0,1.5,0c0.1,0,0.2,0,0.3,0
	c0.1,0,0.3,0,0.5,0c0.4,0,0.9,0,1.6,0c0.2,0,0.4,0,0.4-0.2c0-0.1-0.1-0.1-0.3-0.1c-0.3,0-0.6,0-0.9-0.1c-0.3-0.1-0.5-0.5-0.6-1.9
	L85.8,9.6z M73.2,14c0,1.6,0,2.9-0.1,3.6c-0.1,0.5-0.2,0.8-0.5,0.8c-0.2,0-0.3,0.1-0.6,0.1c-0.2,0-0.3,0-0.3,0.1
	c0,0.1,0.1,0.2,0.3,0.2c0.4,0,0.9,0,1.3,0c0.3,0,0.6,0,0.8,0c0.2,0,0.4,0,0.8,0c0.5,0,1.2,0,1.8,0c0.2,0,0.3,0,0.3-0.2
	c0-0.1-0.1-0.1-0.3-0.1c-0.3,0-0.6,0-0.9-0.1c-0.5-0.1-0.6-0.4-0.7-0.8c-0.1-0.7-0.1-2-0.1-3.7v-2.9c0-2.5,0-3,0-3.5
	c0-0.6,0.2-0.9,0.6-0.9c0.2,0,0.3,0,0.5,0c0.2,0,0.3,0,0.3-0.2c0-0.1-0.1-0.1-0.3-0.1c-0.3,0-0.8,0-1.2,0c-0.3,0-0.6,0-0.8,0
	c-0.2,0-0.6,0-0.9,0c-0.4,0-0.9,0-1.2,0c-0.3,0-0.4,0-0.4,0.1c0,0.1,0.1,0.2,0.3,0.2c0.2,0,0.4,0,0.6,0.1C73,6.7,73.1,7,73.2,7.5
	c0,0.5,0,1,0,3.5v0L73.2,14L73.2,14z M60.8,11.1c0-2.5,0-3,0-3.5c0-0.6,0.2-0.9,0.6-0.9c0.2,0,0.5,0,0.7,0c0.2,0,0.3,0,0.3-0.1
	c0-0.1-0.1-0.1-0.3-0.1c-0.4,0-0.9,0-1.4,0c-0.4,0-0.7,0-0.9,0c-0.2,0-0.5,0-0.8,0c-0.5,0-1,0-1.4,0c-0.3,0-0.4,0-0.4,0.1
	c0,0.1,0.1,0.1,0.3,0.1c0.2,0,0.4,0,0.5,0c0.6,0.1,0.7,0.4,0.7,0.9c0,0.5,0,1,0,3.5V14c0,1.5,0,2.8-0.1,3.6
	c-0.1,0.5-0.2,0.9-0.5,0.9c-0.2,0-0.4,0.1-0.6,0.1c-0.2,0-0.3,0-0.3,0.1c0,0.1,0.1,0.2,0.3,0.2c0.2,0,0.3,0,0.5,0c0.2,0,0.4,0,0.6,0
	c0.4,0,0.8,0,1,0c0.7,0,1.3,0,2,0c0.2,0,0.4,0,0.6,0c0.6,0,1.3,0,2.2,0c0.9,0,1-0.1,1.1-0.5c0.1-0.5,0.2-1.7,0.2-1.9
	c0-0.2,0-0.3-0.1-0.3c-0.1,0-0.2,0.1-0.2,0.3c0,0.3-0.2,0.8-0.4,1c-0.4,0.5-1.1,0.5-2,0.5c-1.3,0-1.7-0.1-2-0.4
	c-0.3-0.3-0.3-1.5-0.3-3.6L60.8,11.1L60.8,11.1z M46.4,11.1c0-2.5,0-3,0-3.5c0-0.6,0.2-0.9,0.6-0.9c0.2,0,0.5,0,0.7,0
	c0.2,0,0.3,0,0.3-0.1c0-0.1-0.1-0.1-0.3-0.1c-0.4,0-0.9,0-1.4,0c-0.4,0-0.7,0-0.9,0c-0.2,0-0.5,0-0.8,0c-0.5,0-1,0-1.4,0
	c-0.3,0-0.4,0-0.4,0.1c0,0.1,0.1,0.1,0.3,0.1c0.2,0,0.4,0,0.5,0c0.6,0.1,0.7,0.4,0.7,0.9c0,0.5,0,1,0,3.5V14c0,1.5,0,2.8-0.1,3.6
	c-0.1,0.5-0.2,0.9-0.5,0.9c-0.2,0-0.4,0.1-0.6,0.1c-0.2,0-0.3,0-0.3,0.1c0,0.1,0.1,0.2,0.3,0.2c0.2,0,0.3,0,0.5,0c0.2,0,0.4,0,0.6,0
	c0.4,0,0.8,0,1,0c0.7,0,1.3,0,2,0c0.2,0,0.4,0,0.6,0c0.6,0,1.3,0,2.2,0c0.9,0,1-0.1,1.1-0.5c0.1-0.5,0.2-1.7,0.2-1.9
	c0-0.2,0-0.3-0.1-0.3c-0.1,0-0.2,0.1-0.2,0.3c0,0.3-0.2,0.8-0.4,1c-0.4,0.5-1.1,0.5-2,0.5c-1.3,0-1.7-0.1-2-0.4
	c-0.3-0.3-0.3-1.5-0.3-3.6L46.4,11.1L46.4,11.1z M29.5,14c0,1.5,0,2.9-0.1,3.6c-0.1,0.5-0.2,0.9-0.5,0.9c-0.2,0-0.3,0.1-0.6,0.1
	c-0.2,0-0.3,0-0.3,0.1c0,0.1,0.1,0.2,0.3,0.2c0.2,0,0.3,0,0.5,0c0.2,0,0.4,0,0.6,0c0.4,0,0.8,0,0.9,0c0.5,0,1,0,1.7,0
	c0.2,0,0.3,0,0.5,0c0.6,0,1.4,0,2.4,0c0.6,0,0.8,0,0.9-0.4c0.1-0.3,0.2-1.5,0.2-1.9c0-0.2,0-0.3-0.1-0.3c-0.1,0-0.2,0.1-0.2,0.3
	c-0.1,0.7-0.3,1-0.8,1.2C34.7,18,34,18,33.6,18c-1.7,0-2-0.3-2-1.4c0-0.3,0-1.2,0-1.9c0-0.3,0-0.5,0-0.7v-1.3c0-0.1,0-0.2,0.1-0.2
	c0.4,0,2.1,0,2.4,0.1c0.6,0.1,0.9,0.3,0.9,0.7c0,0.2,0,0.3,0.1,0.4c0,0.1,0,0.1,0,0.1c0,0.1,0,0.2,0.2,0.2c0.1,0,0.1-0.2,0.1-0.3
	c0-0.1,0-0.3,0-0.5c0-0.2,0-0.4,0-0.6c0-0.6,0.1-0.9,0.1-1c0-0.1,0-0.1,0-0.2c0-0.1,0-0.1-0.1-0.1c-0.1,0-0.1,0.1-0.2,0.2l0,0
	c-0.1,0.2-0.4,0.2-0.8,0.3c-0.4,0-2.3,0-2.7,0c-0.1,0-0.1-0.1-0.1-0.2V7.3c0-0.1,0-0.2,0.1-0.2c0.3,0,2.1,0,2.4,0.1
	c0.8,0.1,1,0.3,1.1,0.6c0.1,0.2,0.1,0.5,0.1,0.6c0,0.2,0,0.2,0.1,0.2c0.1,0,0.1-0.1,0.2-0.2c0-0.1,0-0.5,0.1-0.7c0-0.2,0-0.3,0-0.4
	c0-0.5,0.1-0.8,0.1-0.9c0-0.1,0-0.1,0-0.2c0-0.1,0-0.2-0.1-0.2c-0.1,0-0.1,0-0.2,0c0,0-0.1,0-0.1,0c-0.1,0-0.4,0.1-0.7,0.1
	c-0.3,0-3.6,0-4.2,0c-0.2,0-0.4,0-0.8,0c-0.1,0-0.2,0-0.3,0c-0.2,0-0.4,0-0.6,0c-0.2,0-0.5,0-0.7,0c-0.3,0-0.4,0-0.4,0.1
	c0,0.1,0.1,0.1,0.3,0.1c0.2,0,0.5,0,0.7,0c0.6,0.1,0.7,0.4,0.7,1c0,0.5,0,1,0,3.5V14z M9.1,18.5c0.2,0.4,0.2,0.6,0.4,0.6
	c0.2,0,0.3-0.2,0.6-0.8l0-0.1c0.7-1.5,2.9-7.5,3.3-8.3h0l3.5,8.4c0.3,0.6,0.3,0.8,0.5,0.8c0.2,0,0.3-0.2,0.5-0.8
	c0.8-2.5,2.6-7.8,3.3-9.9c0-0.1,0.1-0.3,0.1-0.4c0.3-0.8,0.5-1.3,0.8-1.4c0.2-0.1,0.4-0.1,0.6-0.1c0.2,0,0.2,0,0.2-0.2
	c0-0.1-0.1-0.1-0.3-0.1c-0.4,0-0.8,0-1.1,0c-0.1,0-0.2,0-0.3,0c0,0-0.1,0-0.3,0c-0.3,0-0.8,0-1.5,0c-0.3,0-0.4,0-0.4,0.1
	c0,0.1,0.1,0.1,0.3,0.1c0.6,0,0.8,0.2,0.8,0.5c0,0.2,0,0.6-0.2,1c-0.1,0.4-0.3,1-0.5,1.6c-0.6,2.1-1.5,5-1.7,5.9h0l-3.5-8.4l0-0.1
	c-0.2-0.5-0.3-0.7-0.4-0.7c-0.1,0-0.3,0.1-0.4,0.6l-3.2,8.7h-0.1c-0.3-0.9-1.9-6-2.1-7.1c0-0.2-0.1-0.3-0.1-0.4
	C7.7,7.5,7.6,7.1,7.6,7c0-0.2,0-0.3,0.2-0.4c0.1-0.1,0.3-0.1,0.4-0.1c0.2,0,0.3,0,0.3-0.1c0-0.1-0.1-0.1-0.3-0.1c-0.7,0-1.3,0-1.6,0
	c-0.1,0-0.2,0-0.3,0c0,0-0.2,0-0.3,0c-0.4,0-1,0-1.6,0C4.1,6.2,4,6.3,4,6.4c0,0.1,0.1,0.1,0.3,0.1c0.2,0,0.5,0,0.7,0.2
	c0.2,0.2,0.4,0.6,0.6,1.2L9.1,18.5z M177.7,31.7v-1.1h0.7c0.5,0,0.8,0.2,0.8,0.6c0,0.4-0.3,0.6-0.8,0.6H177.7z M177.3,33.4h0.4V32
	h0.7l0.8,1.4h0.4l-0.8-1.5c0.4-0.1,0.7-0.4,0.7-0.9c0-0.6-0.4-0.9-1.1-0.9h-1.1V33.4z M178.4,34.5c-1.4,0-2.6-1.2-2.6-2.6
	c0-1.4,1.1-2.6,2.6-2.6c1.4,0,2.6,1.2,2.6,2.6C181,33.3,179.8,34.5,178.4,34.5z M178.4,34.8c1.6,0,2.9-1.3,2.9-2.9
	c0-1.6-1.3-2.9-2.9-2.9c-1.6,0-2.9,1.3-2.9,2.9C175.5,33.5,176.8,34.8,178.4,34.8z M164.9,40.5c0.1-0.7,0.1-2,0.1-3.6h0v-6.8
	l-2.5,0.1c-1,0-1.4,0.1-1.6,0.5c-0.2,0.3-0.2,0.5-0.3,0.6c0,0.1-0.1,0.2-0.2,0.2c-0.1,0-0.2-0.1-0.2-0.3c0-0.3,0.3-1.8,0.4-1.9
	c0.1-0.2,0.1-0.3,0.2-0.3c0.1,0,0.1,0,0.2,0.1c0.1,0.1,0.3,0.1,0.5,0.1c0.5,0,1.1,0.1,1.7,0.1h6.6c0.5,0,0.9,0,1.1-0.1l0,0
	c0.1,0,0.1,0,0.2,0c0.1,0,0.2,0,0.3,0c0.1,0,0.1,0.1,0.1,0.3c0,0.2,0,0.5,0,0.9c0,0.4,0,0.8,0,1.1c0,0.2-0.1,0.3-0.1,0.3
	c-0.1,0-0.2-0.1-0.2-0.3l0-0.2c0-0.4-0.5-0.9-2-0.9l-2.1,0v6.8c0,1.5,0,2.9,0.1,3.6c0,0.5,0.1,0.8,0.7,0.9c0.2,0,0.6,0.1,0.9,0.1
	c0.2,0,0.3,0,0.3,0.1c0,0.1-0.1,0.2-0.3,0.2c-0.7,0-1.3,0-1.8,0c-0.3,0-0.6,0-0.8,0c-0.2,0-0.5,0-0.8,0c-0.4,0-0.9,0-1.3,0
	c-0.2,0-0.3-0.1-0.3-0.2c0-0.1,0.1-0.1,0.3-0.1c0.3,0,0.4,0,0.6-0.1C164.7,41.3,164.8,41,164.9,40.5z M144.4,32.5L144.4,32.5l0.1,7
	c0,1.3,0.3,1.7,0.6,1.9c0.3,0.1,0.6,0.1,0.9,0.1c0.2,0,0.3,0,0.3,0.1c0,0.1-0.1,0.2-0.4,0.2c-0.7,0-1.2,0-1.6,0c-0.2,0-0.4,0-0.5,0
	c0,0-0.1,0-0.3,0c-0.3,0-0.9,0-1.5,0c-0.2,0-0.4,0-0.4-0.2c0-0.1,0.1-0.1,0.3-0.1c0.2,0,0.5,0,0.7-0.1c0.4-0.1,0.5-0.6,0.5-2.1
	l0.2-9.8c0-0.3,0-0.6,0.2-0.6c0.1,0,0.3,0.1,0.5,0.3c0,0.1,0.1,0.1,0.2,0.2c0.2,0.2,2.7,2.9,5.2,5.3c0.6,0.6,1.6,1.7,2.4,2.5
	c0.6,0.6,1.1,1.1,1.2,1.3h0.1l-0.2-7.5c0-1-0.2-1.3-0.6-1.5c-0.3-0.1-0.6-0.1-0.9-0.1c-0.2,0-0.3,0-0.3-0.1c0-0.1,0.2-0.1,0.4-0.1
	c0.5,0,1,0,1.4,0c0.2,0,0.5,0,0.6,0c0.1,0,0.2,0,0.3,0c0.3,0,0.8,0,1.3,0c0.2,0,0.4,0,0.4,0.1c0,0.1-0.1,0.1-0.3,0.1
	c-0.2,0-0.3,0-0.5,0.1c-0.5,0.1-0.6,0.5-0.6,1.4l-0.2,10.5c0,0.4-0.1,0.5-0.2,0.5c-0.2,0-0.4-0.2-0.6-0.4c-0.6-0.6-1.6-1.6-2.7-2.7
	c-0.7-0.7-1.5-1.5-2.2-2.2c-1.5-1.5-3.1-3.2-3.7-3.9C144.5,32.7,144.5,32.6,144.4,32.5z M129.7,40.5c0.1-0.7,0.1-2,0.1-3.6l0-2.9
	c0-2.5,0-3,0-3.5c0-0.6-0.2-0.8-0.7-1c-0.1,0-0.4-0.1-0.6-0.1c-0.2,0-0.3,0-0.3-0.1c0-0.1,0.1-0.1,0.4-0.1c0.2,0,0.5,0,0.7,0
	c0.2,0,0.4,0,0.7,0l0,0c0.4,0,0.8,0,1,0c0.5,0,3.9,0,4.2,0c0.3,0,0.6-0.1,0.7-0.1c0,0,0.1,0,0.1,0c0.1,0,0.1,0,0.2,0
	c0.1,0,0.1,0.1,0.1,0.2c0,0,0,0.1,0,0.2c0,0.1-0.1,0.4-0.1,0.9c0,0.1,0,0.2,0,0.4c0,0.3,0,0.6-0.1,0.7c0,0.1-0.1,0.2-0.2,0.2
	c-0.1,0-0.1-0.1-0.1-0.2c0-0.1,0-0.4-0.1-0.6c-0.1-0.3-0.3-0.5-1.1-0.6c-0.3,0-2-0.1-2.4-0.1c-0.1,0-0.1,0.1-0.1,0.2v4.2
	c0,0.1,0,0.2,0.1,0.2c0.4,0,2.3,0,2.7,0c0.4,0,0.7-0.1,0.8-0.2l0,0c0.1-0.1,0.2-0.2,0.2-0.2c0.1,0,0.1,0,0.1,0.1c0,0,0,0.1,0,0.2
	c0,0.2-0.1,0.5-0.1,1c0,0.1,0,0.4,0,0.5c0,0.3,0,0.5,0,0.6c0,0.1,0,0.3-0.1,0.3c-0.1,0-0.1-0.1-0.1-0.2c0,0,0-0.1,0-0.2
	c0-0.1,0-0.3-0.1-0.4c-0.1-0.3-0.3-0.6-0.9-0.7c-0.3,0-2,0-2.4,0c-0.1,0-0.1,0.1-0.1,0.2v1.3c0,0.2,0,0.4,0,0.7c0,0.7,0,1.6,0,1.9
	c0,1.2,0.3,1.4,2,1.4c0.4,0,1.1,0,1.6-0.2c0.4-0.2,0.6-0.5,0.7-1.2c0-0.2,0.1-0.3,0.2-0.3c0.1,0,0.1,0.1,0.1,0.3
	c0,0.4-0.1,1.5-0.2,1.9c-0.1,0.4-0.3,0.4-0.9,0.4c-1,0-1.8,0-2.5,0c-0.1,0-0.3,0-0.4,0c-0.7,0-1.2,0-1.7,0c-0.2,0-0.5,0-0.9,0
	c-0.2,0-0.4,0-0.6,0c-0.2,0-0.4,0-0.5,0c-0.2,0-0.3-0.1-0.3-0.2c0-0.1,0.1-0.1,0.3-0.1c0.3,0,0.5,0,0.6-0.1
	C129.5,41.3,129.6,41,129.7,40.5z M107.3,41.4c0.5-0.1,0.6-0.7,0.7-1.3l1.7-10.7c0-0.3,0.1-0.4,0.3-0.4c0.1,0,0.2,0.1,0.4,0.5
	l4.6,9.3l4.5-9.4c0.1-0.3,0.2-0.4,0.4-0.4c0.1,0,0.2,0.2,0.3,0.5l1.5,10.2c0.2,1.1,0.3,1.5,0.8,1.7c0.5,0.2,0.8,0.2,1,0.2
	c0.2,0,0.3,0,0.3,0.1c0,0.1-0.2,0.2-0.4,0.2c-0.4,0-2.7,0-3.4-0.1c-0.4,0-0.5-0.1-0.5-0.2c0-0.1,0.1-0.1,0.2-0.2
	c0.1,0,0.1-0.2,0.1-0.7l-1-7.3h-0.1l-3.6,7.4c-0.4,0.8-0.5,0.9-0.6,0.9c-0.1,0-0.3-0.3-0.5-0.7c0,0,0-0.1-0.1-0.1
	c-0.4-0.8-1.7-3.3-1.9-3.8c-0.1-0.2-0.3-0.6-0.6-1.2c-0.4-0.7-0.8-1.6-1.1-2.3h-0.1l-0.9,6.5c0,0.3,0,0.5,0,0.8
	c0,0.3,0.2,0.5,0.5,0.5c0.3,0.1,0.5,0.1,0.7,0.1c0.1,0,0.3,0,0.3,0.1c0,0.2-0.2,0.2-0.4,0.2c-0.4,0-0.9,0-1.2,0c-0.2,0-0.4,0-0.5,0
	c-0.1,0-0.4,0-0.6,0c-0.3,0-0.7,0-1,0c-0.2,0-0.3,0-0.3-0.2c0-0.1,0.1-0.1,0.3-0.1C106.9,41.5,107,41.5,107.3,41.4z M95.1,40.5
	c0.1-0.7,0.1-2,0.1-3.6V34c0-2.5,0-3,0-3.5c0-0.6-0.2-0.8-0.7-1c-0.1,0-0.4-0.1-0.7-0.1c-0.2,0-0.3,0-0.3-0.1c0-0.1,0.1-0.1,0.4-0.1
	c0.2,0,0.5,0,0.7,0c0.2,0,0.4,0,0.6,0l0,0c0.4,0,0.8,0,1,0c0.5,0,3.9,0,4.2,0c0.3,0,0.6-0.1,0.7-0.1c0,0,0.1,0,0.1,0
	c0.1,0,0.1,0,0.2,0c0.1,0,0.1,0.1,0.1,0.2c0,0,0,0.1,0,0.2c0,0.1-0.1,0.4-0.1,0.9c0,0.1,0,0.2,0,0.3c0,0.3,0,0.6-0.1,0.8
	c0,0.1-0.1,0.2-0.2,0.2c-0.1,0-0.1-0.1-0.1-0.2c0-0.1,0-0.4-0.1-0.6c-0.1-0.3-0.3-0.5-1.1-0.6c-0.3,0-2-0.1-2.4-0.1
	c-0.1,0-0.1,0.1-0.1,0.2v4.2c0,0.1,0,0.2,0.1,0.2c0.4,0,2.3,0,2.7,0c0.4,0,0.7-0.1,0.8-0.2c0,0,0,0,0,0c0.1-0.1,0.2-0.2,0.2-0.2
	c0.1,0,0.1,0,0.1,0.1c0,0,0,0.1,0,0.2c0,0.2-0.1,0.5-0.1,1c0,0.2,0,0.4,0,0.6c0,0.2,0,0.5,0,0.5c0,0.1,0,0.3-0.1,0.3
	c-0.1,0-0.2-0.1-0.2-0.2c0,0,0-0.1,0-0.1c0-0.1,0-0.3-0.1-0.5c-0.1-0.3-0.3-0.6-0.9-0.7c-0.3,0-2,0-2.4,0c-0.1,0-0.1,0.1-0.1,0.2
	v1.3c0,0.2,0,0.4,0,0.7c0,0.7,0,1.6,0,1.9c0,1.2,0.3,1.4,2,1.4c0.4,0,1.1,0,1.6-0.2c0.4-0.2,0.6-0.5,0.8-1.2c0-0.2,0.1-0.3,0.2-0.3
	c0.1,0,0.1,0.1,0.1,0.3c0,0.4-0.1,1.5-0.2,1.9c-0.1,0.4-0.3,0.4-0.9,0.4c-1,0-1.8,0-2.5,0c-0.1,0-0.3,0-0.4,0c-0.7,0-1.2,0-1.7,0
	c-0.2,0-0.5,0-0.9,0c-0.2,0-0.4,0-0.6,0c-0.2,0-0.4,0-0.5,0c-0.2,0-0.3-0.1-0.3-0.2c0-0.1,0.1-0.1,0.3-0.1c0.3,0,0.5,0,0.6-0.1
	C94.9,41.3,95,41,95.1,40.5z M87.2,36.8c0,0.5,0,1.2,0,2h0v1.8c0,0.5,0,0.5-0.2,0.6c-1.1,0.6-2.7,0.7-4,0.7c-4.1,0-7.7-1.9-7.7-6.5
	c0-2.7,1.4-4.5,2.9-5.5c1.6-1,3.1-1.1,4.5-1.1c1.1,0,2.6,0.2,3,0.3c0.3,0.1,0.9,0.2,1.3,0.2c0.2,0,0.2,0.1,0.2,0.2c0,0,0,0.1,0,0.2
	c0,0.3-0.1,0.9-0.1,2.5c0,0.3,0,0.4-0.2,0.4c-0.1,0-0.2-0.1-0.2-0.2c0-0.4-0.1-0.9-0.6-1.4c-0.5-0.5-1.8-1.3-3.7-1.3
	c-0.9,0-2.1,0.1-3.3,1c-0.9,0.8-1.5,2-1.5,4.1c0,3.6,2.3,6.3,5.8,6.3c0.4,0,1,0,1.4-0.2c0.3-0.1,0.3-0.3,0.3-0.6v-1.6
	c0-0.8,0-1.5,0-2c0-0.6-0.2-0.8-0.7-1c-0.1,0-0.4,0-0.7,0c-0.2,0-0.2,0-0.2-0.1c0-0.1,0.1-0.2,0.3-0.2c0.5,0,1,0,1.5,0
	c0.4,0,0.7,0,0.9,0c0.3,0,0.6,0,0.9,0c0.4,0,0.7,0,1,0c0.2,0,0.3,0,0.3,0.2c0,0.1-0.1,0.1-0.2,0.1c-0.1,0-0.3,0-0.5,0
	C87.3,35.9,87.2,36.2,87.2,36.8z M63,36.6c0,0.1,0,0.1,0.1,0.1v0h3.1c0.1,0,0.1-0.1,0.1-0.1l-1.5-4.1c0,0,0,0,0,0
	c0-0.1,0-0.1-0.1-0.1c-0.1,0-0.1,0.1-0.1,0.2L63,36.6z M66.6,37.6c0-0.1-0.1-0.1-0.2-0.1l-3.7,0c-0.1,0-0.1,0-0.2,0.1l-0.9,2.3
	c-0.2,0.4-0.2,0.8-0.2,1c0,0.3,0.1,0.5,0.7,0.5h0.2c0.2,0,0.3,0,0.3,0.1c0,0.1-0.1,0.2-0.3,0.2c-0.3,0-0.6,0-0.9,0
	c-0.3,0-0.6,0-0.9,0c-0.1,0-0.2,0-0.4,0c-0.4,0-1,0-1.6,0c-0.2,0-0.3,0-0.3-0.2c0-0.1,0.1-0.1,0.2-0.1c0.2,0,0.4,0,0.5,0
	c0.8-0.1,1.1-0.7,1.4-1.5l4.2-10.3c0.2-0.5,0.3-0.7,0.5-0.7c0.1,0,0.2,0.2,0.4,0.5c0.2,0.4,0.9,2.1,1.7,4.1c0.9,2.2,1.9,4.7,2.5,6.1
	c0.6,1.5,1.1,1.7,1.5,1.8c0.2,0,0.5,0.1,0.7,0.1c0.1,0,0.2,0,0.2,0.1c0,0.1-0.2,0.2-0.8,0.2c-0.6,0-1.8,0-3.2,0c0,0-0.1,0-0.1,0
	c-0.3,0-0.4,0-0.4-0.1c0-0.1,0.1-0.1,0.2-0.2c0.1,0,0.2-0.2,0.2-0.4L66.6,37.6z M43.7,32.5L43.7,32.5l0.1,7c0,1.3,0.3,1.7,0.6,1.9
	c0.3,0.1,0.6,0.1,0.9,0.1c0.2,0,0.3,0,0.3,0.1c0,0.1-0.1,0.2-0.4,0.2c-0.7,0-1.2,0-1.6,0c-0.2,0-0.4,0-0.5,0c0,0-0.1,0-0.3,0
	c-0.3,0-0.9,0-1.5,0c-0.2,0-0.4,0-0.4-0.2c0-0.1,0.1-0.1,0.3-0.1c0.2,0,0.5,0,0.7-0.1c0.4-0.1,0.5-0.6,0.5-2.1l0.2-9.8
	c0-0.3,0-0.6,0.2-0.6c0.1,0,0.3,0.1,0.5,0.3c0,0.1,0.1,0.1,0.2,0.2c0.2,0.2,2.7,2.9,5.2,5.3c0.6,0.6,1.7,1.7,2.5,2.5
	c0.6,0.6,1.1,1.1,1.2,1.3h0.1l-0.2-7.5c0-1-0.2-1.3-0.6-1.5c-0.2-0.1-0.6-0.1-0.9-0.1c-0.2,0-0.3,0-0.3-0.1c0-0.1,0.2-0.1,0.4-0.1
	c0.5,0,1,0,1.4,0c0.2,0,0.5,0,0.6,0c0.1,0,0.2,0,0.3,0c0.3,0,0.8,0,1.3,0c0.2,0,0.4,0,0.4,0.1c0,0.1-0.1,0.1-0.3,0.1
	c-0.2,0-0.3,0-0.5,0.1c-0.5,0.1-0.6,0.5-0.6,1.4l-0.2,10.5c0,0.4-0.1,0.5-0.2,0.5c-0.2,0-0.4-0.2-0.6-0.4C52,41,50.9,40,49.9,38.9
	c-0.7-0.7-1.5-1.5-2.2-2.2c-1.5-1.5-3-3.1-3.7-3.9C43.8,32.7,43.7,32.6,43.7,32.5z M28.8,36.6c0,0.1,0,0.1,0.1,0.1v0H32
	c0.1,0,0.1-0.1,0.1-0.1l-1.5-4.1l0,0c0-0.1,0-0.1-0.1-0.1c-0.1,0-0.1,0.1-0.1,0.2L28.8,36.6z M32.4,37.6c0-0.1-0.1-0.1-0.2-0.1
	l-3.7,0c-0.1,0-0.1,0-0.2,0.1l-0.9,2.3c-0.2,0.4-0.3,0.8-0.3,1c0,0.3,0.2,0.5,0.7,0.5h0.3c0.2,0,0.2,0,0.2,0.1
	c0,0.1-0.1,0.2-0.3,0.2c-0.3,0-0.6,0-0.9,0c-0.3,0-0.6,0-0.9,0c-0.1,0-0.2,0-0.4,0c-0.4,0-1,0-1.6,0c-0.2,0-0.3,0-0.3-0.2
	c0-0.1,0.1-0.1,0.2-0.1c0.2,0,0.4,0,0.5,0c0.8-0.1,1.1-0.7,1.4-1.5l4.2-10.3c0.2-0.5,0.3-0.7,0.5-0.7c0.2,0,0.2,0.2,0.4,0.5
	c0.2,0.4,0.8,2,1.6,3.9c0.9,2.2,2,4.9,2.6,6.3c0.6,1.5,1.1,1.7,1.5,1.8c0.2,0,0.5,0.1,0.7,0.1c0.1,0,0.2,0,0.2,0.1
	c0,0.1-0.2,0.2-0.8,0.2c-0.6,0-1.8,0-3.2,0c0,0-0.1,0-0.1,0c-0.3,0-0.4,0-0.4-0.1c0-0.1,0.1-0.1,0.2-0.2c0.1,0,0.2-0.2,0.2-0.4
	L32.4,37.6z M5.3,41.4c0.5-0.1,0.6-0.7,0.7-1.3l1.7-10.7c0-0.3,0.2-0.4,0.3-0.4c0.1,0,0.2,0.1,0.5,0.5l4.6,9.3l4.5-9.4
	c0.1-0.3,0.2-0.4,0.4-0.4c0.2,0,0.2,0.2,0.3,0.5l1.5,10.2c0.2,1.1,0.3,1.5,0.8,1.7c0.5,0.2,0.8,0.2,1,0.2c0.2,0,0.3,0,0.3,0.1
	c0,0.1-0.2,0.2-0.4,0.2c-0.4,0-2.7,0-3.4-0.1c-0.4,0-0.5-0.1-0.5-0.2c0-0.1,0.1-0.1,0.2-0.2c0.1,0,0.2-0.2,0.1-0.7l-1-7.3h-0.1
	L13,40.8c-0.4,0.8-0.5,0.9-0.6,0.9c-0.1,0-0.3-0.3-0.5-0.7c0,0,0-0.1-0.1-0.1c-0.4-0.8-1.7-3.3-1.9-3.8c-0.1-0.2-0.3-0.7-0.6-1.3
	c-0.4-0.7-0.8-1.6-1.1-2.3H8.1l-0.9,6.5c0,0.3-0.1,0.5-0.1,0.8c0,0.3,0.2,0.5,0.5,0.5c0.3,0.1,0.5,0.1,0.7,0.1c0.1,0,0.3,0,0.3,0.1
	c0,0.2-0.2,0.2-0.4,0.2c-0.4,0-0.9,0-1.2,0c-0.2,0-0.4,0-0.5,0c-0.1,0-0.4,0-0.6,0c-0.3,0-0.7,0-1,0c-0.2,0-0.3,0-0.3-0.2
	c0-0.1,0.1-0.1,0.3-0.1C4.9,41.5,5,41.5,5.3,41.4z"/>
</svg>
